G04 EasyPC Gerber Version 21.0.3 Build 4286 *
G04 #@! TF.Part,Single*
G04 #@! TF.FileFunction,Legend,Top *
G04 #@! TF.FilePolarity,Positive *
%FSLAX35Y35*%
%MOIN*%
%ADD19C,0.00100*%
%ADD20C,0.00197*%
%ADD70C,0.00394*%
%ADD17C,0.00500*%
%ADD21C,0.00600*%
%ADD71C,0.00787*%
%ADD18C,0.01000*%
%ADD23C,0.01200*%
%ADD22C,0.02400*%
X0Y0D02*
D02*
D17*
X17750Y73333D02*
Y77083D01*
X19937*
X20563Y76771*
X20875Y76146*
X20563Y75521*
X19937Y75208*
X17750*
X19937D02*
X20875Y73333D01*
X40754Y56844D02*
X44504D01*
Y54657*
X44192Y54032*
X43567Y53719*
X42942Y54032*
X42630Y54657*
Y56844*
Y54657D02*
X40754Y53719D01*
Y50907D02*
X41067Y50282D01*
X41692Y49657*
X42630Y49344*
X43567*
X44192Y49657*
X44504Y50282*
Y50907*
X44192Y51532*
X43567Y51844*
X42942Y51532*
X42630Y50907*
Y50282*
X42942Y49657*
X43567Y49344*
X40754Y44344D02*
Y46844D01*
X42942Y44657*
X43567Y44344*
X44192Y44657*
X44504Y45282*
Y46219*
X44192Y46844*
X35692Y56844D02*
X36317Y56532D01*
X36630Y55907*
Y55282*
X36317Y54657*
X35692Y54344*
X35067Y54657*
X34754Y55282*
Y55907*
X35067Y56532*
X35692Y56844*
X36630*
X37567Y56532*
X38192Y55907*
X38504Y55282*
X36630Y50907D02*
Y50282D01*
X36942Y49657*
X37567Y49344*
X38192Y49657*
X38504Y50282*
Y50907*
X38192Y51532*
X37567Y51844*
X36942Y51532*
X36630Y50907*
X36317Y51532*
X35692Y51844*
X35067Y51532*
X34754Y50907*
Y50282*
X35067Y49657*
X35692Y49344*
X36317Y49657*
X36630Y50282*
X35067Y46532D02*
X34754Y45907D01*
Y45282*
X35067Y44657*
X35692Y44344*
X37567*
X38192Y44657*
X38504Y45282*
Y45907*
X38192Y46532*
X37567Y46844*
X35692*
X35067Y46532*
X38192Y44657*
X34754Y41844D02*
X38504D01*
X36004D02*
Y40907D01*
X37254Y39344*
X36004Y40907D02*
X34754Y39344D01*
X51773Y41490D02*
X48023D01*
Y43678*
X48335Y44303*
X48961Y44615*
X49585Y44303*
X49898Y43678*
Y41490*
Y43678D02*
X51773Y44615D01*
Y47428D02*
X51461Y48053D01*
X50835Y48678*
X49898Y48990*
X48961*
X48335Y48678*
X48023Y48053*
Y47428*
X48335Y46803*
X48961Y46490*
X49585Y46803*
X49898Y47428*
Y48053*
X49585Y48678*
X48961Y48990*
X51461Y51803D02*
X51773Y52428D01*
Y53053*
X51461Y53678*
X50835Y53990*
X48961*
X48335Y53678*
X48023Y53053*
Y52428*
X48335Y51803*
X48961Y51490*
X50835*
X51461Y51803*
X48335Y53678*
X56835Y41490D02*
X56211Y41803D01*
X55898Y42428*
Y43053*
X56211Y43678*
X56835Y43990*
X57461Y43678*
X57773Y43053*
Y42428*
X57461Y41803*
X56835Y41490*
X55898*
X54961Y41803*
X54335Y42428*
X54023Y43053*
X55898Y47428D02*
Y48053D01*
X55585Y48678*
X54961Y48990*
X54335Y48678*
X54023Y48053*
Y47428*
X54335Y46803*
X54961Y46490*
X55585Y46803*
X55898Y47428*
X56211Y46803*
X56835Y46490*
X57461Y46803*
X57773Y47428*
Y48053*
X57461Y48678*
X56835Y48990*
X56211Y48678*
X55898Y48053*
X57461Y51803D02*
X57773Y52428D01*
Y53053*
X57461Y53678*
X56835Y53990*
X54961*
X54335Y53678*
X54023Y53053*
Y52428*
X54335Y51803*
X54961Y51490*
X56835*
X57461Y51803*
X54335Y53678*
X57773Y56490D02*
X54023D01*
X56523D02*
Y57428D01*
X55273Y58990*
X56523Y57428D02*
X57773Y58990D01*
X55124Y129482D02*
X58874D01*
Y127295*
X58562Y126670*
X57937Y126357*
X57312Y126670*
X57000Y127295*
Y129482*
Y127295D02*
X55124Y126357D01*
Y123545D02*
X55437Y122920D01*
X56062Y122295*
X57000Y121982*
X57937*
X58562Y122295*
X58874Y122920*
Y123545*
X58562Y124170*
X57937Y124482*
X57312Y124170*
X57000Y123545*
Y122920*
X57312Y122295*
X57937Y121982*
X55124Y118857D02*
Y117607D01*
Y118232D02*
X58874D01*
X58250Y118857*
X49124Y127920D02*
X52874D01*
X50374Y129482*
Y126982*
X49124Y124482D02*
X52874Y121982D01*
Y124482*
X49437Y119170D02*
X49124Y118545D01*
Y117920*
X49437Y117295*
X50062Y116982*
X51937*
X52562Y117295*
X52874Y117920*
Y118545*
X52562Y119170*
X51937Y119482*
X50062*
X49437Y119170*
X52562Y117295*
X59994Y148530D02*
Y152280D01*
Y150405D02*
X63119D01*
Y148530D02*
Y152280D01*
X65931Y148530D02*
X67181D01*
X66557D02*
Y152280D01*
X65931D02*
X67181D01*
X72181Y150093D02*
X73119D01*
Y149780*
X72807Y149155*
X72494Y148843*
X71869Y148530*
X71244*
X70619Y148843*
X70307Y149155*
X69994Y149780*
Y151030*
X70307Y151655*
X70619Y151968*
X71244Y152280*
X71869*
X72494Y151968*
X72807Y151655*
X73119Y151030*
X74994Y148530D02*
Y152280D01*
Y150405D02*
X78119D01*
Y148530D02*
Y152280D01*
X84994D02*
X86557Y148530D01*
X88119Y152280*
X89994Y149780D02*
Y151030D01*
X90307Y151655*
X90619Y151968*
X91244Y152280*
X91869*
X92494Y151968*
X92807Y151655*
X93119Y151030*
Y149780*
X92807Y149155*
X92494Y148843*
X91869Y148530*
X91244*
X90619Y148843*
X90307Y149155*
X89994Y149780*
X94994Y152280D02*
Y148530D01*
X98119*
X101557D02*
Y152280D01*
X99994D02*
X103119D01*
X104994Y148530D02*
X106557Y152280D01*
X108119Y148530*
X105619Y150093D02*
X107494D01*
X112181D02*
X113119D01*
Y149780*
X112807Y149155*
X112494Y148843*
X111869Y148530*
X111244*
X110619Y148843*
X110307Y149155*
X109994Y149780*
Y151030*
X110307Y151655*
X110619Y151968*
X111244Y152280*
X111869*
X112494Y151968*
X112807Y151655*
X113119Y151030*
X114994Y148530D02*
Y152280D01*
X118119*
X117494Y150405D02*
X114994D01*
Y148530D02*
X118119D01*
X121557D02*
Y149155*
Y152280D01*
X65309Y141050D02*
Y144800D01*
Y142925D02*
X68434D01*
Y141050D02*
Y144800D01*
X70309D02*
X71872Y141050D01*
X73434Y144800*
X82496Y142925D02*
X83122Y142612D01*
X83434Y141987*
X83122Y141362*
X82496Y141050*
X80309*
Y144800*
X82496*
X83122Y144487*
X83434Y143862*
X83122Y143237*
X82496Y142925*
X80309*
X85309Y141050D02*
X86872Y144800D01*
X88434Y141050*
X85934Y142612D02*
X87809D01*
X91872Y141050D02*
Y144800D01*
X90309D02*
X93434D01*
X96872Y141050D02*
Y144800D01*
X95309D02*
X98434D01*
X100309Y141050D02*
Y144800D01*
X103434*
X102809Y142925D02*
X100309D01*
Y141050D02*
X103434D01*
X105309D02*
Y144800D01*
X107496*
X108122Y144487*
X108434Y143862*
X108122Y143237*
X107496Y142925*
X105309*
X107496D02*
X108434Y141050D01*
X111872D02*
Y142925D01*
X110309Y144800*
X111872Y142925D02*
X113434Y144800D01*
X75545Y156994D02*
Y160744D01*
X77420*
X78045Y160432*
X78358Y160120*
X78670Y159494*
Y158244*
X78358Y157620*
X78045Y157307*
X77420Y156994*
X75545*
X80545D02*
X82108Y160744D01*
X83670Y156994*
X81170Y158557D02*
X83045D01*
X85545Y156994D02*
Y160744D01*
X88670Y156994*
Y160744*
X92733Y158557D02*
X93670D01*
Y158244*
X93358Y157620*
X93045Y157307*
X92420Y156994*
X91795*
X91170Y157307*
X90858Y157620*
X90545Y158244*
Y159494*
X90858Y160120*
X91170Y160432*
X91795Y160744*
X92420*
X93045Y160432*
X93358Y160120*
X93670Y159494*
X95545Y156994D02*
Y160744D01*
X98670*
X98045Y158870D02*
X95545D01*
Y156994D02*
X98670D01*
X100545D02*
Y160744D01*
X102733*
X103358Y160432*
X103670Y159807*
X103358Y159182*
X102733Y158870*
X100545*
X102733D02*
X103670Y156994D01*
X107108D02*
Y157620*
Y160744D01*
X88392Y93412D02*
X89642D01*
X89017D02*
Y97162D01*
X88392D02*
X89642D01*
X95580Y94037D02*
X95267Y93724D01*
X94642Y93412*
X93705*
X93080Y93724*
X92767Y94037*
X92455Y94662*
Y95912*
X92767Y96537*
X93080Y96850*
X93705Y97162*
X94642*
X95267Y96850*
X95580Y96537*
X99017Y93412D02*
Y97162D01*
X97455Y94662*
X99955*
X93336Y58293D02*
Y54543D01*
X94898D02*
X91773D01*
X87398Y58293D02*
X89898D01*
X87711Y56105*
X87398Y55480*
X87711Y54855*
X88336Y54543*
X89273*
X89898Y54855*
X134844Y64915D02*
X131094D01*
Y67103*
X131406Y67728*
X132031Y68041*
X132656Y67728*
X132969Y67103*
Y64915*
Y67103D02*
X134844Y68041D01*
Y70541D02*
Y71791D01*
Y71165D02*
X131094D01*
X131719Y70541*
X134844Y75541D02*
Y76791D01*
Y76165D02*
X131094D01*
X131719Y75541*
X134844Y80541D02*
Y81791D01*
Y81165D02*
X131094D01*
X131719Y80541*
X140844Y65541D02*
Y66791D01*
Y66165D02*
X137094D01*
X137719Y65541*
X140844Y69915D02*
X137094D01*
X139594D02*
Y70853D01*
X138344Y72415*
X139594Y70853D02*
X140844Y72415D01*
Y77415D02*
Y74915D01*
X138656Y77103*
X138031Y77415*
X137406Y77103*
X137094Y76478*
Y75541*
X137406Y74915*
X145427Y95868D02*
Y92118D01*
X143240*
X142615Y92430*
X142302Y93055*
X142615Y93680*
X143240Y93993*
X145427*
X143240D02*
X142302Y95868D01*
X139490D02*
X138865Y95555D01*
X138240Y94930*
X137927Y93993*
Y93055*
X138240Y92430*
X138865Y92118*
X139490*
X140115Y92430*
X140427Y93055*
X140115Y93680*
X139490Y93993*
X138865*
X138240Y93680*
X137927Y93055*
X133865Y95868D02*
Y92118D01*
X135427Y94618*
X132927*
X144802Y101868D02*
X143552D01*
X144177D02*
Y98118D01*
X144802Y98743*
X140115Y101555D02*
X139490Y101868D01*
X138865*
X138240Y101555*
X137927Y100930*
Y99055*
X138240Y98430*
X138865Y98118*
X139490*
X140115Y98430*
X140427Y99055*
Y100930*
X140115Y101555*
X138240Y98430*
X135427Y101868D02*
Y98118D01*
Y100618D02*
X134490D01*
X132927Y99368*
X134490Y100618D02*
X132927Y101868D01*
X145427Y106104D02*
Y102354D01*
X143240*
X142615Y102666*
X142302Y103291*
X142615Y103916*
X143240Y104229*
X145427*
X143240D02*
X142302Y106104D01*
X139490D02*
X138865Y105791D01*
X138240Y105166*
X137927Y104229*
Y103291*
X138240Y102666*
X138865Y102354*
X139490*
X140115Y102666*
X140427Y103291*
X140115Y103916*
X139490Y104229*
X138865*
X138240Y103916*
X137927Y103291*
X135115Y105791D02*
X134490Y106104D01*
X133865*
X133240Y105791*
X132927Y105166*
X133240Y104541*
X133865Y104229*
X134490*
X133865D02*
X133240Y103916D01*
X132927Y103291*
X133240Y102666*
X133865Y102354*
X134490*
X135115Y102666*
X144802Y112104D02*
X143552D01*
X144177D02*
Y108354D01*
X144802Y108979*
X140115Y111791D02*
X139490Y112104D01*
X138865*
X138240Y111791*
X137927Y111166*
Y109291*
X138240Y108666*
X138865Y108354*
X139490*
X140115Y108666*
X140427Y109291*
Y111166*
X140115Y111791*
X138240Y108666*
X135427Y112104D02*
Y108354D01*
Y110854D02*
X134490D01*
X132927Y109604*
X134490Y110854D02*
X132927Y112104D01*
X156022Y152514D02*
G75*
G02X172022Y168514I16000D01*
G01*
G75*
G02X188022Y152514J-16000*
G01*
G75*
G02X172022Y136514I-16000*
G01*
G75*
G02X156022Y152514J16000*
G01*
X160289Y118604D02*
Y114854D01*
X158102*
X157477Y115166*
X157164Y115791*
X157477Y116416*
X158102Y116729*
X160289*
X158102D02*
X157164Y118604D01*
X154664D02*
X153414D01*
X154039D02*
Y114854D01*
X154664Y115479*
X149664Y118604D02*
X148414D01*
X149039D02*
Y114854D01*
X149664Y115479*
X144977Y118291D02*
X144352Y118604D01*
X143727*
X143102Y118291*
X142789Y117666*
Y115791*
X143102Y115166*
X143727Y114854*
X144352*
X144977Y115166*
X145289Y115791*
Y117666*
X144977Y118291*
X143102Y115166*
X159664Y124604D02*
X158414D01*
X159039D02*
Y120854D01*
X159664Y121479*
X154977Y124291D02*
X154352Y124604D01*
X153727*
X153102Y124291*
X152789Y123666*
Y121791*
X153102Y121166*
X153727Y120854*
X154352*
X154977Y121166*
X155289Y121791*
Y123666*
X154977Y124291*
X153102Y121166*
X150289Y124604D02*
Y120854D01*
Y123354D02*
X149352D01*
X147789Y122104*
X149352Y123354D02*
X147789Y124604D01*
X162022Y161701D02*
X164522D01*
X163272Y160451D02*
Y162951D01*
X167718Y67226D02*
X166468D01*
X167093D02*
Y63476D01*
X167718D02*
X166468D01*
X160530Y66601D02*
X160843Y66913D01*
X161468Y67226*
X162406*
X163030Y66913*
X163343Y66601*
X163656Y65976*
Y64726*
X163343Y64101*
X163030Y63788*
X162406Y63476*
X161468*
X160843Y63788*
X160530Y64101*
X158656Y66913D02*
X158030Y67226D01*
X157093*
X156468Y66913*
X156156Y66288*
Y65976*
X156468Y65351*
X157093Y65038*
X158656*
Y63476*
X156156*
X174930Y142757D02*
X174618Y142445D01*
X173993Y142132*
X173055*
X172430Y142445*
X172118Y142757*
X171805Y143382*
Y144632*
X172118Y145257*
X172430Y145570*
X173055Y145882*
X173993*
X174618Y145570*
X174930Y145257*
X176805Y143070D02*
X177118Y143695D01*
X177743Y144007*
X178368*
X178993Y143695*
X179305Y143070*
X178993Y142445*
X178368Y142132*
X177743*
X177118Y142445*
X176805Y143070*
Y144007*
X177118Y144945*
X177743Y145570*
X178368Y145882*
X176628Y86911D02*
Y83161D01*
X174441*
X173815Y83473*
X173503Y84098*
X173815Y84723*
X174441Y85036*
X176628*
X174441D02*
X173503Y86911D01*
X171003D02*
X169753D01*
X170378D02*
Y83161D01*
X171003Y83786*
X166003Y86911D02*
X164753D01*
X165378D02*
Y83161D01*
X166003Y83786*
X159128Y86911D02*
X161628D01*
X159441Y84723*
X159128Y84098*
X159441Y83473*
X160065Y83161*
X161003*
X161628Y83473*
X176003Y92911D02*
X174753D01*
X175378D02*
Y89161D01*
X176003Y89786*
X171315Y92598D02*
X170691Y92911D01*
X170065*
X169441Y92598*
X169128Y91973*
Y90098*
X169441Y89473*
X170065Y89161*
X170691*
X171315Y89473*
X171628Y90098*
Y91973*
X171315Y92598*
X169441Y89473*
X166628Y92911D02*
Y89161D01*
Y91661D02*
X165691D01*
X164128Y90411*
X165691Y91661D02*
X164128Y92911D01*
X199285Y122954D02*
Y119204D01*
X197098*
X196473Y119517*
X196160Y120142*
X196473Y120767*
X197098Y121079*
X199285*
X197098D02*
X196160Y122954D01*
X207506Y136415D02*
X223506D01*
Y143415*
X207506*
Y136415*
X207683Y146219D02*
X223683D01*
Y153219*
X207683*
Y146219*
X207801Y116730D02*
X223801D01*
Y123730*
X207801*
Y116730*
X207978Y126730D02*
X223978D01*
Y133730*
X207978*
Y126730*
Y166297D02*
X223978D01*
Y173297*
X207978*
Y166297*
X208096Y156356D02*
X224096D01*
Y163356*
X208096*
Y156356*
X229069Y134915D02*
X225319D01*
Y137103*
X225631Y137728*
X226256Y138041*
X226881Y137728*
X227193Y137103*
Y134915*
Y137103D02*
X229069Y138041D01*
X227193Y140853D02*
Y141478D01*
X226881Y142103*
X226256Y142415*
X225631Y142103*
X225319Y141478*
Y140853*
X225631Y140228*
X226256Y139915*
X226881Y140228*
X227193Y140853*
X227506Y140228*
X228131Y139915*
X228756Y140228*
X229069Y140853*
Y141478*
X228756Y142103*
X228131Y142415*
X227506Y142103*
X227193Y141478*
X229246Y144719D02*
X225496D01*
Y146906*
X225808Y147531*
X226433Y147844*
X227058Y147531*
X227370Y146906*
Y144719*
Y146906D02*
X229246Y147844D01*
Y152219D02*
Y149719D01*
X227058Y151906*
X226433Y152219*
X225808Y151906*
X225496Y151281*
Y150344*
X225808Y149719*
X229364Y115230D02*
X225614D01*
Y117418*
X225926Y118043*
X226551Y118356*
X227176Y118043*
X227489Y117418*
Y115230*
Y117418D02*
X229364Y118356D01*
Y121168D02*
X229051Y121793D01*
X228426Y122418*
X227489Y122730*
X226551*
X225926Y122418*
X225614Y121793*
Y121168*
X225926Y120543*
X226551Y120230*
X227176Y120543*
X227489Y121168*
Y121793*
X227176Y122418*
X226551Y122730*
X229541Y125230D02*
X225791D01*
Y127418*
X226103Y128043*
X226728Y128356*
X227353Y128043*
X227666Y127418*
Y125230*
Y127418D02*
X229541Y128356D01*
X229228Y130543D02*
X229541Y131168D01*
Y131793*
X229228Y132418*
X228603Y132730*
X227978Y132418*
X227666Y131793*
Y131168*
Y131793D02*
X227353Y132418D01*
X226728Y132730*
X226103Y132418*
X225791Y131793*
Y131168*
X226103Y130543*
X229541Y164797D02*
X225791D01*
Y166985*
X226103Y167610*
X226728Y167922*
X227353Y167610*
X227666Y166985*
Y164797*
Y166985D02*
X229541Y167922D01*
Y170422D02*
Y171672D01*
Y171047D02*
X225791D01*
X226416Y170422*
X229659Y154856D02*
X225909D01*
Y157044*
X226221Y157669*
X226846Y157981*
X227471Y157669*
X227784Y157044*
Y154856*
Y157044D02*
X229659Y157981D01*
Y159856D02*
X225909Y162356D01*
Y159856*
X248557Y107100D02*
Y172100D01*
X251057*
X253557Y169600*
X256057Y172100*
X258557*
Y107100*
X248557*
X267612Y100006D02*
Y103756D01*
X269800*
X270425Y103444*
X270737Y102819*
X270425Y102194*
X269800Y101881*
X267612*
X269800D02*
X270737Y100006D01*
X271104Y66285D02*
X271417Y65972D01*
X272042Y65660*
X272667Y65972*
X272980Y66285*
Y69410*
X273604*
X272980D02*
X271730D01*
X277667Y65660D02*
Y69410D01*
X276104Y66910*
X278604*
X281010Y136081D02*
X297010D01*
Y143081*
X281010*
Y136081*
X281502Y105608D02*
X297502D01*
Y112608*
X281502*
Y105608*
Y126081D02*
X297502D01*
Y133081*
X281502*
Y126081*
Y146061D02*
X297502D01*
Y153061*
X281502*
Y146061*
Y156356D02*
X297502D01*
Y163356*
X281502*
Y156356*
X281699Y115805D02*
X297699D01*
Y122805*
X281699*
Y115805*
X302572Y134581D02*
X298822D01*
Y136768*
X299135Y137393*
X299760Y137706*
X300385Y137393*
X300697Y136768*
Y134581*
Y136768D02*
X302572Y137706D01*
X302260Y139581D02*
X302572Y140206D01*
Y141143*
X302260Y141768*
X301635Y142081*
X301322*
X300697Y141768*
X300385Y141143*
Y139581*
X298822*
Y142081*
X303065Y104108D02*
X299315D01*
Y106296*
X299627Y106921*
X300252Y107233*
X300877Y106921*
X301189Y106296*
Y104108*
Y106296D02*
X303065Y107233D01*
Y109733D02*
Y110983D01*
Y110358D02*
X299315D01*
X299939Y109733*
X303065Y116608D02*
Y114108D01*
X300877Y116296*
X300252Y116608*
X299627Y116296*
X299315Y115671*
Y114733*
X299627Y114108*
X303065Y124581D02*
X299315D01*
Y126768*
X299627Y127393*
X300252Y127706*
X300877Y127393*
X301189Y126768*
Y124581*
Y126768D02*
X303065Y127706D01*
Y130206D02*
Y131456D01*
Y130831D02*
X299315D01*
X299939Y130206*
X302752Y134893D02*
X303065Y135518D01*
Y136143*
X302752Y136768*
X302127Y137081*
X300252*
X299627Y136768*
X299315Y136143*
Y135518*
X299627Y134893*
X300252Y134581*
X302127*
X302752Y134893*
X299627Y136768*
X303065Y144561D02*
X299315D01*
Y146748*
X299627Y147374*
X300252Y147686*
X300877Y147374*
X301189Y146748*
Y144561*
Y146748D02*
X303065Y147686D01*
Y150186D02*
Y151436D01*
Y150811D02*
X299315D01*
X299939Y150186*
X303065Y155186D02*
Y156436D01*
Y155811D02*
X299315D01*
X299939Y155186*
X303065Y154856D02*
X299315D01*
Y157044*
X299627Y157669*
X300252Y157981*
X300877Y157669*
X301189Y157044*
Y154856*
Y157044D02*
X303065Y157981D01*
X302127Y159856D02*
X301502Y160169D01*
X301189Y160794*
Y161419*
X301502Y162044*
X302127Y162356*
X302752Y162044*
X303065Y161419*
Y160794*
X302752Y160169*
X302127Y159856*
X301189*
X300252Y160169*
X299627Y160794*
X299315Y161419*
X303261Y114305D02*
X299511D01*
Y116493*
X299824Y117118*
X300449Y117430*
X301074Y117118*
X301386Y116493*
Y114305*
Y116493D02*
X303261Y117430D01*
Y120868D02*
X299511D01*
X302011Y119305*
Y121805*
X356789Y127541D02*
Y111541D01*
X363789*
Y127541*
X356789*
X367841Y111219D02*
X383841D01*
Y118219*
X367841*
Y111219*
X373128Y78526D02*
Y62526D01*
X380128*
Y78526*
X373128*
X380927Y82061D02*
X377177D01*
Y84248*
X377489Y84874*
X378114Y85186*
X378739Y84874*
X379052Y84248*
Y82061*
Y84248D02*
X380927Y85186D01*
X405171Y116512D02*
Y117762D01*
X405484Y118387*
X405796Y118700*
X406421Y119012*
X407046*
X407671Y118700*
X407984Y118387*
X408296Y117762*
Y116512*
X407984Y115887*
X407671Y115575*
X407046Y115262*
X406421*
X405796Y115575*
X405484Y115887*
X405171Y116512*
X407359Y116200D02*
X408296Y115262D01*
X410484Y115575D02*
X411109Y115262D01*
X411734*
X412359Y115575*
X412671Y116200*
X412359Y116825*
X411734Y117137*
X411109*
X411734D02*
X412359Y117450D01*
X412671Y118075*
X412359Y118700*
X411734Y119012*
X411109*
X410484Y118700*
X428006Y88786D02*
Y92536D01*
X430193*
X430819Y92224*
X431131Y91598*
X430819Y90974*
X430193Y90661*
X428006*
X430193D02*
X431131Y88786D01*
X435506D02*
X433006D01*
X435193Y90974*
X435506Y91598*
X435193Y92224*
X434569Y92536*
X433631*
X433006Y92224*
X440506Y88786D02*
X438006D01*
X440193Y90974*
X440506Y91598*
X440193Y92224*
X439569Y92536*
X438631*
X438006Y92224*
X431986Y111104D02*
Y95104D01*
X438986*
Y111104*
X431986*
X460093Y108865D02*
Y112615D01*
X462280*
X462905Y112302*
X463218Y111677*
X462905Y111052*
X462280Y110740*
X460093*
X462280D02*
X463218Y108865D01*
X460250Y109160D02*
Y112910D01*
X462437*
X463063Y112598*
X463375Y111972*
X463063Y111348*
X462437Y111035*
X460250*
X462437D02*
X463375Y109160D01*
X464514Y61600D02*
X464826Y61287D01*
X465451Y60975*
X466076Y61287*
X466389Y61600*
Y64725*
X467014*
X466389D02*
X465139D01*
X470139Y60975D02*
X471389D01*
X470764D02*
Y64725D01*
X470139Y64100*
X480270Y89672D02*
Y93422D01*
X482457*
X483082Y93109*
X483395Y92484*
X483082Y91859*
X482457Y91547*
X480270*
X482457D02*
X483395Y89672D01*
X487770D02*
X485270D01*
X487457Y91859*
X487770Y92484*
X487457Y93109*
X486832Y93422*
X485895*
X485270Y93109*
X490582Y89984D02*
X491207Y89672D01*
X491832*
X492457Y89984*
X492770Y90609*
X492457Y91234*
X491832Y91547*
X491207*
X491832D02*
X492457Y91859D01*
X492770Y92484*
X492457Y93109*
X491832Y93422*
X491207*
X490582Y93109*
X483671Y149435D02*
Y165435D01*
X476671*
Y149435*
X483671*
X484250Y111990D02*
Y95990D01*
X491250*
Y111990*
X484250*
X485171Y167248D02*
Y170998D01*
X482046*
X480171D02*
Y167248D01*
X477046*
X477671Y169122D02*
X480171D01*
Y170998D02*
X477046D01*
X475171D02*
Y167248D01*
X473296*
X472671Y167560*
X472359Y167872*
X472046Y168498*
Y169748*
X472359Y170372*
X472671Y170685*
X473296Y170998*
X475171*
X488392Y153990D02*
X492142D01*
Y151803*
X491830Y151178*
X491205Y150865*
X490580Y151178*
X490267Y151803*
Y153990*
Y151803D02*
X488392Y150865D01*
Y148365D02*
Y147115D01*
Y147740D02*
X492142D01*
X491517Y148365*
X488392Y143990D02*
X492142Y141490D01*
Y143990*
X510711Y150010D02*
X494711D01*
Y143010*
X510711*
Y150010*
X524167Y742D02*
Y186766D01*
X8026*
Y250*
X524167Y742*
D02*
D18*
X17750Y102396D02*
Y72396D01*
X32750*
Y102396*
X17750*
X108536Y74813D02*
G75*
G02X109659I561D01*
G01*
X108536D02*
G75*
G02X109659I561D01*
G01*
G75*
G02X108536I-561*
G01*
X116096Y71313D02*
Y47691D01*
X70821*
Y71313*
X116096*
X195329Y103104D02*
Y123104D01*
X185329*
Y103104*
X195329*
X361864Y82061D02*
X381864D01*
Y92061*
X361864*
Y82061*
X397888Y150545D02*
X467888D01*
Y170545*
X397888*
Y150545*
X463557Y131589D02*
Y101589D01*
X473557*
Y131589*
X463557*
X503026Y131982D02*
Y101982D01*
X513026*
Y131982*
X503026*
D02*
D19*
X13045Y63537D02*
X16982D01*
X15014Y61569D02*
Y65506D01*
X20919Y61569D02*
Y67474D01*
Y64522D02*
X25841D01*
Y61569D02*
Y67474D01*
X28793D02*
X31254Y61569D01*
X33715Y67474*
X38420Y110880D02*
Y107480D01*
X40820*
Y110880*
X38420*
G36*
Y107480*
X40820*
Y110880*
X38420*
G37*
Y139280D02*
Y135880D01*
X40820*
Y139280*
X38420*
G36*
Y135880*
X40820*
Y139280*
X38420*
G37*
X38715Y36963D02*
Y33563D01*
X41115*
Y36963*
X38715*
G36*
Y33563*
X41115*
Y36963*
X38715*
G37*
Y65363D02*
Y61963D01*
X41115*
Y65363*
X38715*
G36*
Y61963*
X41115*
Y65363*
X38715*
G37*
X51412Y110880D02*
Y107480D01*
X53812*
Y110880*
X51412*
G36*
Y107480*
X53812*
Y110880*
X51412*
G37*
Y139280D02*
Y135880D01*
X53812*
Y139280*
X51412*
G36*
Y135880*
X53812*
Y139280*
X51412*
G37*
X51609Y37258D02*
Y33858D01*
X54009*
Y37258*
X51609*
G36*
Y33858*
X54009*
Y37258*
X51609*
G37*
Y65658D02*
Y62258D01*
X54009*
Y65658*
X51609*
G36*
Y62258*
X54009*
Y65658*
X51609*
G37*
X62530Y79053D02*
Y77553D01*
X65530*
Y79053*
X62530*
G36*
Y77553*
X65530*
Y79053*
X62530*
G37*
Y97553D02*
Y96053D01*
X65530*
Y97553*
X62530*
G36*
Y96053*
X65530*
Y97553*
X62530*
G37*
X119124Y123443D02*
Y121943D01*
X122124*
Y123443*
X119124*
G36*
Y121943*
X122124*
Y123443*
X119124*
G37*
Y141943D02*
Y140443D01*
X122124*
Y141943*
X119124*
G36*
Y140443*
X122124*
Y141943*
X119124*
G37*
X126037Y101942D02*
X122637D01*
Y99542*
X126037*
Y101942*
G36*
X122637*
Y99542*
X126037*
Y101942*
G37*
Y112178D02*
X122637D01*
Y109778*
X126037*
Y112178*
G36*
X122637*
Y109778*
X126037*
Y112178*
G37*
X140900Y124678D02*
X137500D01*
Y122278*
X140900*
Y124678*
G36*
X137500*
Y122278*
X140900*
Y124678*
G37*
X140919Y55905D02*
Y59305D01*
X138519*
Y55905*
X140919*
G36*
Y59305*
X138519*
Y55905*
X140919*
G37*
Y84305D02*
Y87705D01*
X138519*
Y84305*
X140919*
G36*
Y87705*
X138519*
Y84305*
X140919*
G37*
X151283Y81303D02*
Y78350D01*
X152514Y80319*
X150545*
X153006Y65407D02*
X152514Y65654D01*
X151776*
X151283Y65407*
X151037Y64915*
Y64669*
X151283Y64177*
X151776Y63931*
X153006*
Y62701*
X151037*
X154429Y89207D02*
X157829D01*
Y91607*
X154429*
Y89207*
G36*
X157829*
Y91607*
X154429*
Y89207*
G37*
X154437Y101942D02*
X151037D01*
Y99542*
X154437*
Y101942*
G36*
X151037*
Y99542*
X154437*
Y101942*
G37*
Y112178D02*
X151037D01*
Y109778*
X154437*
Y112178*
G36*
X151037*
Y109778*
X154437*
Y112178*
G37*
X169300Y124678D02*
X165900D01*
Y122278*
X169300*
Y124678*
G36*
X165900*
Y122278*
X169300*
Y124678*
G37*
X171805Y68016D02*
X170821D01*
X171313D02*
Y65063D01*
X171805Y65555*
X171313Y76874D02*
X173281D01*
X171559Y75152*
X171313Y74659*
X171559Y74167*
X172051Y73921*
X172789*
X173281Y74167*
X173823Y82533D02*
X173331Y82780D01*
X172839*
X172346Y82533*
X172100Y82041*
X172346Y81549*
X172839Y81303*
X173331*
X172839D02*
X172346Y81057D01*
X172100Y80565*
X172346Y80073*
X172839Y79827*
X173331*
X173823Y80073*
X179360Y60943D02*
Y59443D01*
X182360*
Y60943*
X179360*
G36*
Y59443*
X182360*
Y60943*
X179360*
G37*
Y79443D02*
Y77943D01*
X182360*
Y79443*
X179360*
G36*
Y77943*
X182360*
Y79443*
X179360*
G37*
X182829Y89207D02*
X186229D01*
Y91607*
X182829*
Y89207*
G36*
X186229*
Y91607*
X182829*
Y89207*
G37*
X212258Y31402D02*
X213488Y34354D01*
X214719Y31402*
X212750Y32632D02*
X214226D01*
X216195Y31402D02*
Y33370D01*
Y33124D02*
X216441Y33370D01*
X216933*
X217179Y33124*
Y32386*
Y33124D02*
X217425Y33370D01*
X217917*
X218163Y33124*
Y31402*
X220132Y33370D02*
Y30663D01*
Y32140D02*
X220378Y31648D01*
X220870Y31402*
X221362*
X221854Y31648*
X222100Y32140*
Y32632*
X221854Y33124*
X221362Y33370*
X220870*
X220378Y33124*
X220132Y32632*
Y32140*
X226037Y31648D02*
X225791Y31402D01*
X225299*
X224807*
X224315Y31648*
X224069Y32140*
Y32878*
X224315Y33124*
X224807Y33370*
X225299*
X225791Y33124*
X226037Y32878*
Y32632*
X225791Y32386*
X225299Y32140*
X224807*
X224315Y32386*
X224069Y32632*
X228006Y31402D02*
Y33370D01*
Y32632D02*
X228252Y33124D01*
X228744Y33370*
X229236*
X229728Y33124*
X231943D02*
X232435Y33370D01*
X233173*
X233665Y33124*
X233911Y32632*
Y31894*
X233665Y31648*
X233173Y31402*
X232681*
X232189Y31648*
X231943Y31894*
Y32140*
X232189Y32386*
X232681Y32632*
X233173*
X233665Y32386*
X233911Y32140*
Y31894D02*
Y31402D01*
X241785Y32632D02*
X241539Y33124D01*
X241047Y33370*
X240555*
X240063Y33124*
X239817Y32632*
Y32140*
X240063Y31648*
X240555Y31402*
X241047*
X241539Y31648*
X241785Y32140*
Y31402D02*
Y34354D01*
X243754Y31402D02*
Y33370D01*
Y32632D02*
X244000Y33124D01*
X244492Y33370*
X244984*
X245476Y33124*
X248675Y31402D02*
Y33370D01*
Y34108D02*
X251628Y33370*
X252612Y31402D01*
X253596Y33370*
X257533Y31648D02*
X257287Y31402D01*
X256795*
X256303*
X255811Y31648*
X255565Y32140*
Y32878*
X255811Y33124*
X256303Y33370*
X256795*
X257287Y33124*
X257533Y32878*
Y32632*
X257287Y32386*
X256795Y32140*
X256303*
X255811Y32386*
X255565Y32632*
X259502Y31402D02*
Y33370D01*
Y32632D02*
X259748Y33124D01*
X260240Y33370*
X260732*
X261224Y33124*
X268360Y31402D02*
Y33370D01*
Y34108D02*
X271313Y31402*
Y33370D01*
Y32632D02*
X271559Y33124D01*
X272051Y33370*
X272543*
X273035Y33124*
X273281Y32632*
Y31402*
X275742Y33370D02*
X276726D01*
X276234Y33862D02*
Y31648D01*
X276480Y31402*
X276726*
X276972Y31648*
X281156D02*
X280909Y31402D01*
X280417*
X279925*
X279433Y31648*
X279187Y32140*
Y32878*
X279433Y33124*
X279925Y33370*
X280417*
X280909Y33124*
X281156Y32878*
Y32632*
X280909Y32386*
X280417Y32140*
X279925*
X279433Y32386*
X279187Y32632*
X283124Y31402D02*
Y33370D01*
Y32632D02*
X283370Y33124D01*
X283862Y33370*
X284354*
X284846Y33124*
X288045Y31402D02*
Y33862D01*
X288291Y34108*
X288537*
X288783Y33862*
X287553Y33124D02*
X288537D01*
X290998D02*
X291490Y33370D01*
X292228*
X292720Y33124*
X292967Y32632*
Y31894*
X292720Y31648*
X292228Y31402*
X291736*
X291244Y31648*
X290998Y31894*
Y32140*
X291244Y32386*
X291736Y32632*
X292228*
X292720Y32386*
X292967Y32140*
Y31894D02*
Y31402D01*
X296904Y33124D02*
X296411Y33370D01*
X295673*
X295181Y33124*
X294935Y32632*
Y32140*
X295181Y31648*
X295673Y31402*
X296411*
X296904Y31648*
X300841D02*
X300594Y31402D01*
X300102*
X299610*
X299118Y31648*
X298872Y32140*
Y32878*
X299118Y33124*
X299610Y33370*
X300102*
X300594Y33124*
X300841Y32878*
Y32632*
X300594Y32386*
X300102Y32140*
X299610*
X299118Y32386*
X298872Y32632*
X306746Y31402D02*
Y33370D01*
Y32632D02*
X306992Y33124D01*
X307484Y33370*
X307976*
X308469Y33124*
X312652Y31648D02*
X312406Y31402D01*
X311913*
X311421*
X310929Y31648*
X310683Y32140*
Y32878*
X310929Y33124*
X311421Y33370*
X311913*
X312406Y33124*
X312652Y32878*
Y32632*
X312406Y32386*
X311913Y32140*
X311421*
X310929Y32386*
X310683Y32632*
X314620Y33370D02*
X315604Y31402D01*
X316589Y33370*
X318803Y31402D02*
X319049Y31648D01*
X318803Y31894*
X318557Y31648*
X318803Y31402*
X328400D02*
X326431D01*
X328154Y33124*
X328400Y33616*
X328154Y34108*
X327661Y34354*
X326923*
X326431Y34108*
X212258Y26677D02*
X213488Y29630D01*
X214719Y26677*
X212750Y27907D02*
X214226D01*
X216195Y26677D02*
Y28646D01*
Y27907D02*
X216441Y28400D01*
X216933Y28646*
X217425*
X217917Y28400*
X220132Y27415D02*
X220378Y26923D01*
X220870Y26677*
X221362*
X221854Y26923*
X222100Y27415*
Y27907*
X221854Y28400*
X221362Y28646*
X220870*
X220378Y28400*
X220132Y27907*
Y26677D02*
Y29630D01*
X226037Y26923D02*
X225791Y26677D01*
X225299*
X224807*
X224315Y26923*
X224069Y27415*
Y28154*
X224315Y28400*
X224807Y28646*
X225299*
X225791Y28400*
X226037Y28154*
Y27907*
X225791Y27661*
X225299Y27415*
X224807*
X224315Y27661*
X224069Y27907*
X228006Y26677D02*
Y28646D01*
Y27907D02*
X228252Y28400D01*
X228744Y28646*
X229236*
X229728Y28400*
X235880Y26677D02*
Y29630D01*
Y28154D02*
X236618D01*
X238341Y29630*
X236618Y28154D02*
X238341Y26677D01*
X239817D02*
Y28646D01*
Y27907D02*
X240063Y28400D01*
X240555Y28646*
X241047*
X241539Y28400*
X243754D02*
X244246Y28646D01*
X244984*
X245476Y28400*
X245722Y27907*
Y27169*
X245476Y26923*
X244984Y26677*
X244492*
X244000Y26923*
X243754Y27169*
Y27415*
X244000Y27661*
X244492Y27907*
X244984*
X245476Y27661*
X245722Y27415*
Y27169D02*
Y26677D01*
X247691D02*
Y28646D01*
Y28400D02*
X247937Y28646D01*
X248429*
X248675Y28400*
Y27661*
Y28400D02*
X248921Y28646D01*
X249413*
X249659Y28400*
Y26677*
X251628Y28400D02*
X252120Y28646D01*
X252858*
X253350Y28400*
X253596Y27907*
Y27169*
X253350Y26923*
X252858Y26677*
X252366*
X251874Y26923*
X251628Y27169*
Y27415*
X251874Y27661*
X252366Y27907*
X252858*
X253350Y27661*
X253596Y27415*
Y27169D02*
Y26677D01*
X255565D02*
Y28646D01*
Y27907D02*
X255811Y28400D01*
X256303Y28646*
X256795*
X257287Y28400*
X239643Y69535D02*
Y69379D01*
X237769*
X239175Y71254D02*
X239487Y71410D01*
X239643Y71723*
Y72035*
X239487Y72348*
X239175Y72504*
X238862*
X238550Y72348*
X238393Y72035*
Y71723*
X238550Y71410*
X238862Y71254*
X239175*
X239331Y75317D02*
X239487Y75160D01*
X239643Y74848*
Y74379*
X239487Y74067*
X239331Y73910*
X239019Y73754*
X238393*
X238081Y73910*
X237925Y74067*
X237769Y74379*
Y74848*
X237925Y75160*
X238081Y75317*
X243285Y94443D02*
X241410D01*
X242504D02*
X242191Y94599D01*
X242035Y94912*
Y95224*
X242191Y95537*
X242504Y95693*
X243285*
Y97568D02*
X242035D01*
X241567D02*
X242973Y101006*
X243129Y100849D01*
X243285Y100537*
Y100068*
X243129Y99756*
X242973Y99599*
X242660Y99443*
X242035*
X241723Y99599*
X241567Y99756*
X241410Y100068*
Y100537*
X241567Y100849*
X241723Y101006*
X247517Y70126D02*
Y69970D01*
X245643*
X247049Y71844D02*
X247361Y72001D01*
X247517Y72313*
Y72626*
X247361Y72938*
X247049Y73094*
X246736*
X246424Y72938*
X246267Y72626*
Y72313*
X246424Y72001*
X246736Y71844*
X247049*
X246580Y75438D02*
X246736Y75751D01*
X247049Y75907*
X247361Y75751*
X247517Y75438*
Y74344*
X245643*
Y75438*
X245799Y75751*
X246111Y75907*
X246424Y75751*
X246580Y75438*
Y74344*
X251750Y94738D02*
X249875D01*
X250969D02*
X250656Y94894D01*
X250500Y95207*
Y95519*
X250656Y95832*
X250969Y95988*
X251750*
Y97863D02*
X250500D01*
X250031D02*
X250812Y100832*
X250969Y101144D01*
X251281Y101301*
X251593Y101144*
X251750Y100832*
Y99738*
X249875*
Y100832*
X250031Y101144*
X250343Y101301*
X250656Y101144*
X250812Y100832*
Y99738*
X256179Y70224D02*
Y70068D01*
X254304*
X255710Y71943D02*
X256022Y72099D01*
X256179Y72412*
Y72724*
X256022Y73037*
X255710Y73193*
X255398*
X255085Y73037*
X254929Y72724*
Y72412*
X255085Y72099*
X255398Y71943*
X255710*
X256179Y74443D02*
X254304Y75224D01*
X256179Y76006*
X255398Y74756D02*
Y75693D01*
X259131Y95132D02*
X257257D01*
X258350D02*
X258038Y95288D01*
X257881Y95601*
Y95913*
X258038Y96226*
X258350Y96382*
X259131*
Y98257D02*
X257881D01*
X257413D02*
X259131Y100132*
X257257Y100913D01*
X259131Y101694*
X258350Y100444D02*
Y101382D01*
X266381Y94935D02*
Y96185D01*
X267006Y95560D02*
X265756D01*
X266849Y97435D02*
X267006Y97748D01*
Y98216*
X266849Y98529*
X266537Y98685*
X266381*
X266068Y98529*
X265912Y98216*
Y97435*
X265131*
Y98685*
Y99935D02*
X267006Y100716D01*
X265131Y101498*
X283049Y93656D02*
X281174D01*
Y95218*
X282111Y94906D02*
Y93656D01*
X281955Y96156D02*
X281799Y96468D01*
Y96937*
X281955Y97249*
X282268Y97406*
X282737*
X282893Y97249*
X283049Y96937*
Y96624*
X282893Y96312*
X282737Y96156*
X282580*
X282424Y96312*
X282268Y96624*
Y96937*
X282424Y97249*
X282580Y97406*
X282737D02*
X283049D01*
X281799Y98656D02*
X282580D01*
X282893Y98812*
X283049Y99124*
Y99437*
X282893Y99749*
X282580Y99906*
X281799D02*
X283049D01*
Y101937D02*
Y101781D01*
X281174*
X281799Y103968D02*
Y104593D01*
X281487Y104281D02*
X282893D01*
X283049Y104437*
Y104593*
X282893Y104749*
X293610Y63161D02*
Y63786D01*
X293298Y63474D02*
X294704D01*
X294860Y63630*
Y63786*
X294704Y63942*
Y66598D02*
X294860Y66442D01*
Y66130*
Y65817*
X294704Y65505*
X294391Y65348*
X293922*
X293766Y65505*
X293610Y65817*
Y66130*
X293766Y66442*
X293922Y66598*
X294079*
X294235Y66442*
X294391Y66130*
Y65817*
X294235Y65505*
X294079Y65348*
X294860Y67848D02*
X293610D01*
X293766D02*
X293610Y68005D01*
Y68317*
X293766Y68474*
X294235*
X293766D02*
X293610Y68630D01*
Y68942*
X293766Y69098*
X294860*
X293610Y70348D02*
X295329D01*
X294391D02*
X294704Y70505D01*
X294860Y70817*
Y71130*
X294704Y71442*
X294391Y71598*
X294079*
X293766Y71442*
X293610Y71130*
Y70817*
X293766Y70505*
X294079Y70348*
X294391*
X294548Y74411D02*
X294704Y74255D01*
X294860Y73942*
Y73474*
X294704Y73161*
X294548Y73005*
X294235Y72848*
X293610*
X293298Y73005*
X293141Y73161*
X292985Y73474*
Y73942*
X293141Y74255*
X293298Y74411*
X297425Y97366D02*
X297113Y97210D01*
X296956Y96897*
Y96585*
X297113Y96272*
X297425Y96116*
X297581*
X297894Y96272*
X298050Y96585*
Y96897*
X297894Y97210*
X297581Y97366*
X296956D02*
X298206D01*
X298519Y97210*
X298675Y96897*
Y96429*
X298519Y96116*
X298206Y98616D02*
X296956D01*
X297425D02*
X297113Y98772D01*
X296956Y99085*
Y99397*
X297113Y99710*
X297425Y99866*
X298206*
X297425Y102366D02*
X297113Y102210D01*
X296956Y101897*
Y101585*
X297113Y101272*
X297425Y101116*
X297738*
X298050Y101272*
X298206Y101585*
Y101897*
X298050Y102210*
X297738Y102366*
X298206D02*
X296331D01*
X301779Y63161D02*
Y63786D01*
X301467Y63474D02*
X302873D01*
X303029Y63630*
Y63786*
X302873Y63942*
Y66598D02*
X303029Y66442D01*
Y66130*
Y65817*
X302873Y65505*
X302561Y65348*
X302092*
X301935Y65505*
X301779Y65817*
Y66130*
X301935Y66442*
X302092Y66598*
X302248*
X302404Y66442*
X302561Y66130*
Y65817*
X302404Y65505*
X302248Y65348*
X303029Y67848D02*
X301779D01*
X301935D02*
X301779Y68005D01*
Y68317*
X301935Y68474*
X302404*
X301935D02*
X301779Y68630D01*
Y68942*
X301935Y69098*
X303029*
X301779Y70348D02*
X303498D01*
X302561D02*
X302873Y70505D01*
X303029Y70817*
Y71130*
X302873Y71442*
X302561Y71598*
X302248*
X301935Y71442*
X301779Y71130*
Y70817*
X301935Y70505*
X302248Y70348*
X302561*
X303029Y72848D02*
X301154Y73630D01*
X303029Y74411*
X302248Y73161D02*
Y74098D01*
X308767Y94559D02*
Y95183D01*
X308455Y94871D02*
X309861D01*
X310017Y95027*
Y95183*
X309861Y95340*
Y97996D02*
X310017Y97840D01*
Y97527*
Y97215*
X309861Y96902*
X309549Y96746*
X309080*
X308924Y96902*
X308767Y97215*
Y97527*
X308924Y97840*
X309080Y97996*
X309236*
X309393Y97840*
X309549Y97527*
Y97215*
X309393Y96902*
X309236Y96746*
X310017Y99246D02*
X308767D01*
X308924D02*
X308767Y99402D01*
Y99715*
X308924Y99871*
X309393*
X308924D02*
X308767Y100027D01*
Y100340*
X308924Y100496*
X310017*
X308767Y101746D02*
X310486D01*
X309549D02*
X309861Y101902D01*
X310017Y102215*
Y102527*
X309861Y102840*
X309549Y102996*
X309236*
X308924Y102840*
X308767Y102527*
Y102215*
X308924Y101902*
X309236Y101746*
X309549*
X309080Y105340D02*
X309236Y105652D01*
X309549Y105809*
X309861Y105652*
X310017Y105340*
Y104246*
X308143*
Y105340*
X308299Y105652*
X308611Y105809*
X308924Y105652*
X309080Y105340*
Y104246*
X373104Y96313D02*
X373892D01*
X373498Y96707D02*
Y94935D01*
X373695Y94738*
X373892*
X374089Y94935*
X377435D02*
X377238Y94738D01*
X376844*
X376451*
X376057Y94935*
X375860Y95329*
Y95919*
X376057Y96116*
X376451Y96313*
X376844*
X377238Y96116*
X377435Y95919*
Y95722*
X377238Y95526*
X376844Y95329*
X376451*
X376057Y95526*
X375860Y95722*
X379010Y94738D02*
Y96313D01*
Y96116D02*
X379207Y96313D01*
X379600*
X379797Y96116*
Y95526*
Y96116D02*
X379994Y96313D01*
X380388*
X380585Y96116*
Y94738*
X382159Y96313D02*
Y94148D01*
Y95329D02*
X382356Y94935D01*
X382750Y94738*
X383144*
X383537Y94935*
X383734Y95329*
Y95722*
X383537Y96116*
X383144Y96313*
X382750*
X382356Y96116*
X382159Y95722*
Y95329*
X386687Y95919D02*
X387081Y95722D01*
X387278Y95329*
X387081Y94935*
X386687Y94738*
X385309*
Y97100*
X386687*
X387081Y96904*
X387278Y96510*
X387081Y96116*
X386687Y95919*
X385309*
X393823Y114498D02*
X392573D01*
X393667Y115592*
X393823Y115905*
X393667Y116217*
X393354Y116373*
X392885*
X392573Y116217*
X392729Y121151D02*
X393042Y120994D01*
X393354*
X393667Y121151*
X393823Y121463*
X393667Y121776*
X393354Y121932*
X393042*
X393354D02*
X393667Y122088D01*
X393823Y122401*
X393667Y122713*
X393354Y122869*
X393042*
X392729Y122713*
X393082Y106920D02*
X393707D01*
X393395D02*
Y108794D01*
X393082Y108482*
X416467Y90766D02*
Y89266D01*
X419467*
Y90766*
X416467*
G36*
Y89266*
X419467*
Y90766*
X416467*
G37*
Y109266D02*
Y107766D01*
X419467*
Y109266*
X416467*
G36*
Y107766*
X419467*
Y109266*
X416467*
G37*
X454974Y145601D02*
Y147476D01*
X456537*
X456224Y146538D02*
X454974D01*
X457474Y146694D02*
X457787Y146851D01*
X458256*
X458568Y146694*
X458724Y146382*
Y145913*
X458568Y145757*
X458256Y145601*
X457943*
X457631Y145757*
X457474Y145913*
Y146069*
X457631Y146226*
X457943Y146382*
X458256*
X458568Y146226*
X458724Y146069*
Y145913D02*
Y145601D01*
X459974Y146851D02*
Y146069D01*
X460131Y145757*
X460443Y145601*
X460756*
X461068Y145757*
X461224Y146069*
Y146851D02*
Y145601D01*
X463256D02*
X463100D01*
Y147476*
X465287Y146851D02*
X465912D01*
X465600Y147163D02*
Y145757D01*
X465756Y145601*
X465912*
X466068Y145757*
X478915Y110093D02*
X477040D01*
X477978D02*
Y111655D01*
X478915D02*
X477040D01*
X477821Y112593D02*
X477665Y112905D01*
Y113374*
X477821Y113686*
X478134Y113843*
X478603*
X478759Y113686*
X478915Y113374*
Y113061*
X478759Y112749*
X478603Y112593*
X478446*
X478290Y112749*
X478134Y113061*
Y113374*
X478290Y113686*
X478446Y113843*
X478603D02*
X478915D01*
Y115874D02*
Y115718D01*
X477040*
X478915Y118374D02*
Y118218D01*
X477040*
X478915Y122905D02*
Y123530D01*
Y123218D02*
X477040D01*
X477353Y122905*
X517301Y110093D02*
X515426D01*
X516363D02*
Y111655D01*
X517301D02*
X515426D01*
X516207Y112593D02*
X516051Y112905D01*
Y113374*
X516207Y113686*
X516520Y113843*
X516989*
X517144Y113686*
X517301Y113374*
Y113061*
X517144Y112749*
X516989Y112593*
X516832*
X516676Y112749*
X516520Y113061*
Y113374*
X516676Y113686*
X516832Y113843*
X516989D02*
X517301D01*
Y115874D02*
Y115718D01*
X515426*
X517301Y118374D02*
Y118218D01*
X515426*
X517301Y123843D02*
Y122593D01*
X516207Y123686*
X515894Y123843*
X515582Y123686*
X515426Y123374*
Y122905*
X515582Y122593*
D02*
D70*
X395585Y151963D02*
X391648D01*
X395093Y155407*
X395585Y156392*
X395093Y157376*
X394108Y157868*
X392632*
X391648Y157376*
X392632Y162947D02*
X394600D01*
X393616D02*
Y168852D01*
X392632Y167868*
D02*
D71*
X163144Y69738D02*
X160781D01*
Y81156*
X163144*
Y69738*
X169246Y69541D02*
X164522D01*
X203203Y91687D02*
Y16884D01*
X340211*
Y91687*
X305837Y97423D02*
G75*
G02X305325I-256D01*
G01*
X305837D02*
G75*
G02X305325I-256D01*
G01*
G75*
G02X305837I256*
G01*
X433715Y92278D02*
Y67089D01*
X415998*
Y46600*
X433715*
Y17474*
X495919*
Y46600*
X513636*
Y67089*
X495919*
Y92278*
X479348Y94518D02*
G75*
G02X478703I-323D01*
G01*
X479348D02*
G75*
G02X478703I-323D01*
G01*
G75*
G02X479348I323*
G01*
D02*
D20*
X398863Y126923D02*
G75*
G03X398883Y103301I-103J-11811D01*
G01*
X398872D02*
X403990Y104482D01*
Y125742*
X398872Y126923*
D02*
D21*
X44120Y111880D02*
Y113380D01*
X43620Y113880*
Y132880*
X44120Y133380*
Y134880*
G75*
G03X43120Y135880I-1000*
G01*
X36120*
G75*
G03X35120Y134880J-1000*
G01*
Y133380*
X35620Y132880*
Y113880*
X35120Y113380*
Y111880*
G75*
G03X36120Y110880I1000*
G01*
X43120*
G75*
G03X44120Y111880J1000*
G01*
X44415Y37963D02*
Y39463D01*
X43915Y39963*
Y58963*
X44415Y59463*
Y60963*
G75*
G03X43415Y61963I-1000*
G01*
X36415*
G75*
G03X35415Y60963J-1000*
G01*
Y59463*
X35915Y58963*
Y39963*
X35415Y39463*
Y37963*
G75*
G03X36415Y36963I1000*
G01*
X43415*
G75*
G03X44415Y37963J1000*
G01*
X57112Y111880D02*
Y113380D01*
X56612Y113880*
Y132880*
X57112Y133380*
Y134880*
G75*
G03X56112Y135880I-1000*
G01*
X49112*
G75*
G03X48112Y134880J-1000*
G01*
Y133380*
X48612Y132880*
Y113880*
X48112Y113380*
Y111880*
G75*
G03X49112Y110880I1000*
G01*
X56112*
G75*
G03X57112Y111880J1000*
G01*
X57309Y38258D02*
Y39758D01*
X56809Y40258*
Y59258*
X57309Y59758*
Y61258*
G75*
G03X56309Y62258I-1000*
G01*
X49309*
G75*
G03X48309Y61258J-1000*
G01*
Y59758*
X48809Y59258*
Y40258*
X48309Y39758*
Y38258*
G75*
G03X49309Y37258I1000*
G01*
X56309*
G75*
G03X57309Y38258J1000*
G01*
X61530Y79053D02*
X66530D01*
X61530Y96053D02*
X66530D01*
X61530D02*
G75*
G03X59530Y94053J-2000D01*
G01*
Y81053*
G75*
G03X61530Y79053I2000*
G01*
X64030Y82553D02*
Y86253D01*
Y92553D02*
Y88753D01*
X66530Y96053D02*
G75*
G02X68530Y94053J-2000D01*
G01*
Y81053*
G75*
G02X66530Y79053I-2000*
G01*
X78833Y85900D02*
X106233D01*
X93733Y125900D02*
G75*
G02X91333I-1200D01*
G01*
X106233D02*
X82033D01*
X118124Y123443D02*
X123124D01*
X118124Y140443D02*
X123124D01*
X118124D02*
G75*
G03X116124Y138443J-2000D01*
G01*
Y125443*
G75*
G03X118124Y123443I2000*
G01*
X120624Y126943D02*
Y130643D01*
Y136943D02*
Y133143D01*
X123124Y140443D02*
G75*
G02X125124Y138443J-2000D01*
G01*
Y125443*
G75*
G02X123124Y123443I-2000*
G01*
X127037Y96242D02*
X128537D01*
X129037Y96742*
X148037*
X148537Y96242*
X150037*
G75*
G03X151037Y97242J1000*
G01*
Y104242*
G75*
G03X150037Y105242I-1000*
G01*
X148537*
X148037Y104742*
X129037*
X128537Y105242*
X127037*
G75*
G03X126037Y104242J-1000*
G01*
Y97242*
G75*
G03X127037Y96242I1000*
G01*
Y106478D02*
X128537D01*
X129037Y106978*
X148037*
X148537Y106478*
X150037*
G75*
G03X151037Y107478J1000*
G01*
Y114478*
G75*
G03X150037Y115478I-1000*
G01*
X148537*
X148037Y114978*
X129037*
X128537Y115478*
X127037*
G75*
G03X126037Y114478J-1000*
G01*
Y107478*
G75*
G03X127037Y106478I1000*
G01*
X135219Y83305D02*
Y81805D01*
X135719Y81305*
Y62305*
X135219Y61805*
Y60305*
G75*
G03X136219Y59305I1000*
G01*
X143219*
G75*
G03X144219Y60305J1000*
G01*
Y61805*
X143719Y62305*
Y81305*
X144219Y81805*
Y83305*
G75*
G03X143219Y84305I-1000*
G01*
X136219*
G75*
G03X135219Y83305J-1000*
G01*
X141900Y118978D02*
X143400D01*
X143900Y119478*
X162900*
X163400Y118978*
X164900*
G75*
G03X165900Y119978J1000*
G01*
Y126978*
G75*
G03X164900Y127978I-1000*
G01*
X163400*
X162900Y127478*
X143900*
X143400Y127978*
X141900*
G75*
G03X140900Y126978J-1000*
G01*
Y119978*
G75*
G03X141900Y118978I1000*
G01*
X178360Y60943D02*
X183360D01*
X178360Y77943D02*
X183360D01*
X178360D02*
G75*
G03X176360Y75943J-2000D01*
G01*
Y62943*
G75*
G03X178360Y60943I2000*
G01*
X180860Y64443D02*
Y68143D01*
Y74443D02*
Y70643D01*
X181829Y94907D02*
X180329D01*
X179829Y94407*
X160829*
X160329Y94907*
X158829*
G75*
G03X157829Y93907J-1000*
G01*
Y86907*
G75*
G03X158829Y85907I1000*
G01*
X160329*
X160829Y86407*
X179829*
X180329Y85907*
X181829*
G75*
G03X182829Y86907J1000*
G01*
Y93907*
G75*
G03X181829Y94907I-1000*
G01*
X183360Y77943D02*
G75*
G02X185360Y75943J-2000D01*
G01*
Y62943*
G75*
G02X183360Y60943I-2000*
G01*
X415467Y90766D02*
X420467D01*
X415467Y107766D02*
X420467D01*
X415467D02*
G75*
G03X413467Y105766J-2000D01*
G01*
Y92766*
G75*
G03X415467Y90766I2000*
G01*
X417967Y94266D02*
Y97966D01*
Y104266D02*
Y100466D01*
X420467Y107766D02*
G75*
G02X422467Y105766J-2000D01*
G01*
Y92766*
G75*
G02X420467Y90766I-2000*
G01*
D02*
D22*
X39620Y103380D02*
Y107380D01*
Y143380D02*
Y139380D01*
X39915Y29463D02*
Y33463D01*
Y69463D02*
Y65463D01*
X52612Y103380D02*
Y107380D01*
Y143380D02*
Y139380D01*
X52809Y29758D02*
Y33758D01*
Y69758D02*
Y65758D01*
X118537Y100742D02*
X122537D01*
X118537Y110978D02*
X122537D01*
X133400Y123478D02*
X137400D01*
X139719Y51805D02*
Y55805D01*
Y91805D02*
Y87805D01*
X150329Y90407D02*
X154329D01*
X158537Y100742D02*
X154537D01*
X158537Y110978D02*
X154537D01*
X173400Y123478D02*
X169400D01*
X190329Y90407D02*
X186329D01*
D02*
D23*
X67030Y86253D02*
X61030D01*
X67030Y88753D02*
X61030D01*
X123624Y130643D02*
X117624D01*
X123624Y133143D02*
X117624D01*
X183860Y68143D02*
X177860D01*
X183860Y70643D02*
X177860D01*
X420967Y97966D02*
X414967D01*
X420967Y100466D02*
X414967D01*
X0Y0D02*
M02*
