G04 EasyPC Gerber Version 21.0.3 Build 4286 *
G04 #@! TF.Part,Single*
G04 #@! TF.FileFunction,Copper,L2,Bot *
G04 #@! TF.FilePolarity,Positive *
%FSLAX35Y35*%
%MOIN*%
G04 #@! TA.AperFunction,ComponentPad*
%AMT78*0 Octagon Pad at angle 0*4,1,8,-0.01077,-0.02600,0.01077,-0.02600,0.02600,-0.01077,0.02600,0.01077,0.01077,0.02600,-0.01077,0.02600,-0.02600,0.01077,-0.02600,-0.01077,-0.01077,-0.02600,0*%
%ADD78T78*%
G04 #@! TA.AperFunction,SMDPad*
%ADD76R,0.05500X0.06000*%
G04 #@! TA.AperFunction,WasherPad*
%ADD26R,0.06000X0.06000*%
G04 #@! TA.AperFunction,ComponentPad*
%ADD80R,0.06600X0.06600*%
G04 #@! TD.AperFunction*
%ADD24C,0.00001*%
%ADD17C,0.00500*%
%ADD18C,0.01000*%
%ADD84C,0.01500*%
G04 #@! TA.AperFunction,ComponentPad*
%ADD79C,0.04764*%
G04 #@! TA.AperFunction,ViaPad*
%ADD85C,0.04800*%
G04 #@! TA.AperFunction,ComponentPad*
%ADD77C,0.05945*%
G04 #@! TA.AperFunction,WasherPad*
%ADD28C,0.06000*%
G04 #@! TA.AperFunction,ComponentPad*
%ADD72C,0.06496*%
%ADD81C,0.06600*%
%ADD73C,0.18307*%
%ADD74C,0.19685*%
G04 #@! TA.AperFunction,WasherPad*
%ADD25C,0.27559*%
%ADD27O,0.11000X0.06000*%
%ADD29O,0.11811X0.07874*%
G04 #@! TA.AperFunction,SMDPad*
%ADD75R,0.06000X0.05500*%
X0Y0D02*
D02*
D17*
X12750Y181352D02*
X12258Y4778D01*
X92474Y5663*
X92967Y181352*
X12750*
X27219Y85461D02*
G75*
G02Y74331J-5565D01*
G01*
X23281*
G75*
G02Y85461J5565*
G01*
X27219*
Y99608D02*
G75*
G02X31406Y95421J-4187D01*
G01*
G75*
G02X27219Y91234I-4187*
G01*
X23281*
G75*
G02X19094Y95421J4187*
G01*
G75*
G02X23281Y99608I4187*
G01*
X27219*
X41370Y147608D02*
X43848Y145130D01*
Y141630*
X41370Y139152*
X37870*
X35392Y141630*
Y145130*
X37870Y147608*
X41370*
X54559Y33986D02*
X57037Y31508D01*
Y28007*
X54559Y25530*
X51059*
X49209Y27380*
X43811*
X41666Y25235*
X38165*
X35687Y27712*
Y31213*
X38165Y33691*
X41666*
X43220Y32136*
X49209*
X51059Y33986*
X54559*
X41666Y73691D02*
X44143Y71213D01*
Y67712*
X41666Y65235*
X38165*
X35687Y67712*
Y71213*
X38165Y73691*
X41666*
X40800Y106230D02*
X42470Y104559D01*
Y102200*
X40800Y100530*
X38441*
X36770Y102200*
Y104559*
X38441Y106230*
X40800*
X73058Y112963D02*
G75*
G02X82461Y110900I4475J-2063D01*
G01*
G75*
G02X73406Y108207I-4928*
G01*
X54990*
Y106980*
X56840Y105130*
Y101630*
X54363Y99152*
X50862*
X48384Y101630*
Y105130*
X50234Y106980*
Y110585*
G75*
G02X52612Y112963I2378*
G01*
X73058*
X73983Y90900D02*
G75*
G02X81083I3550D01*
G01*
G75*
G02X73983I-3550*
G01*
X74449Y66313D02*
G75*
G02X82469I4010D01*
G01*
G75*
G02X74449I-4010*
G01*
X73983Y100900D02*
G75*
G02X81083I3550D01*
G01*
G75*
G02X73983I-3550*
G01*
X65780Y81781D02*
X68257Y79304D01*
Y75803*
X65780Y73325*
X62279*
X59802Y75803*
Y79304*
X62279Y81781*
X65780*
X65209Y100403D02*
X66880Y98733D01*
Y96374*
X65209Y94703*
X62850*
X61180Y96374*
Y98733*
X62850Y100403*
X65209*
X54559Y73986D02*
X57037Y71508D01*
Y68007*
X54559Y65530*
X51059*
X48581Y68007*
Y71508*
X51059Y73986*
X54559*
X54363Y147608D02*
X56840Y145130D01*
Y141630*
X54363Y139152*
X50862*
X48384Y141630*
Y145130*
X50862Y147608*
X54363*
X72604Y125829D02*
X82463D01*
Y115970*
X72604*
Y125829*
X88459Y68945D02*
G75*
G02Y63681J-2632D01*
G01*
G75*
G02X85827Y66313J2632*
G01*
G75*
G02X88459Y68945I2632*
G01*
X92541Y29610D02*
G36*
X57037D01*
Y28007*
X54559Y25530*
X51059*
X49209Y27380*
X43811*
X41666Y25235*
X38165*
X35687Y27712*
Y29610*
X12508*
Y5028*
X34897*
X92474Y5663*
X92541Y29610*
G37*
X92644Y66313D02*
G36*
X91091D01*
G75*
G02X88459Y63681I-2632*
G01*
G75*
G02X85827Y66313J2632*
G01*
X82469*
G75*
G02X74449I-4010*
G01*
X55343*
X54559Y65530*
X51059*
X50276Y66313*
X42744*
X41666Y65235*
X38165*
X37087Y66313*
X12508*
Y29610*
X35687*
Y31213*
X38165Y33691*
X41666*
X43220Y32136*
X49209*
X51059Y33986*
X54559*
X57037Y31508*
Y29610*
X92541*
X92644Y66313*
G37*
X35687Y69463D02*
G36*
X12508D01*
Y66313*
X37087*
X35687Y67712*
Y69463*
G37*
X48581D02*
G36*
X44143D01*
Y67712*
X42744Y66313*
X50276*
X48581Y68007*
Y69463*
G37*
X74449Y66313D02*
G36*
G75*
G02X75977Y69463I4010J0D01*
G01*
X57037*
Y68007*
X55343Y66313*
X74449*
G37*
X92653Y69463D02*
G36*
X80941D01*
G75*
G02X82469Y66313I-2482J-3149*
G01*
X85827*
G75*
G02X88459Y68945I2632*
G01*
G75*
G02X91091Y66313J-2632*
G01*
X92644*
X92653Y69463*
G37*
X92682Y79896D02*
G36*
X67665D01*
X68257Y79304*
Y75803*
X65780Y73325*
X62279*
X59802Y75803*
Y79304*
X60394Y79896*
X32783*
G75*
G02X27219Y74331I-5565*
G01*
X23281*
G75*
G02X17717Y79896J5565*
G01*
X12508*
Y69463*
X35687*
Y71213*
X38165Y73691*
X41666*
X44143Y71213*
Y69463*
X48581*
Y71508*
X51059Y73986*
X54559*
X57037Y71508*
Y69463*
X75977*
G75*
G02X80941I2482J-3150*
G01*
X92653*
X92682Y79896*
G37*
X92713Y90900D02*
G36*
X81083D01*
G75*
G02X73983I-3550*
G01*
X12508*
Y79896*
X17717*
G75*
G02X23281Y85461I5565*
G01*
X27219*
G75*
G02X32783Y79896J-5565*
G01*
X60394*
X62279Y81781*
X65780*
X67665Y79896*
X92682*
X92713Y90900*
G37*
X92717Y92102D02*
G36*
Y95421D01*
X65927*
X65209Y94703*
X62850*
X62132Y95421*
X31406*
G75*
G02X27219Y91234I-4187*
G01*
X23281*
G75*
G02X19094Y95421J4187*
G01*
X12511*
X12508Y94478*
Y90900*
X73983*
G75*
G02X81083I3550*
G01*
X92713*
X92717Y92102*
G37*
X56840Y103380D02*
G36*
Y101630D01*
X54363Y99152*
X50862*
X48384Y101630*
Y103380*
X42470*
Y102200*
X40800Y100530*
X38441*
X36770Y102200*
Y103380*
X12533*
X12511Y95421*
X19094*
G75*
G02X23281Y99608I4187*
G01*
X27219*
G75*
G02X31406Y95421J-4187*
G01*
X62132*
X61180Y96374*
Y98733*
X62850Y100403*
X65209*
X66880Y98733*
Y96374*
X65927Y95421*
X92717*
Y103380*
X80073*
G75*
G02X81083Y100900I-2540J-2480*
G01*
G75*
G02X73983I-3550*
G01*
G75*
G02X74994Y103380I3550*
G01*
X56840*
G37*
X82463Y120900D02*
G36*
Y115970D01*
X72604*
Y120900*
X12581*
X12533Y103380*
X36770*
Y104559*
X38441Y106230*
X40800*
X42470Y104559*
Y103380*
X48384*
Y105130*
X50234Y106980*
Y110585*
G75*
G02X52612Y112963I2378*
G01*
X73058*
G75*
G02X82461Y110900I4475J-2063*
G01*
G75*
G02X73406Y108207I-4928*
G01*
X54990*
Y106980*
X56840Y105130*
Y103380*
X74994*
G75*
G02X80073I2540J-2480*
G01*
X92717*
Y120900*
X82463*
G37*
X56840Y143380D02*
G36*
Y141630D01*
X54363Y139152*
X50862*
X48384Y141630*
Y143380*
X43848*
Y141630*
X41370Y139152*
X37870*
X35392Y141630*
Y143380*
X12644*
X12581Y120900*
X72604*
Y125829*
X82463*
Y120900*
X92717*
Y143380*
X56840*
G37*
X12749Y181102D02*
G36*
X12644Y143380D01*
X35392*
Y145130*
X37870Y147608*
X41370*
X43848Y145130*
Y143380*
X48384*
Y145130*
X50862Y147608*
X54363*
X56840Y145130*
Y143380*
X92717*
Y181102*
X12749*
G37*
X230679Y117222D02*
Y105369D01*
X241143Y94906*
G75*
G02X246707Y93186I1627J-4596*
G01*
G75*
G02X247287Y93846I3937J-2878*
G01*
X246305Y94828*
G75*
G02X245608Y96510I1681J1681*
G01*
G75*
G02Y96511I740J0*
G01*
G75*
G02Y96513I854J2*
G01*
Y118761*
G75*
G02X241057Y114972I-4551J839*
G01*
X236057*
G75*
G02X232087Y117222J4628*
G01*
X230679*
X241057Y112850D02*
G75*
G02X244307Y109600J-3250D01*
G01*
G75*
G02X241057Y106350I-3250*
G01*
X236057*
G75*
G02X232807Y109600J3250*
G01*
G75*
G02X236057Y112850I3250*
G01*
X241057*
X245608Y109600D02*
G36*
X244307D01*
G75*
G02X241057Y106350I-3250*
G01*
X236057*
G75*
G02X232807Y109600J3250*
G01*
X230929*
Y105119*
X241143Y94906*
G75*
G02X246511Y93436I1628J-4596*
G01*
X246902*
G75*
G02X247037Y93591I3750J-3137*
G01*
Y94096*
X246305Y94828*
G75*
G02X245608Y96510I1683J1682*
G01*
Y96511*
Y96513*
Y109600*
G37*
Y118511D02*
G36*
X245555D01*
G75*
G02X241057Y114972I-4498J1089*
G01*
X236057*
G75*
G02X232087Y117222J4628*
G01*
X230929*
Y109600*
X232807*
G75*
G02X236057Y112850I3250*
G01*
X241057*
G75*
G02X244307Y109600J-3250*
G01*
X245608*
Y118511*
G37*
X241211Y76210D02*
Y74956D01*
X246412Y69754*
X248446*
X245028Y73172*
G75*
G02X244329Y74856I1679J1684*
G01*
Y76210*
G75*
G02X242770Y77590I2378J4257*
G01*
G75*
G02X241211Y76210I-3937J2877*
G01*
G36*
Y74956*
X246412Y69754*
X248446*
X245028Y73172*
G75*
G02X244329Y74856I1679J1684*
G01*
Y76210*
G75*
G02X242770Y77590I2378J4257*
G01*
G75*
G02X241211Y76210I-3937J2877*
G01*
G37*
X249085D02*
Y75841D01*
X252022Y72904*
X254552*
G75*
G02X254474Y72978I1603J1757*
G01*
X252899Y74553*
G75*
G02X252203Y76210I1682J1682*
G01*
G75*
G02X250644Y77590I2377J4257*
G01*
G75*
G02X249085Y76210I-3937J2877*
G01*
G36*
Y75841*
X252022Y72904*
X254552*
G75*
G02X254474Y72978I1603J1757*
G01*
X252899Y74553*
G75*
G02X252203Y76210I1682J1682*
G01*
G75*
G02X250644Y77590I2377J4257*
G01*
G75*
G02X249085Y76210I-3937J2877*
G01*
G37*
X250364Y101694D02*
Y97495D01*
X252325Y95534*
G75*
G02X252888Y94638I-1681J-1681*
G01*
G75*
G02X254581Y93186I-2244J-4329*
G01*
G75*
G02X256140Y94566I3937J-2877*
G01*
Y95919*
X250364Y101694*
G36*
Y97495*
X252325Y95534*
G75*
G02X252888Y94638I-1681J-1681*
G01*
G75*
G02X254581Y93186I-2244J-4329*
G01*
G75*
G02X256140Y94566I3937J-2877*
G01*
Y95919*
X250364Y101694*
G37*
X258518Y77590D02*
G75*
G02X258047Y77037I-3936J2876D01*
G01*
X258988*
G75*
G02X258518Y77590I3466J3429*
G01*
G36*
G75*
G02X258047Y77037I-3936J2876*
G01*
X258988*
G75*
G02X258518Y77590I3466J3429*
G01*
G37*
X266392D02*
G75*
G02X265921Y77037I-3936J2876D01*
G01*
X266862*
G75*
G02X266392Y77590I3466J3429*
G01*
G36*
G75*
G02X265921Y77037I-3936J2876*
G01*
X266862*
G75*
G02X266392Y77590I3466J3429*
G01*
G37*
X274266D02*
G75*
G02X273795Y77037I-3936J2876D01*
G01*
X274736*
G75*
G02X274266Y77590I3466J3429*
G01*
G36*
G75*
G02X273795Y77037I-3936J2876*
G01*
X274736*
G75*
G02X274266Y77590I3466J3429*
G01*
G37*
X282140D02*
G75*
G02X281669Y77037I-3936J2876D01*
G01*
X282610*
G75*
G02X282140Y77590I3466J3429*
G01*
G36*
G75*
G02X281669Y77037I-3936J2876*
G01*
X282610*
G75*
G02X282140Y77590I3466J3429*
G01*
G37*
X290014D02*
G75*
G02X289543Y77037I-3936J2876D01*
G01*
X290484*
G75*
G02X290014Y77590I3466J3429*
G01*
G36*
G75*
G02X289543Y77037I-3936J2876*
G01*
X290484*
G75*
G02X290014Y77590I3466J3429*
G01*
G37*
X297888D02*
G75*
G02X297417Y77037I-3936J2876D01*
G01*
X298358*
G75*
G02X297888Y77590I3466J3429*
G01*
G36*
G75*
G02X297417Y77037I-3936J2876*
G01*
X298358*
G75*
G02X297888Y77590I3466J3429*
G01*
G37*
X319852Y80860D02*
G75*
G02X319852Y80793I-2384J-6D01*
G01*
X321002Y81944*
Y106349*
G75*
G02X319852Y107656I2378J3251*
G01*
Y80860*
G36*
G75*
G02X319852Y80793I-2384J-6*
G01*
X321002Y81944*
Y106349*
G75*
G02X319852Y107656I2378J3251*
G01*
Y80860*
G37*
X520919Y160431D02*
G75*
G02X492421Y168557I-13091J8126D01*
G01*
G75*
G02X500374Y182041I15407*
G01*
X137652*
G75*
G02X146366Y168163I-6693J-13878*
G01*
G75*
G02X115551I-15407*
G01*
G75*
G02X124266Y182041I15407*
G01*
X104285*
X104189Y124519*
G75*
G02X112461Y120900I3344J-3619*
G01*
G75*
G02X104177Y117291I-4928*
G01*
X104172Y114503*
G75*
G02X112461Y110900I3361J-3604*
G01*
G75*
G02X104160Y107307I-4928*
G01*
X104156Y104488*
G75*
G02X112461Y100900I3378J-3588*
G01*
G75*
G02X104143Y97323I-4928*
G01*
X104134Y91924*
G75*
G02X111083Y90900I3399J-1024*
G01*
G75*
G02X104131Y89887I-3550*
G01*
X103990Y5860*
X520919*
Y160431*
X493215Y119024D02*
X499215D01*
Y112524*
X493215*
Y119024*
X495945Y139766D02*
X502445D01*
Y133766*
X495945*
Y139766*
X503567Y141144D02*
X512823D01*
Y132388*
X510404*
Y131610*
X512654*
Y122354*
X503398*
Y131610*
X505648*
Y132388*
X503567*
Y141144*
X504776Y120232D02*
X511276D01*
Y113732*
X504776*
Y120232*
X159894Y152514D02*
G75*
G02X169150I4628D01*
G01*
G75*
G02X159894I-4628*
G01*
X175150Y127706D02*
X177628Y125229D01*
Y121728*
X175150Y119250*
X171649*
X169172Y121728*
Y125229*
X171649Y127706*
X175150*
X182611Y83671D02*
X185088Y81193D01*
Y77693*
X182611Y75215*
X179110*
X176632Y77693*
Y81193*
X179110Y83671*
X182611*
X182040Y62293D02*
X183710Y60622D01*
Y58263*
X182040Y56593*
X179681*
X178010Y58263*
Y60622*
X179681Y62293*
X182040*
X179522Y155764D02*
G75*
G02X182772Y152514J-3250D01*
G01*
G75*
G02X179522Y149264I-3250*
G01*
G75*
G02X176272Y152514J3250*
G01*
G75*
G02X179522Y155764I3250*
G01*
X185701Y112732D02*
X194957D01*
Y103476*
X185701*
Y112732*
X192079Y94635D02*
X194557Y92158D01*
Y88657*
X192079Y86180*
X188578*
X186101Y88657*
Y92158*
X188578Y94635*
X192079*
X187079Y121354D02*
X193579D01*
Y114854*
X187079*
Y121354*
X214030Y69693D02*
G75*
G02X225500Y58222J-11470D01*
G01*
G75*
G02X214030Y46752I-11470*
G01*
G75*
G02X202559Y58222J11470*
G01*
G75*
G02X214030Y69693I11470*
G01*
X217866Y109600D02*
G75*
G02X224366I3250D01*
G01*
G75*
G02X217866I-3250*
G01*
X319852Y111545D02*
G75*
G02X327408Y109600I3528J-1944D01*
G01*
G75*
G02X325758Y106349I-4028*
G01*
Y80959*
G75*
G02X325059Y79275I-2378J0*
G01*
X311481Y65697*
G75*
G02X309797Y64998I-1684J1679*
G01*
X245427*
G75*
G02X243743Y65697I0J2378*
G01*
X237154Y72287*
G75*
G02X236455Y73970I1679J1684*
G01*
Y76210*
G75*
G02X238833Y85343I2378J4257*
G01*
G75*
G02X242770Y83343J-4876*
G01*
G75*
G02X250644I3937J-2877*
G01*
G75*
G02X258518I3937J-2877*
G01*
G75*
G02X266392I3937J-2877*
G01*
G75*
G02X274266I3937J-2877*
G01*
G75*
G02X282140I3937J-2877*
G01*
G75*
G02X290014I3937J-2877*
G01*
G75*
G02X297888I3937J-2877*
G01*
G75*
G02X306489Y79045I3937J-2877*
G01*
X309585Y82141*
Y87282*
G75*
G02X301092Y88906I-3823J3027*
G01*
G75*
G02X294683I-3204J1403*
G01*
G75*
G02X286077Y87432I-4670J1403*
G01*
G75*
G02X278203I-3937J2877*
G01*
G75*
G02X270329I-3937J2877*
G01*
G75*
G02X262455I-3937J2877*
G01*
G75*
G02X254581I-3937J2877*
G01*
G75*
G02X246707I-3937J2877*
G01*
G75*
G02X238000Y91322I-3937J2877*
G01*
X226620Y102702*
G75*
G02X225923Y104384I1681J1681*
G01*
G75*
G02Y104385I740J0*
G01*
G75*
G02Y104387I854J2*
G01*
Y119600*
G75*
G02X228301Y121978I2378*
G01*
X232087*
G75*
G02X236057Y124228I3970J-2378*
G01*
X241057*
G75*
G02X245608Y120440J-4628*
G01*
Y128761*
G75*
G02X241057Y124972I-4551J839*
G01*
X236057*
G75*
G02X231429Y129600J4628*
G01*
G75*
G02X236057Y134228I4628*
G01*
X241057*
G75*
G02X245608Y130440J-4628*
G01*
Y137222*
X245028*
G75*
G02X241057Y134972I-3970J2378*
G01*
X236057*
G75*
G02X231429Y139600J4628*
G01*
G75*
G02X236057Y144228I4628*
G01*
X241057*
G75*
G02X245028Y141978J-4628*
G01*
X247986*
G75*
G02X249545Y141396J-2378*
G01*
Y157222*
X245028*
G75*
G02X241057Y154972I-3970J2378*
G01*
X236057*
G75*
G02X231429Y159600J4628*
G01*
G75*
G02X236057Y164228I4628*
G01*
X241057*
G75*
G02X245028Y161978J-4628*
G01*
X251923*
G75*
G02X254301Y159600J-2378*
G01*
Y104483*
X260196Y98587*
G75*
G02X260896Y96904I-1679J-1684*
G01*
Y94566*
G75*
G02X262455Y93186I-2378J-4257*
G01*
G75*
G02X270329I3937J-2877*
G01*
G75*
G02X278203I3937J-2877*
G01*
G75*
G02X286077I3937J-2877*
G01*
G75*
G02X294683Y91712I3937J-2877*
G01*
G75*
G02X301092I3204J-1403*
G01*
G75*
G02X309585Y93336I4670J-1403*
G01*
Y99545*
X263541*
G75*
G02X261856Y100242I-4J2378*
G01*
X255655Y106443*
G75*
G02X254959Y108124I1681J1681*
G01*
G75*
G02Y108125I740J0*
G01*
G75*
G02Y108128I854J2*
G01*
Y149600*
G75*
G02X257337Y151978I2378*
G01*
X262087*
G75*
G02X266057Y154228I3970J-2378*
G01*
X271057*
G75*
G02X275685Y149600J-4628*
G01*
G75*
G02X271057Y144972I-4628*
G01*
X266057*
G75*
G02X262087Y147222J4628*
G01*
X259715*
Y109109*
X264522Y104301*
X311963*
G75*
G02X314341Y101923J-2378*
G01*
Y81159*
G75*
G02Y81156I-854J-1*
G01*
G75*
G02X314340Y81088I-2384J-7*
G01*
X315096Y81845*
Y109244*
G75*
G02X307870Y107065I-4020J258*
G01*
X274929*
G75*
G02X271057Y104972I-3872J2535*
G01*
X266057*
G75*
G02X261429Y109600J4628*
G01*
G75*
G02X266057Y114228I4628*
G01*
X271057*
G75*
G02X274929Y112136J-4628*
G01*
X308029*
G75*
G02X315096Y109760I3048J-2634*
G01*
Y113832*
X301706Y127222*
X275028*
G75*
G02X271057Y124972I-3970J2378*
G01*
X266057*
G75*
G02X261429Y129600J4628*
G01*
G75*
G02X266057Y134228I4628*
G01*
X271057*
G75*
G02X275028Y131978J-4628*
G01*
X302691*
G75*
G02X304375Y131279I0J-2378*
G01*
X319153Y116501*
G75*
G02X319852Y114817I-1679J-1684*
G01*
Y111545*
X271057Y124228D02*
G75*
G02Y114972J-4628D01*
G01*
X266057*
G75*
G02X261429Y119600J4628*
G01*
G75*
G02X266057Y124228I4628*
G01*
X271057*
Y144228D02*
G75*
G02Y134972J-4628D01*
G01*
X266057*
G75*
G02X261429Y139600J4628*
G01*
G75*
G02X266057Y144228I4628*
G01*
X271057*
X329384Y69693D02*
G75*
G02X340854Y58222J-11470D01*
G01*
G75*
G02X329384Y46752I-11470*
G01*
G75*
G02X317913Y58222J11470*
G01*
G75*
G02X329384Y69693I11470*
G01*
X241057Y154228D02*
G75*
G02X245685Y149600J-4628D01*
G01*
G75*
G02X241057Y144972I-4628*
G01*
X236057*
G75*
G02X231429Y149600J4628*
G01*
G75*
G02X236057Y154228I4628*
G01*
X241057*
Y174228D02*
G75*
G02Y164972J-4628D01*
G01*
X236057*
G75*
G02X231429Y169600J4628*
G01*
G75*
G02X236057Y174228I4628*
G01*
X241057*
X271057Y164228D02*
G75*
G02X275685Y159600J-4628D01*
G01*
G75*
G02X271057Y154972I-4628*
G01*
X266057*
G75*
G02X261429Y159600J4628*
G01*
G75*
G02X266057Y164228I4628*
G01*
X271057*
Y174228D02*
G75*
G02Y164972J-4628D01*
G01*
X266057*
G75*
G02X261429Y169600J4628*
G01*
G75*
G02X266057Y174228I4628*
G01*
X271057*
X448260Y160173D02*
X457516D01*
Y150917*
X454083*
X434215Y131049*
G75*
G02X432530Y130352I-1681J1681*
G01*
X325659*
Y122104*
G75*
G02X327309Y118852I-2378J-3251*
G01*
G75*
G02X319254I-4028*
G01*
G75*
G02X320904Y122104I4028*
G01*
Y132730*
G75*
G02X323281Y135108I2378*
G01*
X431548*
X447357Y150917*
X438260*
Y160173*
X447516*
Y151076*
X448260Y151820*
Y160173*
X362236Y91689D02*
X371492D01*
Y82433*
X362236*
Y91689*
X370177Y27022D02*
G75*
G02X400992I15407D01*
G01*
G75*
G02X370177I-15407*
G01*
X372236Y91689D02*
X381492D01*
Y82433*
X379262*
Y79457*
X381104*
Y70201*
X372348*
Y79457*
X374191*
Y82433*
X372236*
Y91689*
X373726Y69079D02*
X379726D01*
Y62579*
X373726*
Y69079*
X458260Y160173D02*
X467516D01*
Y150917*
X465260*
G75*
G02X464567Y149393I-2372J159*
G01*
X449473Y134300*
G75*
G02X448806Y133828I-1685J1679*
G01*
X435494Y120517*
G75*
G02X433809Y119821I-1681J1681*
G01*
X402810*
G75*
G02X401806Y118656I-3939J2379*
G01*
G75*
G02X400497Y110808I-2934J-3543*
G01*
G75*
G02X398872Y104803I-1625J-2783*
G01*
G75*
G02X397247Y110808J3222*
G01*
G75*
G02X394934Y112734I1625J4304*
G01*
X385238*
Y110850*
X376482*
Y120106*
X385238*
Y117490*
X394934*
G75*
G02X395938Y118656I3939J-2379*
G01*
G75*
G02X398872Y126799I2934J3543*
G01*
G75*
G02X402810Y124577J-4600*
G01*
X432828*
X445911Y137660*
G75*
G02X446576Y138128I1682J-1682*
G01*
X459365Y150917*
X458260*
Y160173*
X475892Y111303D02*
X484648D01*
Y102047*
X475892*
Y104140*
X473185*
Y101961*
X463929*
Y111217*
X473185*
Y109211*
X475892*
Y111303*
X464154Y141144D02*
X473409D01*
Y132388*
X470935*
Y131217*
X473185*
Y121961*
X463929*
Y131217*
X466179*
Y132388*
X464154*
Y141144*
X465307Y119839D02*
X471807D01*
Y113339*
X465307*
Y119839*
X474517Y90334D02*
G75*
G02X484063Y88931I4670J-1403D01*
G01*
G75*
G02X474517Y87528I-4876*
G01*
G75*
G02X468109I-3204J1403*
G01*
G75*
G02X459502Y86054I-4670J1403*
G01*
G75*
G02X451628I-3937J2877*
G01*
G75*
G02X442815Y88931I-3937J2877*
G01*
G75*
G02X451628Y91808I4876*
G01*
G75*
G02X459502I3937J-2877*
G01*
G75*
G02X468109Y90334I3937J-2877*
G01*
G75*
G02X474517I3204J-1403*
G01*
X478454Y80492D02*
G75*
G02X488000Y79089I4670J-1403D01*
G01*
G75*
G02X478454Y77685I-4876*
G01*
G75*
G02X472046I-3204J1403*
G01*
G75*
G02X463439Y76212I-4670J1403*
G01*
G75*
G02X455565I-3937J2877*
G01*
G75*
G02X446752Y79089I-3937J2877*
G01*
G75*
G02X455565Y81965I4876*
G01*
G75*
G02X463439I3937J-2877*
G01*
G75*
G02X472046Y80492I3937J-2877*
G01*
G75*
G02X478454I3204J-1403*
G01*
X419717Y113494D02*
X422194Y111016D01*
Y107515*
X419717Y105038*
X416216*
X413739Y107515*
Y111016*
X416216Y113494*
X419717*
X419146Y92116D02*
X420817Y90445D01*
Y88086*
X419146Y86416*
X416787*
X415117Y88086*
Y90445*
X416787Y92116*
X419146*
X426825Y67626D02*
G75*
G02X437606Y56844J-10781D01*
G01*
G75*
G02X426825Y46063I-10781*
G01*
G75*
G02X416043Y56844J10781*
G01*
G75*
G02X426825Y67626I10781*
G01*
X377860Y109728D02*
X383860D01*
Y103228*
X377860*
Y109728*
X398260Y160173D02*
X407516D01*
Y150917*
X398260*
Y160173*
Y170173D02*
X407516D01*
Y160917*
X398260*
Y170173*
X408260Y160173D02*
X417516D01*
Y150917*
X408260*
Y160173*
X409638Y168795D02*
X416138D01*
Y162295*
X409638*
Y168795*
X418260Y160173D02*
X427516D01*
Y150917*
X418260*
Y160173*
Y170173D02*
X427516D01*
Y160917*
X418260*
Y170173*
X428260Y160173D02*
X437516D01*
Y150917*
X428260*
Y160173*
X429638Y168795D02*
X436138D01*
Y162295*
X429638*
Y168795*
X438260Y170173D02*
X447516D01*
Y160917*
X438260*
Y170173*
X449638Y168795D02*
X456138D01*
Y162295*
X449638*
Y168795*
X458260Y170173D02*
X467516D01*
Y160917*
X458260*
Y170173*
X474531Y139766D02*
X481031D01*
Y133766*
X474531*
Y139766*
X477270Y118925D02*
X483270D01*
Y112425*
X477270*
Y118925*
X476724Y174069D02*
G75*
G02X483224I3250D01*
G01*
G75*
G02X476724I-3250*
G01*
X503398Y111610D02*
X512654D01*
Y102354*
X503398*
Y104396*
X500593*
Y102146*
X491837*
Y111402*
X500593*
Y109152*
X503398*
Y111610*
X502809Y67626D02*
G75*
G02X513591Y56844J-10781D01*
G01*
G75*
G02X502809Y46063I-10781*
G01*
G75*
G02X492028Y56844J10781*
G01*
G75*
G02X502809Y67626I10781*
G01*
X122374Y126171D02*
X124852Y123693D01*
Y120193*
X122374Y117715*
X118874*
X116396Y120193*
Y123693*
X118874Y126171*
X122374*
X121804Y144793D02*
X123474Y143122D01*
Y140763*
X121804Y139093*
X119444*
X117774Y140763*
Y143122*
X119444Y144793*
X121804*
X160288Y115206D02*
X162765Y112729D01*
Y109228*
X160288Y106750*
X156787*
X154687Y108850*
X141846*
Y95656*
X143946Y93556*
Y90055*
X141469Y87577*
X137968*
X135491Y90055*
Y93556*
X137591Y95656*
Y108850*
X133400*
G75*
G02X131272Y110978J2128*
G01*
Y119628*
X129172Y121728*
Y125229*
X131649Y127706*
X135150*
X137628Y125229*
Y121728*
X135528Y119628*
Y113106*
X154687*
X156787Y115206*
X160288*
X152079Y94635D02*
X154557Y92158D01*
Y88657*
X152079Y86180*
X148578*
X146101Y88657*
Y92158*
X148578Y94635*
X152079*
X160288Y104970D02*
X162765Y102493D01*
Y98992*
X160288Y96514*
X156787*
X154309Y98992*
Y102493*
X156787Y104970*
X160288*
X140898Y54655D02*
X142569Y52985D01*
Y50626*
X140898Y48955*
X138539*
X136869Y50626*
Y52985*
X138539Y54655*
X140898*
X120288Y104970D02*
X122765Y102493D01*
Y98992*
X120288Y96514*
X116787*
X114309Y98992*
Y102493*
X116787Y104970*
X120288*
X116142Y26234D02*
G75*
G02X146957I15407D01*
G01*
G75*
G02X116142I-15407*
G01*
X120288Y115206D02*
X122765Y112729D01*
Y109228*
X120288Y106750*
X116787*
X114309Y109228*
Y112729*
X116787Y115206*
X120288*
X108459Y68945D02*
G75*
G02Y63681J-2632D01*
G01*
G75*
G02X105827Y66313J2632*
G01*
G75*
G02X108459Y68945I2632*
G01*
X104240Y27022D02*
G36*
Y6110D01*
X520669*
Y27022*
X400992*
G75*
G02X370177I-15407*
G01*
X146937*
G75*
G02X146957Y26234I-15389J-786*
G01*
G75*
G02X116142I-15407*
G01*
G75*
G02X116162Y27022I15409J1*
G01*
X104240*
G37*
X512340Y51805D02*
G36*
G75*
G02X502809Y46063I-9531J5039D01*
G01*
G75*
G02X493278Y51805I0J10781*
G01*
X436356*
G75*
G02X426825Y46063I-9531J5039*
G01*
G75*
G02X417294Y51805I0J10781*
G01*
X338891*
G75*
G02X329384Y46752I-9507J6417*
G01*
G75*
G02X319876Y51805I0J11470*
G01*
X223537*
G75*
G02X214030Y46752I-9507J6417*
G01*
G75*
G02X204522Y51805I0J11470*
G01*
X142569*
Y50626*
X140898Y48955*
X138539*
X136869Y50626*
Y51805*
X104240*
Y27022*
X116162*
G75*
G02X146937I15387J-787*
G01*
X370177*
G75*
G02X400992I15407*
G01*
X520669*
Y51805*
X512340*
G37*
X202624Y59443D02*
G36*
X183710D01*
Y58263*
X182040Y56593*
X179681*
X178010Y58263*
Y59443*
X104240*
Y51805*
X136869*
Y52985*
X138539Y54655*
X140898*
X142569Y52985*
Y51805*
X204522*
G75*
G02X202559Y58222I9507J6417*
G01*
G75*
G02Y58223I22557J1*
G01*
G75*
G02X202624Y59443I11469J1*
G01*
G37*
X317978D02*
G36*
X225435D01*
G75*
G02X225500Y58223I-11404J-1219*
G01*
G75*
G02Y58222I-22557J0*
G01*
G75*
G02X223537Y51805I-11470J0*
G01*
X319876*
G75*
G02X317913Y58222I9507J6417*
G01*
G75*
G02Y58223I22557J1*
G01*
G75*
G02X317978Y59443I11469J1*
G01*
G37*
X416361D02*
G36*
X340789D01*
G75*
G02X340854Y58223I-11404J-1219*
G01*
G75*
G02Y58222I-22557J0*
G01*
G75*
G02X338891Y51805I-11470J0*
G01*
X417294*
G75*
G02X416043Y56844I9531J5040*
G01*
G75*
G02X416361Y59443I10782J0*
G01*
G37*
X492345D02*
G36*
X437289D01*
G75*
G02X437606Y56844I-10465J-2598*
G01*
G75*
G02X436356Y51805I-10782J0*
G01*
X493278*
G75*
G02X492028Y56844I9531J5040*
G01*
G75*
G02X492345Y59443I10782J0*
G01*
G37*
X513273D02*
G36*
G75*
G02X513591Y56844I-10465J-2598D01*
G01*
G75*
G02X512340Y51805I-10782J0*
G01*
X520669*
Y59443*
X513273*
G37*
X202624D02*
G36*
G75*
G02X205443Y65829I11405J-1220D01*
G01*
X111046*
G75*
G02X108459Y63681I-2587J484*
G01*
G75*
G02X105872Y65829J2632*
G01*
X104240*
Y59443*
X178010*
Y60622*
X179681Y62293*
X182040*
X183710Y60622*
Y59443*
X202624*
G37*
X317978D02*
G36*
G75*
G02X320798Y65829I11405J-1220D01*
G01*
X311613*
X311481Y65697*
G75*
G02X309797Y64998I-1684J1679*
G01*
X245427*
G75*
G02X243743Y65697I1J2380*
G01*
X243612Y65829*
X222616*
G75*
G02X225435Y59443I-8586J-7606*
G01*
X317978*
G37*
X416361D02*
G36*
G75*
G02X420865Y65829I10464J-2598D01*
G01*
X379726*
Y62579*
X373726*
Y65829*
X337970*
G75*
G02X340789Y59443I-8586J-7606*
G01*
X416361*
G37*
X492345D02*
G36*
G75*
G02X496849Y65829I10464J-2598D01*
G01*
X432785*
G75*
G02X437289Y59443I-5960J-8984*
G01*
X492345*
G37*
X513273D02*
G36*
X520669D01*
Y65829*
X508769*
G75*
G02X513273Y59443I-5960J-8984*
G01*
G37*
X243612Y65829D02*
G36*
X237154Y72287D01*
G75*
G02X236455Y73970I1679J1684*
G01*
Y76210*
G75*
G02X234065Y79443I2378J4257*
G01*
X185088*
Y77693*
X182611Y75215*
X179110*
X176632Y77693*
Y79443*
X104240*
Y65829*
X105872*
G75*
G02X105827Y66313I2587J484*
G01*
G75*
G02X108459Y68945I2632*
G01*
G75*
G02X111091Y66313J-2632*
G01*
G75*
G02X111046Y65829I-2632J0*
G01*
X205443*
G75*
G02X214030Y69693I8585J-7606*
G01*
G75*
G02X222616Y65829I1J-11470*
G01*
X243612*
G37*
X306887Y79443D02*
G36*
X306592D01*
G75*
G02X306489Y79045I-4769J1023*
G01*
X306887Y79443*
G37*
X381104D02*
G36*
Y70201D01*
X372348*
Y79443*
X325212*
G75*
G02X325059Y79275I-1834J1517*
G01*
X311613Y65829*
X320798*
G75*
G02X329384Y69693I8585J-7606*
G01*
G75*
G02X337970Y65829I1J-11470*
G01*
X373726*
Y69079*
X379726*
Y65829*
X420865*
G75*
G02X426825Y67626I5960J-8985*
G01*
G75*
G02X432785Y65829J-10782*
G01*
X496849*
G75*
G02X502809Y67626I5960J-8985*
G01*
G75*
G02X508769Y65829J-10782*
G01*
X520669*
Y79443*
X487987*
G75*
G02X488000Y79089I-4863J-356*
G01*
G75*
G02X478454Y77685I-4876*
G01*
G75*
G02X472046I-3204J1403*
G01*
G75*
G02X463439Y76212I-4670J1404*
G01*
G75*
G02X455565I-3937J2877*
G01*
G75*
G02X446752Y79089I-3937J2877*
G01*
G75*
G02X446765Y79443I4879J-2*
G01*
X381104*
G37*
X306887D02*
G36*
X309585Y82141D01*
Y87282*
G75*
G02X301092Y88906I-3823J3027*
G01*
G75*
G02X294683I-3204J1403*
G01*
G75*
G02X286077Y87432I-4670J1404*
G01*
G75*
G02X278203I-3937J2877*
G01*
G75*
G02X270329I-3937J2877*
G01*
G75*
G02X262455I-3937J2877*
G01*
G75*
G02X254581I-3937J2877*
G01*
G75*
G02X246707I-3937J2877*
G01*
G75*
G02X237894Y90310I-3937J2878*
G01*
G75*
G02X237895Y90407I4869J-10*
G01*
X194557*
Y88657*
X192079Y86180*
X188578*
X186101Y88657*
Y90407*
X154557*
Y88657*
X152079Y86180*
X148578*
X146101Y88657*
Y90407*
X143946*
Y90055*
X141469Y87577*
X137968*
X135491Y90055*
Y90407*
X111049*
G75*
G02X104240Y89574I-3516J492*
G01*
Y79443*
X176632*
Y81193*
X179110Y83671*
X182611*
X185088Y81193*
Y79443*
X234065*
G75*
G02X233957Y80467I4767J1024*
G01*
G75*
G02X238833Y85343I4876*
G01*
G75*
G02X242770Y83343I0J-4875*
G01*
G75*
G02X250644I3937J-2877*
G01*
G75*
G02X258518I3937J-2877*
G01*
G75*
G02X266392I3937J-2877*
G01*
G75*
G02X274266I3937J-2877*
G01*
G75*
G02X282140I3937J-2877*
G01*
G75*
G02X290014I3937J-2877*
G01*
G75*
G02X297888I3937J-2877*
G01*
G75*
G02X306701Y80466I3937J-2877*
G01*
G75*
G02X306592Y79443I-4876J0*
G01*
X306887*
G37*
X315096Y90407D02*
G36*
X314341D01*
Y81159*
Y81156*
Y81156*
G75*
G02Y81139I-1433J-8*
G01*
G75*
G02X314340Y81088I-1432J-3*
G01*
X315096Y81845*
Y90407*
G37*
X372236D02*
G36*
X371492D01*
Y82433*
X362236*
Y90407*
X325758*
Y80959*
G75*
G02X325212Y79443I-2380J1*
G01*
X372348*
Y79457*
X374191*
Y82433*
X372236*
Y90407*
G37*
X483834D02*
G36*
G75*
G02X484063Y88931I-4647J-1476D01*
G01*
G75*
G02X474517Y87528I-4876*
G01*
G75*
G02X468109I-3204J1403*
G01*
G75*
G02X459502Y86054I-4670J1404*
G01*
G75*
G02X451628I-3937J2877*
G01*
G75*
G02X442815Y88931I-3937J2877*
G01*
G75*
G02X443044Y90407I4876J0*
G01*
X420817*
Y88086*
X419146Y86416*
X416787*
X415117Y88086*
Y90407*
X381492*
Y82433*
X379262*
Y79457*
X381104*
Y79443*
X446765*
G75*
G02X455565Y81965I4863J-354*
G01*
G75*
G02X463439I3937J-2877*
G01*
G75*
G02X472046Y80492I3937J-2877*
G01*
G75*
G02X478454I3204J-1403*
G01*
G75*
G02X487987Y79443I4670J-1403*
G01*
X520669*
Y90407*
X483834*
G37*
X468142D02*
G36*
X468086D01*
G75*
G02X468109Y90334I-4650J-1465*
G01*
G75*
G02X468142Y90407I3205J-1403*
G01*
G37*
X474540D02*
G36*
X474484D01*
G75*
G02X474517Y90334I-3172J-1476*
G01*
G75*
G02X474540Y90407I4673J-1392*
G01*
G37*
X135491D02*
G36*
Y93556D01*
X137591Y95656*
Y100742*
X122765*
Y98992*
X120288Y96514*
X116787*
X114309Y98992*
Y100742*
X112459*
G75*
G02X104240Y97233I-4926J158*
G01*
Y92225*
G75*
G02X111083Y90900I3293J-1326*
G01*
G75*
G02X111049Y90407I-3552*
G01*
X135491*
G37*
X237895D02*
G36*
G75*
G02X238000Y91322I4875J-97D01*
G01*
X228580Y100742*
X162765*
Y98992*
X160288Y96514*
X156787*
X154309Y98992*
Y100742*
X141846*
Y95656*
X143946Y93556*
Y90407*
X146101*
Y92158*
X148578Y94635*
X152079*
X154557Y92158*
Y90407*
X186101*
Y92158*
X188578Y94635*
X192079*
X194557Y92158*
Y90407*
X237895*
G37*
X261356Y100742D02*
G36*
X258042D01*
X260196Y98587*
G75*
G02X260896Y96904I-1679J-1684*
G01*
Y94566*
G75*
G02X262455Y93186I-2382J-4262*
G01*
G75*
G02X270329I3937J-2877*
G01*
G75*
G02X278203I3937J-2877*
G01*
G75*
G02X286077I3937J-2877*
G01*
G75*
G02X294683Y91712I3937J-2877*
G01*
G75*
G02X301092I3204J-1403*
G01*
G75*
G02X309585Y93336I4670J-1403*
G01*
Y99545*
X263541*
G75*
G02X261856Y100242I-4J2378*
G01*
X261356Y100742*
G37*
X315096D02*
G36*
X314341D01*
Y90407*
X315096*
Y100742*
G37*
X381492Y90407D02*
G36*
X415117D01*
Y90445*
X416787Y92116*
X419146*
X420817Y90445*
Y90407*
X443044*
G75*
G02X451628Y91808I4647J-1476*
G01*
G75*
G02X459502I3937J-2877*
G01*
G75*
G02X468086Y90407I3937J-2877*
G01*
X468142*
G75*
G02X474484I3171J-1476*
G01*
X474540*
G75*
G02X483834I4647J-1477*
G01*
X520669*
Y100742*
X325758*
Y90407*
X362236*
Y91689*
X371492*
Y90407*
X372236*
Y91689*
X381492*
Y90407*
G37*
X137591Y108104D02*
G36*
X121642D01*
X120288Y106750*
X116787*
X115433Y108104*
X111592*
G75*
G02X104240Y107234I-4058J2796*
G01*
Y104566*
G75*
G02X112461Y100900I3293J-3666*
G01*
G75*
G02X112459Y100742I-4929J-5*
G01*
X114309*
Y102493*
X116787Y104970*
X120288*
X122765Y102493*
Y100742*
X137591*
Y108104*
G37*
X228580Y100742D02*
G36*
X226620Y102702D01*
G75*
G02X225923Y104384I1683J1682*
G01*
Y104385*
Y104387*
Y108104*
X224001*
G75*
G02X218231I-2885J1496*
G01*
X194957*
Y103476*
X185701*
Y108104*
X161642*
X160288Y106750*
X156787*
X155433Y108104*
X141846*
Y100742*
X154309*
Y102493*
X156787Y104970*
X160288*
X162765Y102493*
Y100742*
X228580*
G37*
X261356D02*
G36*
X255655Y106443D01*
G75*
G02X254959Y108104I1683J1682*
G01*
X254301*
Y104483*
X258042Y100742*
X261356*
G37*
X315096Y108104D02*
G36*
X314854D01*
G75*
G02X307870Y107065I-3778J1398*
G01*
X274929*
G75*
G02X271057Y104972I-3872J2536*
G01*
X266057*
G75*
G02X261678Y108104J4628*
G01*
X260719*
X264522Y104301*
X311963*
G75*
G02X314341Y101923J-2378*
G01*
Y100742*
X315096*
Y108104*
G37*
X512654D02*
G36*
Y102354D01*
X503398*
Y104396*
X500593*
Y102146*
X491837*
Y108104*
X484648*
Y102047*
X475892*
Y104140*
X473185*
Y101961*
X463929*
Y108104*
X422194*
Y107515*
X419717Y105038*
X416216*
X413739Y107515*
Y108104*
X402094*
G75*
G02X402094Y108026I-3217J-72*
G01*
G75*
G02X398872Y104803I-3222*
G01*
G75*
G02X395650Y108026J3222*
G01*
G75*
G02X395650Y108104I3218J7*
G01*
X383860*
Y103228*
X377860*
Y108104*
X327120*
G75*
G02X325758Y106349I-3741J1497*
G01*
Y100742*
X520669*
Y108104*
X512654*
G37*
X137591D02*
G36*
Y108850D01*
X133400*
G75*
G02X131272Y110978J2128*
G01*
Y115774*
X108260*
G75*
G02X112461Y110900I-726J-4874*
G01*
G75*
G02X111592Y108104I-4928J0*
G01*
X115433*
X114309Y109228*
Y112729*
X116787Y115206*
X120288*
X122765Y112729*
Y109228*
X121642Y108104*
X137591*
G37*
X106807Y115774D02*
G36*
X104240D01*
Y114565*
G75*
G02X106807Y115774I3294J-3666*
G01*
G37*
X225923D02*
G36*
X193579D01*
Y114854*
X187079*
Y115774*
X135528*
Y113106*
X154687*
X156787Y115206*
X160288*
X162765Y112729*
Y109228*
X161642Y108104*
X185701*
Y112732*
X194957*
Y108104*
X218231*
G75*
G02X217866Y109600I2885J1496*
G01*
G75*
G02X224366I3250*
G01*
G75*
G02X224001Y108104I-3250J0*
G01*
X225923*
Y115774*
G37*
X155433Y108104D02*
G36*
X154687Y108850D01*
X141846*
Y108104*
X155433*
G37*
X313155Y115774D02*
G36*
X273660D01*
G75*
G02X271057Y114972I-2603J3827*
G01*
X266057*
G75*
G02X263454Y115774J4628*
G01*
X259715*
Y109109*
X260719Y108104*
X261678*
G75*
G02X261429Y109600I4380J1496*
G01*
G75*
G02X266057Y114228I4628*
G01*
X271057*
G75*
G02X274929Y112136I0J-4629*
G01*
X308029*
G75*
G02X315096Y109760I3048J-2634*
G01*
Y113832*
X313155Y115774*
G37*
X254959Y108104D02*
G36*
G75*
G02Y108124I2385J10D01*
G01*
Y108125*
Y108128*
Y115774*
X254301*
Y108104*
X254959*
G37*
X315096D02*
G36*
Y109244D01*
G75*
G02X314854Y108104I-4020J258*
G01*
X315096*
G37*
X376482Y115774D02*
G36*
X325879D01*
G75*
G02X320684I-2597J3079*
G01*
X319651*
G75*
G02X319852Y114817I-2177J-957*
G01*
Y111545*
G75*
G02X327408Y109600I3528J-1944*
G01*
G75*
G02X327120Y108104I-4030J0*
G01*
X377860*
Y109728*
X383860*
Y108104*
X395650*
G75*
G02X397247Y110808I3222J-79*
G01*
G75*
G02X394934Y112734I1627J4306*
G01*
X385238*
Y110850*
X376482*
Y115774*
G37*
X511276D02*
G36*
Y113732D01*
X504776*
Y115774*
X499215*
Y112524*
X493215*
Y115774*
X483270*
Y112425*
X477270*
Y115774*
X471807*
Y113339*
X465307*
Y115774*
X403425*
G75*
G02X403472Y115112I-4552J-660*
G01*
G75*
G02X400497Y110808I-4600*
G01*
G75*
G02X402094Y108104I-1625J-2783*
G01*
X413739*
Y111016*
X416216Y113494*
X419717*
X422194Y111016*
Y108104*
X463929*
Y111217*
X473185*
Y109211*
X475892*
Y111303*
X484648*
Y108104*
X491837*
Y111402*
X500593*
Y109152*
X503398*
Y111610*
X512654*
Y108104*
X520669*
Y115774*
X511276*
G37*
X129172Y123478D02*
G36*
X124852D01*
Y120193*
X122374Y117715*
X118874*
X116396Y120193*
Y123478*
X111733*
G75*
G02X112461Y120900I-4199J-2578*
G01*
Y120900*
G75*
G02X104240Y117233I-4928*
G01*
Y115774*
X106807*
G75*
G02X108260I726J-4874*
G01*
X131272*
Y119628*
X129172Y121728*
Y123478*
G37*
X225923Y115774D02*
G36*
Y119600D01*
G75*
G02X228301Y121978I2378*
G01*
X232087*
G75*
G02X233531Y123478I3970J-2378*
G01*
X177628*
Y121728*
X175150Y119250*
X171649*
X169172Y121728*
Y123478*
X137628*
Y121728*
X135528Y119628*
Y115774*
X187079*
Y121354*
X193579*
Y115774*
X225923*
G37*
X245608Y123478D02*
G36*
X243582D01*
G75*
G02X245608Y120440I-2526J-3879*
G01*
Y123478*
G37*
X313155Y115774D02*
G36*
X305450Y123478D01*
X273583*
G75*
G02X275685Y119600I-2526J-3878*
G01*
G75*
G02X273660Y115774I-4628*
G01*
X313155*
G37*
X254959Y123478D02*
G36*
X254301D01*
Y115774*
X254959*
Y123478*
G37*
X263454Y115774D02*
G36*
G75*
G02X261429Y119600I2603J3827D01*
G01*
G75*
G02X263531Y123478I4628J0*
G01*
X259715*
Y115774*
X263454*
G37*
X320684D02*
G36*
G75*
G02X319254Y118852I2597J3079D01*
G01*
G75*
G02X320904Y122104I4030J-1*
G01*
Y123478*
X312176*
X319153Y116501*
G75*
G02X319651Y115774I-1679J-1684*
G01*
X320684*
G37*
X394453Y123478D02*
G36*
X325659D01*
Y122104*
G75*
G02X327309Y118852I-2380J-3252*
G01*
G75*
G02X325879Y115774I-4028*
G01*
X376482*
Y120106*
X385238*
Y117490*
X394934*
G75*
G02X395938Y118656I3945J-2385*
G01*
G75*
G02X394272Y122199I2934J3543*
G01*
G75*
G02X394453Y123478I4601*
G01*
G37*
X512654D02*
G36*
Y122354D01*
X503398*
Y123478*
X473185*
Y121961*
X463929*
Y123478*
X438456*
X435494Y120517*
G75*
G02X433809Y119821I-1681J1682*
G01*
X402810*
G75*
G02X401806Y118656I-3945J2385*
G01*
G75*
G02X403425Y115774I-2933J-3544*
G01*
X465307*
Y119839*
X471807*
Y115774*
X477270*
Y118925*
X483270*
Y115774*
X493215*
Y119024*
X499215*
Y115774*
X504776*
Y120232*
X511276*
Y115774*
X520669*
Y123478*
X512654*
G37*
X245608Y136766D02*
G36*
X244715D01*
G75*
G02X241057Y134972I-3658J2835*
G01*
X236057*
G75*
G02X232399Y136766J4628*
G01*
X104240*
Y124565*
G75*
G02X111733Y123478I3294J-3666*
G01*
X116396*
Y123693*
X118874Y126171*
X122374*
X124852Y123693*
Y123478*
X129172*
Y125229*
X131649Y127706*
X135150*
X137628Y125229*
Y123478*
X169172*
Y125229*
X171649Y127706*
X175150*
X177628Y125229*
Y123478*
X233531*
G75*
G02X236057Y124228I2526J-3878*
G01*
X241057*
G75*
G02X243582Y123478I-1J-4629*
G01*
X245608*
Y128761*
G75*
G02X241057Y124972I-4551J839*
G01*
X236057*
G75*
G02X231429Y129600J4628*
G01*
G75*
G02X236057Y134228I4628*
G01*
X241057*
G75*
G02X245608Y130440I-1J-4629*
G01*
Y136766*
G37*
X433206D02*
G36*
X274715D01*
G75*
G02X271057Y134972I-3658J2835*
G01*
X266057*
G75*
G02X262399Y136766J4628*
G01*
X259715*
Y123478*
X263531*
G75*
G02X266057Y124228I2526J-3878*
G01*
X271057*
G75*
G02X273583Y123478J-4628*
G01*
X305450*
X301706Y127222*
X275028*
G75*
G02X271057Y124972I-3970J2378*
G01*
X266057*
G75*
G02X261429Y129600J4628*
G01*
G75*
G02X266057Y134228I4628*
G01*
X271057*
G75*
G02X275028Y131978J-4628*
G01*
X302691*
G75*
G02X304375Y131279I-1J-2380*
G01*
X312176Y123478*
X320904*
Y132730*
G75*
G02X323281Y135108I2378*
G01*
X431548*
X433206Y136766*
G37*
X254959D02*
G36*
X254301D01*
Y123478*
X254959*
Y136766*
G37*
X439932D02*
G36*
X434215Y131049D01*
G75*
G02X432530Y130352I-1681J1682*
G01*
X325659*
Y123478*
X394453*
G75*
G02X398872Y126799I4419J-1280*
G01*
G75*
G02X402810Y124577I0J-4601*
G01*
X432828*
X445017Y136766*
X439932*
G37*
X464154D02*
G36*
X451939D01*
X449473Y134300*
G75*
G02X448806Y133828I-1682J1674*
G01*
X438456Y123478*
X463929*
Y131217*
X466179*
Y132388*
X464154*
Y136766*
G37*
X503567D02*
G36*
X502445D01*
Y133766*
X495945*
Y136766*
X481031*
Y133766*
X474531*
Y136766*
X473409*
Y132388*
X470935*
Y131217*
X473185*
Y123478*
X503398*
Y131610*
X505648*
Y132388*
X503567*
Y136766*
G37*
X512823D02*
G36*
Y132388D01*
X510404*
Y131610*
X512654*
Y123478*
X520669*
Y136766*
X512823*
G37*
X232066Y141943D02*
G36*
X123474D01*
Y140763*
X121804Y139093*
X119444*
X117774Y140763*
Y141943*
X104240*
Y136766*
X232399*
G75*
G02X231429Y139600I3658J2835*
G01*
G75*
G02X232066Y141943I4628*
G01*
G37*
X245608Y136766D02*
G36*
Y137222D01*
X245028*
G75*
G02X244715Y136766I-3970J2379*
G01*
X245608*
G37*
X249545Y141943D02*
G36*
X248395D01*
G75*
G02X249545Y141396I-409J-2343*
G01*
Y141943*
G37*
X254959D02*
G36*
X254301D01*
Y136766*
X254959*
Y141943*
G37*
X262066D02*
G36*
X259715D01*
Y136766*
X262399*
G75*
G02X261429Y139600I3658J2835*
G01*
G75*
G02X262066Y141943I4628*
G01*
G37*
X438383D02*
G36*
X275048D01*
G75*
G02X275685Y139600I-3991J-2343*
G01*
G75*
G02X274715Y136766I-4628*
G01*
X433206*
X438383Y141943*
G37*
X450391D02*
G36*
X445109D01*
X439932Y136766*
X445017*
X445911Y137660*
G75*
G02X446576Y138128I1682J-1682*
G01*
X450391Y141943*
G37*
X512823Y136766D02*
G36*
X520669D01*
Y141943*
X457117*
X451939Y136766*
X464154*
Y141144*
X473409*
Y136766*
X474531*
Y139766*
X481031*
Y136766*
X495945*
Y139766*
X502445*
Y136766*
X503567*
Y141144*
X512823*
Y136766*
G37*
X249545Y152514D02*
G36*
X244653D01*
G75*
G02X245685Y149600I-3596J-2914*
G01*
G75*
G02X241057Y144972I-4628*
G01*
X236057*
G75*
G02X231429Y149600J4628*
G01*
G75*
G02X232461Y152514I4628J0*
G01*
X182772*
G75*
G02X179522Y149264I-3250*
G01*
G75*
G02X176272Y152514J3250*
G01*
X169150*
G75*
G02X159894I-4628*
G01*
X104240*
Y141943*
X117774*
Y143122*
X119444Y144793*
X121804*
X123474Y143122*
Y141943*
X232066*
G75*
G02X236057Y144228I3991J-2343*
G01*
X241057*
G75*
G02X245028Y141978J-4628*
G01*
X247986*
G75*
G02X248395Y141943J-2379*
G01*
X249545*
Y152514*
G37*
X262461D02*
G36*
X254301D01*
Y141943*
X254959*
Y149600*
G75*
G02X257337Y151978I2378*
G01*
X262087*
G75*
G02X262461Y152514I3970J-2378*
G01*
G37*
X438260D02*
G36*
X437516D01*
Y150917*
X428260*
Y152514*
X427516*
Y150917*
X418260*
Y152514*
X417516*
Y150917*
X408260*
Y152514*
X407516*
Y150917*
X398260*
Y152514*
X274653*
G75*
G02X275685Y149600I-3596J-2914*
G01*
G75*
G02X271057Y144972I-4628*
G01*
X266057*
G75*
G02X262087Y147222J4628*
G01*
X259715*
Y141943*
X262066*
G75*
G02X266057Y144228I3991J-2343*
G01*
X271057*
G75*
G02X275048Y141943J-4628*
G01*
X438383*
X447357Y150917*
X438260*
Y152514*
G37*
X458260D02*
G36*
X457516D01*
Y150917*
X454083*
X445109Y141943*
X450391*
X459365Y150917*
X458260*
Y152514*
G37*
X448260D02*
G36*
X447516D01*
Y151076*
X448260Y151820*
Y152514*
G37*
X467516D02*
G36*
Y150917D01*
X465260*
G75*
G02X464567Y149393I-2374J160*
G01*
X457117Y141943*
X520669*
Y152514*
X467516*
G37*
X495292Y159600D02*
G36*
X467516D01*
Y152514*
X520669*
Y159600*
X520365*
G75*
G02X495292I-12537J8957*
G01*
G37*
X231429D02*
G36*
X143767D01*
G75*
G02X118150I-12809J8563*
G01*
X104248*
X104240Y155041*
Y152514*
X159894*
G75*
G02X169150I4628*
G01*
X176272*
G75*
G02X179522Y155764I3250*
G01*
G75*
G02X182772Y152514J-3250*
G01*
X232461*
G75*
G02X236057Y154228I3596J-2913*
G01*
X241057*
G75*
G02X244653Y152514J-4628*
G01*
X249545*
Y157222*
X245028*
G75*
G02X241057Y154972I-3970J2378*
G01*
X236057*
G75*
G02X231429Y159600J4628*
G01*
G37*
X398260D02*
G36*
X275685D01*
G75*
G02X271057Y154972I-4628*
G01*
X266057*
G75*
G02X261429Y159600J4628*
G01*
X254301*
Y152514*
X262461*
G75*
G02X266057Y154228I3596J-2913*
G01*
X271057*
G75*
G02X274653Y152514J-4628*
G01*
X398260*
Y159600*
G37*
X408260D02*
G36*
X407516D01*
Y152514*
X408260*
Y159600*
G37*
X418260D02*
G36*
X417516D01*
Y152514*
X418260*
Y159600*
G37*
X428260D02*
G36*
X427516D01*
Y152514*
X428260*
Y159600*
G37*
X438260D02*
G36*
X437516D01*
Y152514*
X438260*
Y159600*
G37*
X448260D02*
G36*
X447516D01*
Y152514*
X448260*
Y159600*
G37*
X458260D02*
G36*
X457516D01*
Y152514*
X458260*
Y159600*
G37*
X520669Y160042D02*
G36*
G75*
G02X520365Y159600I-12839J8516D01*
G01*
X520669*
Y160042*
G37*
X115775Y165545D02*
G36*
X104258D01*
X104248Y159600*
X118150*
G75*
G02X115775Y165545I12809J8563*
G01*
G37*
X492719D02*
G36*
X467516D01*
Y160917*
X458260*
Y165545*
X456138*
Y162295*
X449638*
Y165545*
X447516*
Y160917*
X438260*
Y165545*
X436138*
Y162295*
X429638*
Y165545*
X427516*
Y160917*
X418260*
Y165545*
X416138*
Y162295*
X409638*
Y165545*
X407516*
Y160917*
X398260*
Y165545*
X273287*
G75*
G02X271057Y164972I-2230J4056*
G01*
X266057*
G75*
G02X263827Y165545J4628*
G01*
X243287*
G75*
G02X241057Y164972I-2230J4056*
G01*
X236057*
G75*
G02X233827Y165545J4628*
G01*
X146142*
G75*
G02X143767Y159600I-15183J2619*
G01*
X231429*
G75*
G02X236057Y164228I4628*
G01*
X241057*
G75*
G02X245028Y161978J-4628*
G01*
X251923*
G75*
G02X254301Y159600J-2378*
G01*
X261429*
G75*
G02X266057Y164228I4628*
G01*
X271057*
G75*
G02X275685Y159600J-4628*
G01*
X398260*
Y160173*
X407516*
Y159600*
X408260*
Y160173*
X417516*
Y159600*
X418260*
Y160173*
X427516*
Y159600*
X428260*
Y160173*
X437516*
Y159600*
X438260*
Y160173*
X447516*
Y159600*
X448260*
Y160173*
X457516*
Y159600*
X458260*
Y160173*
X467516*
Y159600*
X495292*
G75*
G02X492719Y165545I12537J8957*
G01*
G37*
X492457Y169600D02*
G36*
X467516D01*
Y165545*
X492719*
G75*
G02X492421Y168557I15111J3012*
G01*
G75*
G02X492457Y169600I15410J-1*
G01*
G37*
X115619D02*
G36*
X104265D01*
X104258Y165545*
X115775*
G75*
G02X115551Y168163I15184J2618*
G01*
G75*
G02X115619Y169600I15409J-2*
G01*
G37*
X231429D02*
G36*
X146299D01*
G75*
G02X146366Y168163I-15342J-1439*
G01*
G75*
G02X146142Y165545I-15408J0*
G01*
X233827*
G75*
G02X231429Y169600I2230J4055*
G01*
G37*
X261429D02*
G36*
X245685D01*
G75*
G02X243287Y165545I-4628*
G01*
X263827*
G75*
G02X261429Y169600I2230J4055*
G01*
G37*
X398260D02*
G36*
X275685D01*
G75*
G02X273287Y165545I-4628*
G01*
X398260*
Y169600*
G37*
X418260D02*
G36*
X407516D01*
Y165545*
X409638*
Y168795*
X416138*
Y165545*
X418260*
Y169600*
G37*
X438260D02*
G36*
X427516D01*
Y165545*
X429638*
Y168795*
X436138*
Y165545*
X438260*
Y169600*
G37*
X458260D02*
G36*
X447516D01*
Y165545*
X449638*
Y168795*
X456138*
Y165545*
X458260*
Y169600*
G37*
X115619D02*
G36*
G75*
G02X116728Y174069I15341J-1437D01*
G01*
X104272*
X104265Y169600*
X115619*
G37*
X231429D02*
G36*
G75*
G02X234853Y174069I4628D01*
G01*
X145189*
G75*
G02X146299Y169600I-14231J-5906*
G01*
X231429*
G37*
X261429D02*
G36*
G75*
G02X264853Y174069I4628D01*
G01*
X242261*
G75*
G02X245685Y169600I-1204J-4469*
G01*
X261429*
G37*
X493441Y174069D02*
G36*
X483224D01*
G75*
G02X476724I-3250*
G01*
X272261*
G75*
G02X275685Y169600I-1204J-4469*
G01*
X398260*
Y170173*
X407516*
Y169600*
X418260*
Y170173*
X427516*
Y169600*
X438260*
Y170173*
X447516*
Y169600*
X458260*
Y170173*
X467516*
Y169600*
X492457*
G75*
G02X493441Y174069I15372J-1043*
G01*
G37*
X116728D02*
G36*
G75*
G02X123770Y181791I14231J-5906D01*
G01*
X104285*
X104272Y174069*
X116728*
G37*
X499939Y181791D02*
G36*
X138147D01*
G75*
G02X145189Y174069I-7189J-13628*
G01*
X234853*
G75*
G02X236057Y174228I1204J-4469*
G01*
X241057*
G75*
G02X242261Y174069J-4628*
G01*
X264853*
G75*
G02X266057Y174228I1204J-4469*
G01*
X271057*
G75*
G02X272261Y174069J-4628*
G01*
X476724*
G75*
G02X483224I3250*
G01*
X493441*
G75*
G02X499939Y181791I14388J-5511*
G01*
G37*
X520919Y176683D02*
Y182041D01*
X515283*
G75*
G02X520919Y176683I-7455J-13484*
G01*
G36*
Y182041*
X515283*
G75*
G02X520919Y176683I-7455J-13484*
G01*
G37*
D02*
D18*
X52809Y69758D02*
X53301D01*
Y68478*
X53695*
X118537Y100900D02*
Y100742D01*
Y110900D02*
Y110978D01*
X158537D02*
X133400D01*
Y123478*
X158537Y110978D02*
X139719D01*
Y91805*
D02*
D24*
X19344Y95421D02*
X19094D01*
X25250Y91484D02*
Y91234D01*
Y99358D02*
Y99608D01*
X31156Y95421D02*
X31406D01*
X37020Y103380D02*
X36770D01*
X39620Y100780D02*
Y100530D01*
Y105980D02*
Y106230D01*
X42220Y103380D02*
X42470D01*
X61430Y97553D02*
X61180D01*
X64030Y94953D02*
Y94703D01*
Y100153D02*
Y100403D01*
X66630Y97553D02*
X66880D01*
X74233Y90900D02*
X73983D01*
X74233Y100900D02*
X73983D01*
X77533Y87600D02*
Y87350D01*
Y94200D02*
Y94450D01*
Y97600D02*
Y97350D01*
Y104200D02*
Y104450D01*
X80833Y90900D02*
X81083D01*
X80833Y100900D02*
X81083D01*
X86077Y66313D02*
X85827D01*
X88459Y63931D02*
Y63681D01*
Y68695D02*
Y68945D01*
X90841Y66313D02*
X91091D01*
X105200Y88566D02*
X105023Y88389D01*
X105200Y93233D02*
X105023Y93410D01*
X106077Y66313D02*
X105827D01*
X108459Y63931D02*
Y63681D01*
Y68695D02*
Y68945D01*
X109867Y88566D02*
X110044Y88389D01*
X109867Y93233D02*
X110044Y93410D01*
X110841Y66313D02*
X111091D01*
X118024Y141943D02*
X117774D01*
X120624Y139343D02*
Y139093D01*
Y144543D02*
Y144793D01*
X123224Y141943D02*
X123474D01*
X137119Y51805D02*
X136869D01*
X139719Y49205D02*
Y48955D01*
Y54405D02*
Y54655D01*
X142319Y51805D02*
X142569D01*
X176522Y152514D02*
X176272D01*
X178260Y59443D02*
X178010D01*
X179522Y149514D02*
Y149264D01*
Y155514D02*
Y155764D01*
X180860Y56843D02*
Y56593D01*
Y62043D02*
Y62293D01*
X182522Y152514D02*
X182772D01*
X183460Y59443D02*
X183710D01*
X187329Y118104D02*
X187079D01*
X190329Y115104D02*
Y114854D01*
Y121104D02*
Y121354D01*
X193329Y118104D02*
X193579D01*
X218116Y109600D02*
X217866D01*
X221116Y106600D02*
Y106350D01*
Y112600D02*
Y112850D01*
X224116Y109600D02*
X224366D01*
X233057D02*
X232807D01*
X238557Y106600D02*
Y106350D01*
Y112600D02*
Y112850D01*
X244057Y109600D02*
X244307D01*
X295591Y88012D02*
X295414Y87835D01*
X295591Y92606D02*
X295414Y92783D01*
X300185Y88012D02*
X300361Y87835D01*
X300185Y92606D02*
X300361Y92783D01*
X373976Y65829D02*
X373726D01*
X376726Y62829D02*
Y62579D01*
Y68829D02*
Y69079D01*
X378110Y106478D02*
X377860D01*
X379476Y65829D02*
X379726D01*
X380860Y103478D02*
Y103228D01*
Y109478D02*
Y109728D01*
X383610Y106478D02*
X383860D01*
X396770Y105924D02*
X396593Y105747D01*
X396770Y110128D02*
X396593Y110304D01*
X400974Y105924D02*
X401151Y105747D01*
X400974Y110128D02*
X401151Y110304D01*
X409888Y165545D02*
X409638D01*
X412888Y162545D02*
Y162295D01*
Y168545D02*
Y168795D01*
X415367Y89266D02*
X415117D01*
X415888Y165545D02*
X416138D01*
X417967Y86666D02*
Y86416D01*
Y91866D02*
Y92116D01*
X420567Y89266D02*
X420817D01*
X429888Y165545D02*
X429638D01*
X432888Y162545D02*
Y162295D01*
Y168545D02*
Y168795D01*
X435888Y165545D02*
X436138D01*
X449888D02*
X449638D01*
X452888Y162545D02*
Y162295D01*
Y168545D02*
Y168795D01*
X455888Y165545D02*
X456138D01*
X465557Y116589D02*
X465307D01*
X468557Y113589D02*
Y113339D01*
Y119589D02*
Y119839D01*
X469016Y86634D02*
X468839Y86457D01*
X469016Y91228D02*
X468839Y91405D01*
X471557Y116589D02*
X471807D01*
X472953Y76792D02*
X472776Y76615D01*
X472953Y81385D02*
X472776Y81562D01*
X473610Y86634D02*
X473787Y86457D01*
X473610Y91228D02*
X473787Y91405D01*
X474781Y136766D02*
X474531D01*
X476974Y174069D02*
X476724D01*
X477520Y115675D02*
X477270D01*
X477547Y76792D02*
X477724Y76615D01*
X477547Y81385D02*
X477724Y81562D01*
X477781Y134016D02*
Y133766D01*
Y139516D02*
Y139766D01*
X479974Y171069D02*
Y170819D01*
Y177069D02*
Y177319D01*
X480270Y112675D02*
Y112425D01*
Y118675D02*
Y118925D01*
X480781Y136766D02*
X481031D01*
X482974Y174069D02*
X483224D01*
X483020Y115675D02*
X483270D01*
X493465Y115774D02*
X493215D01*
X496195Y136766D02*
X495945D01*
X496215Y112774D02*
Y112524D01*
Y118774D02*
Y119024D01*
X498965Y115774D02*
X499215D01*
X499195Y134016D02*
Y133766D01*
Y139516D02*
Y139766D01*
X502195Y136766D02*
X502445D01*
X505026Y116982D02*
X504776D01*
X508026Y113982D02*
Y113732D01*
Y119982D02*
Y120232D01*
X511026Y116982D02*
X511276D01*
D02*
D25*
X130959Y168163D03*
X131549Y26234D03*
X385585Y27022D03*
X507829Y168557D03*
D02*
D26*
X190329Y108104D03*
Y118104D03*
X366864Y87061D03*
X376864D03*
X402888Y155545D03*
Y165545D03*
X412888Y155545D03*
Y165545D03*
X422888Y155545D03*
Y165545D03*
X432888Y155545D03*
Y165545D03*
X442888Y155545D03*
Y165545D03*
X452888Y155545D03*
Y165545D03*
X462888Y155545D03*
Y165545D03*
X468557Y106589D03*
Y116589D03*
Y126589D03*
X508026Y106982D03*
Y116982D03*
Y126982D03*
D02*
D27*
X238557Y109600D03*
Y119600D03*
Y129600D03*
Y139600D03*
Y149600D03*
Y159600D03*
Y169600D03*
X268557Y109600D03*
Y119600D03*
Y129600D03*
Y139600D03*
Y149600D03*
Y159600D03*
Y169600D03*
D02*
D28*
X164522Y152514D03*
X179522D03*
X221116Y109600D03*
X479974Y174069D03*
D02*
D29*
X25250Y79896D03*
Y95421D03*
D02*
D72*
X238833Y80467D03*
X242770Y90309D03*
X246707Y80467D03*
X250644Y90309D03*
X254581Y80467D03*
X258518Y90309D03*
X262455Y80467D03*
X266392Y90309D03*
X270329Y80467D03*
X274266Y90309D03*
X278203Y80467D03*
X282140Y90309D03*
X286077Y80467D03*
X290014Y90309D03*
X293951Y80467D03*
X297888Y90309D03*
X301825Y80467D03*
X305762Y90309D03*
X447691Y88931D03*
X451628Y79089D03*
X455565Y88931D03*
X459502Y79089D03*
X463439Y88931D03*
X467376Y79089D03*
X471313Y88931D03*
X475250Y79089D03*
X479187Y88931D03*
X483124Y79089D03*
D02*
D73*
X426825Y56844D03*
X502809D03*
D02*
D74*
X214030Y58222D03*
X329384D03*
D02*
D75*
X468781Y136766D03*
X477781D03*
X499195D03*
X508195D03*
D02*
D76*
X376726Y65829D03*
Y74829D03*
X380860Y106478D03*
Y115478D03*
X480270Y106675D03*
Y115675D03*
X496215Y106774D03*
Y115774D03*
D02*
D77*
X398872Y108026D03*
Y115112D03*
Y122199D03*
D02*
D78*
X39620Y103380D03*
Y143380D03*
X39915Y29463D03*
Y69463D03*
X52612Y103380D03*
Y143380D03*
X52809Y29758D03*
Y69758D03*
X64030Y77553D03*
Y97553D03*
X118537Y100742D03*
Y110978D03*
X120624Y121943D03*
Y141943D03*
X133400Y123478D03*
X139719Y51805D03*
Y91805D03*
X150329Y90407D03*
X158537Y100742D03*
Y110978D03*
X173400Y123478D03*
X180860Y59443D03*
Y79443D03*
X190329Y90407D03*
X417967Y89266D03*
Y109266D03*
D02*
D79*
X78459Y66313D03*
X88459D03*
X98459D03*
X108459D03*
D02*
D80*
X77533Y120900D03*
D02*
D81*
Y90900D03*
Y100900D03*
Y110900D03*
X107533Y90900D03*
Y100900D03*
Y110900D03*
Y120900D03*
D02*
D84*
X39915Y29463D02*
Y29758D01*
X52809*
X52612Y103380D02*
Y110585D01*
X77533*
Y110900*
X52809Y103380D02*
X52612D01*
X238144Y139600D02*
Y139817D01*
X238557Y119600D02*
X228301D01*
Y104384*
X242376Y90309*
X242770*
X238557Y139600D02*
X247986D01*
Y96510*
X250644Y93852*
Y90309*
X238557Y159600D02*
X251923D01*
Y103498*
X258518Y96904*
Y90309*
X254581Y80467D02*
Y76234D01*
X256156Y74659*
X305467*
X311963Y81156*
Y101923*
X263537*
X257337Y108124*
Y149600*
X268557*
Y109600D02*
Y109502D01*
X311077*
X268557Y129600D02*
X302691D01*
X317474Y114817*
Y80860*
X307140Y70526*
X251037*
X246707Y74856*
Y80467*
X323380Y109600D02*
Y80959D01*
X309797Y67376*
X245427*
X238833Y73970*
Y80467*
X376726Y74829D02*
X376864D01*
Y87061*
X398872Y115112D02*
X380860D01*
Y115478*
X452888Y155545D02*
Y153085D01*
X432533Y132730*
X323281*
Y118852*
X462888Y155545D02*
Y151077D01*
X447789Y135978*
X447593*
X433813Y122199*
X398872*
X468557Y126589D02*
Y136766D01*
X468781*
X468931Y126754D02*
Y126589D01*
X468557*
X480270Y106675D02*
X468557D01*
Y106589*
X508026Y106982D02*
Y106774D01*
X496215*
X508026Y126982D02*
Y136766D01*
X508195*
X508026Y127317D02*
Y126982D01*
D02*
D85*
X311077Y109502D03*
X323281Y118852D03*
X323380Y109600D03*
X0Y0D02*
M02*
