G04 EasyPC Gerber Version 21.0.3 Build 4286 *
G04 #@! TF.Part,Single*
G04 #@! TF.FileFunction,Copper,L1,Top *
G04 #@! TF.FilePolarity,Positive *
%FSLAX35Y35*%
%MOIN*%
G04 #@! TA.AperFunction,ComponentPad*
%AMT78*0 Octagon Pad at angle 0*4,1,8,-0.01077,-0.02600,0.01077,-0.02600,0.02600,-0.01077,0.02600,0.01077,0.01077,0.02600,-0.01077,0.02600,-0.02600,0.01077,-0.02600,-0.01077,-0.01077,-0.02600,0*%
%ADD78T78*%
G04 #@! TA.AperFunction,SMDPad*
%ADD76R,0.05500X0.06000*%
G04 #@! TA.AperFunction,WasherPad*
%ADD26R,0.06000X0.06000*%
G04 #@! TA.AperFunction,ComponentPad*
%ADD80R,0.06600X0.06600*%
G04 #@! TD.AperFunction*
%ADD24C,0.00001*%
%ADD17C,0.00500*%
%ADD18C,0.01000*%
%ADD84C,0.01500*%
G04 #@! TA.AperFunction,ComponentPad*
%ADD79C,0.04764*%
G04 #@! TA.AperFunction,ViaPad*
%ADD85C,0.04800*%
G04 #@! TD.AperFunction*
%ADD83C,0.05000*%
G04 #@! TA.AperFunction,ComponentPad*
%ADD77C,0.05945*%
G04 #@! TA.AperFunction,WasherPad*
%ADD28C,0.06000*%
G04 #@! TA.AperFunction,ComponentPad*
%ADD72C,0.06496*%
%ADD81C,0.06600*%
%ADD73C,0.18307*%
%ADD74C,0.19685*%
G04 #@! TA.AperFunction,WasherPad*
%ADD25C,0.27559*%
%ADD27O,0.11000X0.06000*%
%ADD29O,0.11811X0.07874*%
G04 #@! TA.AperFunction,SMDPad*
%ADD82R,0.04724X0.02362*%
%ADD75R,0.06000X0.05500*%
X0Y0D02*
D02*
D17*
X10880Y181648D02*
Y4778D01*
X82041Y5860*
Y88909*
G75*
G02X72606Y90900I-4508J1991*
G01*
G75*
G02X82041Y92891I4928*
G01*
Y98909*
G75*
G02X72606Y100900I-4508J1991*
G01*
G75*
G02X82041Y102891I4928*
G01*
Y108909*
G75*
G02X72606Y110900I-4508J1991*
G01*
G75*
G02X82041Y112891I4928*
G01*
Y181648*
X10880*
X42293Y73063D02*
X44143Y71213D01*
Y67712*
X41666Y65235*
X38165*
X35687Y67712*
Y71213*
X37537Y73063*
Y77518*
X32250*
G75*
G02X27219Y74331I-5031J2378*
G01*
X23281*
G75*
G02Y85461J5565*
G01*
X27219*
G75*
G02X32250Y82274J-5565*
G01*
X39915*
G75*
G02X42293Y79896J-2378*
G01*
Y73063*
X41666Y33691D02*
X44143Y31213D01*
Y27712*
X41666Y25235*
X38165*
X35687Y27712*
Y31213*
X38165Y33691*
X41666*
X41370Y107608D02*
X43848Y105130D01*
Y101630*
X41998Y99780*
Y95421*
G75*
G02X39620Y93043I-2378*
G01*
X32250*
G75*
G02X27219Y89856I-5031J2378*
G01*
X23281*
G75*
G02Y100986J5565*
G01*
X27219*
G75*
G02X32250Y97799J-5565*
G01*
X37242*
Y99780*
X35392Y101630*
Y105130*
X37870Y107608*
X41370*
X54363Y147608D02*
X56840Y145130D01*
Y141630*
X54363Y139152*
X50862*
X49012Y141002*
X43220*
X41370Y139152*
X37870*
X35392Y141630*
Y145130*
X37870Y147608*
X41370*
X43220Y145758*
X49012*
X50862Y147608*
X54363*
X55187Y73358D02*
X57037Y71508D01*
Y68007*
X54559Y65530*
X51059*
X48581Y68007*
Y71508*
X50431Y73358*
Y99583*
X48384Y101630*
Y105130*
X50862Y107608*
X54363*
X56840Y105130*
Y101630*
X55187Y99976*
Y73358*
X54559Y33986D02*
X57037Y31508D01*
Y28007*
X54559Y25530*
X51059*
X48581Y28007*
Y31508*
X51059Y33986*
X54559*
X65780Y101781D02*
X68257Y99304D01*
Y95803*
X65780Y93325*
X62279*
X59802Y95803*
Y99304*
X62279Y101781*
X65780*
X65209Y80403D02*
X66880Y78733D01*
Y76374*
X65209Y74703*
X62850*
X61180Y76374*
Y78733*
X62850Y80403*
X65209*
X73982Y124451D02*
X81085D01*
Y117348*
X73982*
Y124451*
X78459Y68945D02*
G75*
G02X81091Y66313J-2632D01*
G01*
G75*
G02X78459Y63681I-2632*
G01*
G75*
G02X75827Y66313J2632*
G01*
G75*
G02X78459Y68945I2632*
G01*
X81791Y5856D02*
G36*
Y29463D01*
X57037*
Y28007*
X54559Y25530*
X51059*
X48581Y28007*
Y29463*
X44143*
Y27712*
X41666Y25235*
X38165*
X35687Y27712*
Y29463*
X11130*
Y5028*
X27312*
X81791Y5856*
G37*
X55343Y66313D02*
G36*
X54559Y65530D01*
X51059*
X50276Y66313*
X42744*
X41666Y65235*
X38165*
X37087Y66313*
X11130*
Y29463*
X35687*
Y31213*
X38165Y33691*
X41666*
X44143Y31213*
Y29463*
X48581*
Y31508*
X51059Y33986*
X54559*
X57037Y31508*
Y29463*
X81791*
Y66313*
X81091*
G75*
G02X78459Y63681I-2632*
G01*
G75*
G02X75827Y66313J2632*
G01*
X55343*
G37*
X37087D02*
G36*
X35687Y67712D01*
Y71213*
X37537Y73063*
Y75348*
X30426*
G75*
G02X27219Y74331I-3207J4548*
G01*
X23281*
G75*
G02X20074Y75348J5565*
G01*
X11130*
Y66313*
X37087*
G37*
X50276D02*
G36*
X48581Y68007D01*
Y71508*
X50431Y73358*
Y75348*
X42293*
Y73063*
X44143Y71213*
Y67712*
X42744Y66313*
X50276*
G37*
X65854Y75348D02*
G36*
X65209Y74703D01*
X62850*
X62206Y75348*
X55187*
Y73358*
X57037Y71508*
Y68007*
X55343Y66313*
X75827*
G75*
G02X78459Y68945I2632*
G01*
G75*
G02X81091Y66313J-2632*
G01*
X81791*
Y75348*
X65854*
G37*
X73108Y98732D02*
G36*
X68257D01*
Y95803*
X65780Y93325*
X62279*
X59802Y95803*
Y98732*
X55187*
Y75348*
X62206*
X61180Y76374*
Y78733*
X62850Y80403*
X65209*
X66880Y78733*
Y76374*
X65854Y75348*
X81791*
Y88419*
G75*
G02X72606Y90900I-4258J2481*
G01*
G75*
G02X81791Y93381I4928*
G01*
Y98419*
G75*
G02X73108Y98732I-4258J2481*
G01*
G37*
X37242D02*
G36*
X31692D01*
G75*
G02X32250Y97799I-4473J-3310*
G01*
X37242*
Y98732*
G37*
X37537Y75348D02*
G36*
Y77518D01*
X32250*
G75*
G02X30426Y75348I-5031J2378*
G01*
X37537*
G37*
X50431Y98732D02*
G36*
X41998D01*
Y95421*
G75*
G02X39620Y93043I-2378*
G01*
X32250*
G75*
G02X27219Y89856I-5031J2379*
G01*
X23281*
G75*
G02X17717Y95421J5565*
G01*
G75*
G02X18808Y98732I5565*
G01*
X11130*
Y75348*
X20074*
G75*
G02X17717Y79896I3207J4548*
G01*
G75*
G02X23281Y85461I5565*
G01*
X27219*
G75*
G02X32250Y82274J-5565*
G01*
X39915*
G75*
G02X42293Y79896J-2378*
G01*
Y75348*
X50431*
Y98732*
G37*
X81791Y113381D02*
G36*
Y120900D01*
X81085*
Y117348*
X73982*
Y120900*
X11130*
Y98732*
X18808*
G75*
G02X23281Y100986I4473J-3311*
G01*
X27219*
G75*
G02X31692Y98732I0J-5565*
G01*
X37242*
Y99780*
X35392Y101630*
Y105130*
X37870Y107608*
X41370*
X43848Y105130*
Y101630*
X41998Y99780*
Y98732*
X50431*
Y99583*
X48384Y101630*
Y105130*
X50862Y107608*
X54363*
X56840Y105130*
Y101630*
X55187Y99976*
Y98732*
X59802*
Y99304*
X62279Y101781*
X65780*
X68257Y99304*
Y98732*
X73108*
G75*
G02X72606Y100900I4426J2168*
G01*
G75*
G02X81791Y103381I4928*
G01*
Y108419*
G75*
G02X72606Y110900I-4258J2481*
G01*
G75*
G02X81791Y113381I4928*
G01*
G37*
X56840Y143380D02*
G36*
Y141630D01*
X54363Y139152*
X50862*
X49012Y141002*
X43220*
X41370Y139152*
X37870*
X35392Y141630*
Y143380*
X11130*
Y120900*
X73982*
Y124451*
X81085*
Y120900*
X81791*
Y143380*
X56840*
G37*
X11130Y181398D02*
G36*
Y143380D01*
X35392*
Y145130*
X37870Y147608*
X41370*
X43220Y145758*
X49012*
X50862Y147608*
X54363*
X56840Y145130*
Y143380*
X81791*
Y181398*
X11130*
G37*
X225106Y172906D02*
Y171728D01*
X231947*
G75*
G02X232818Y172906I4110J-2129*
G01*
X225106*
G36*
Y171728*
X231947*
G75*
G02X232818Y172906I4110J-2129*
G01*
X225106*
G37*
X519443Y158433D02*
G75*
G02X492421Y168557I-11614J10124D01*
G01*
G75*
G02X500199Y181943I15407*
G01*
X137852*
G75*
G02X146366Y168163I-6893J-13780*
G01*
G75*
G02X115551I-15407*
G01*
G75*
G02X124065Y181943I15407*
G01*
X94443*
X94148Y6549*
X519443*
Y158433*
X503961Y149510D02*
X510461D01*
Y143510*
X503961*
Y149510*
X185701Y112732D02*
X194957D01*
Y103476*
X192293*
Y94421*
X194557Y92158*
Y88657*
X192707Y86807*
Y71707*
G75*
G02X190329Y69329I-2378*
G01*
X170874*
Y68898*
X162894*
Y74516*
X164272*
Y76378*
X162894*
Y81996*
X169624*
Y108600*
X162138*
X160288Y106750*
X156787*
X154309Y109228*
Y112729*
X156787Y115206*
X160288*
X162138Y113356*
X172002*
G75*
G02X174380Y110978J-2378*
G01*
Y79187*
G75*
G02X172002Y76809I-2378*
G01*
X170874*
Y76378*
X169496*
Y74516*
X170874*
Y74085*
X187951*
Y86807*
X186101Y88657*
Y92158*
X187537Y93594*
Y103476*
X185701*
Y112732*
X182611Y63671D02*
X185088Y61193D01*
Y57693*
X182611Y55215*
X179110*
X176632Y57693*
Y61193*
X179110Y63671*
X182611*
X164522Y155764D02*
G75*
G02X167772Y152514J-3250D01*
G01*
G75*
G02X164522Y149264I-3250*
G01*
G75*
G02X161272Y152514J3250*
G01*
G75*
G02X164522Y155764I3250*
G01*
X174579Y126328D02*
X176250Y124658D01*
Y122299*
X174579Y120628*
X172220*
X170550Y122299*
Y124658*
X172220Y126328*
X174579*
X174894Y152514D02*
G75*
G02X184150I4628D01*
G01*
G75*
G02X174894I-4628*
G01*
X182040Y82293D02*
X183710Y80622D01*
Y78263*
X182040Y76593*
X179681*
X178010Y78263*
Y80622*
X179681Y82293*
X182040*
X185701Y122732D02*
X194957D01*
Y113476*
X185701*
Y122732*
X445016Y170173D02*
X447516D01*
Y160917*
X438260*
Y170173*
X440760*
Y177157*
X425016*
Y170173*
X427516*
Y160917*
X418260*
Y170173*
X420760*
Y175091*
X358972*
G75*
G02X358972Y175033I-2128J-58*
G01*
Y167673*
X398260*
Y170173*
X407516*
Y160917*
X398260*
Y163417*
X356844*
G75*
G02X354717Y165545J2128*
G01*
Y172906*
X244296*
G75*
G02X241057Y164972I-3239J-3305*
G01*
X236057*
G75*
G02X231947Y167472J4628*
G01*
X225106*
Y165419*
X206850*
Y174175*
X209350*
Y175033*
G75*
G02X209351Y175091I2128J-1*
G01*
X205528*
Y151846*
X206555*
Y154096*
X224811*
Y152004*
X232102*
G75*
G02X236057Y154228I3955J-2404*
G01*
X241057*
G75*
G02X245685Y149600J-4628*
G01*
G75*
G02X241057Y144972I-4628*
G01*
X236057*
G75*
G02X231968Y147433J4628*
G01*
X224811*
Y145341*
X206555*
Y147591*
X203400*
G75*
G02X201394Y149008J2128*
G01*
Y132358*
X206850*
Y134608*
X225106*
Y132358*
X232341*
G75*
G02X236057Y134228I3717J-2758*
G01*
X241057*
G75*
G02X245685Y129600J-4628*
G01*
G75*
G02X241057Y124972I-4628*
G01*
X236057*
G75*
G02X231678Y128102J4628*
G01*
X225106*
Y125852*
X206850*
Y128102*
X199266*
G75*
G02X197138Y130230J2128*
G01*
Y179285*
G75*
G02X199266Y181413I2128*
G01*
X442888*
G75*
G02X445016Y179285J-2128*
G01*
Y170173*
X439638Y158795D02*
X446138D01*
Y152295*
X439638*
Y158795*
X428260Y170173D02*
X437516D01*
Y160917*
X428260*
Y170173*
X419638Y158795D02*
X426138D01*
Y152295*
X419638*
Y158795*
X408260Y160173D02*
X417516D01*
Y150917*
X415266*
Y147593*
G75*
G02X412888Y145215I-2378*
G01*
X334207*
G75*
G02X331829Y147593J2378*
G01*
Y157478*
X298630*
Y155478*
X280374*
Y157472*
X275167*
G75*
G02X271057Y154972I-4110J2128*
G01*
X266057*
G75*
G02X261429Y159600J4628*
G01*
G75*
G02X266057Y164228I4628*
G01*
X271057*
G75*
G02X275167Y161728J-4628*
G01*
X280374*
Y164234*
X298630*
Y162234*
X334207*
G75*
G02X336585Y159856J-2378*
G01*
Y149970*
X410510*
Y150917*
X408260*
Y160173*
X290752Y152561D02*
X297252D01*
Y146561*
X290752*
Y152561*
X408260Y170173D02*
X417516D01*
Y160917*
X408260*
Y170173*
X399638Y158795D02*
X406138D01*
Y152295*
X399638*
Y158795*
X280374Y113486D02*
X289630D01*
Y104730*
X280374*
Y107472*
X275167*
G75*
G02X271057Y104972I-4110J2128*
G01*
X266057*
G75*
G02X261429Y109600J4628*
G01*
G75*
G02X266057Y114228I4628*
G01*
X271057*
G75*
G02X275167Y111728J-4628*
G01*
X280374*
Y113486*
X320416Y121683D02*
G75*
G02X327309Y118852I2866J-2831D01*
G01*
G75*
G02X319743Y116927I-4028*
G01*
X298827*
Y114927*
X280571*
Y117177*
X275000*
G75*
G02X271057Y114972I-3943J2423*
G01*
X266057*
G75*
G02X261429Y119600J4628*
G01*
G75*
G02X266057Y124228I4628*
G01*
X271057*
G75*
G02X275307Y121433J-4628*
G01*
X280571*
Y123683*
X298827*
Y121683*
X320416*
X320173Y112037D02*
G75*
G02X327408Y109600I3207J-2437D01*
G01*
G75*
G02X320332Y106967I-4028*
G01*
X314207*
G75*
G02X307049Y109502I-3130J2535*
G01*
G75*
G02X314207Y112037I4028*
G01*
X320173*
X290752Y112108D02*
X297252D01*
Y106108*
X290752*
Y112108*
X280374Y133959D02*
X289630D01*
Y125203*
X280374*
Y127315*
X275081*
G75*
G02X271057Y124972I-4024J2285*
G01*
X266057*
G75*
G02X261429Y129600J4628*
G01*
G75*
G02X266057Y134228I4628*
G01*
X271057*
G75*
G02X275081Y131886J-4628*
G01*
X280374*
Y133959*
X428260Y160173D02*
X437516D01*
Y150917*
X433257*
X420239Y137899*
G75*
G02X418554Y137203I-1681J1681*
G01*
X298138*
Y135203*
X279882*
Y137295*
X275070*
G75*
G02X271057Y134972I-4013J2305*
G01*
X266057*
G75*
G02X261429Y139600J4628*
G01*
G75*
G02X266057Y144228I4628*
G01*
X271057*
G75*
G02X275093Y141866J-4628*
G01*
X279882*
Y143959*
X298138*
Y141959*
X417572*
X428260Y152646*
Y160173*
X503398Y131610D02*
X512654D01*
Y122354*
X503398*
Y124604*
X490128*
Y113118*
X492128*
Y94862*
X483372*
Y94919*
X457943*
Y93188*
G75*
G02X459502Y91808I-2378J-4257*
G01*
G75*
G02X467376I3937J-2877*
G01*
G75*
G02X475983Y90334I3937J-2877*
G01*
G75*
G02X482685Y88931I3204J-1403*
G01*
G75*
G02X475983Y87528I-3498*
G01*
G75*
G02X467376Y86054I-4670J1403*
G01*
G75*
G02X459502I-3937J2877*
G01*
G75*
G02X451628I-3937J2877*
G01*
G75*
G02X442815Y88931I-3937J2877*
G01*
G75*
G02X445313Y93188I4876*
G01*
Y94722*
X439864*
Y93976*
X431108*
Y112232*
X433108*
Y126589*
G75*
G02X435486Y128967I2378*
G01*
X463929*
Y131217*
X473185*
Y121961*
X463929*
Y124211*
X437864*
Y112232*
X439864*
Y99478*
X447691*
G75*
G02X450069Y97100J-2378*
G01*
Y93188*
G75*
G02X451628Y91808I-2378J-4257*
G01*
G75*
G02X453187Y93188I3937J-2877*
G01*
Y97297*
G75*
G02X455565Y99675I2378*
G01*
X483372*
Y113118*
X485372*
Y126982*
G75*
G02X487750Y129360I2378*
G01*
X503398*
Y131610*
X463929Y121217D02*
X473185D01*
Y111961*
X463929*
Y121217*
X465307Y109839D02*
X471807D01*
Y103339*
X465307*
Y109839*
X503398Y121610D02*
X512654D01*
Y112354*
X503398*
Y121610*
X504776Y110232D02*
X511276D01*
Y103732*
X504776*
Y110232*
X502809Y67626D02*
G75*
G02X513591Y56844J-10781D01*
G01*
G75*
G02X502809Y46063I-10781*
G01*
G75*
G02X492028Y56844J10781*
G01*
G75*
G02X502809Y67626I10781*
G01*
X479920Y80492D02*
G75*
G02X486622Y79089I3204J-1403D01*
G01*
G75*
G02X479920Y77685I-3498*
G01*
G75*
G02X471313Y76212I-4670J1403*
G01*
G75*
G02X463439I-3937J2877*
G01*
G75*
G02X455565I-3937J2877*
G01*
G75*
G02X446752Y79089I-3937J2877*
G01*
G75*
G02X455565Y81965I4876*
G01*
G75*
G02X463439I3937J-2877*
G01*
G75*
G02X471313I3937J-2877*
G01*
G75*
G02X479920Y80492I3937J-2877*
G01*
X357289Y127291D02*
X363289D01*
Y120791*
X357289*
Y127291*
X394272Y122199D02*
G75*
G02X403472I4600D01*
G01*
G75*
G02X401806Y118656I-4600J0*
G01*
G75*
G02Y111569I-2934J-3543*
G01*
G75*
G02X398872Y103425I-2934J-3543*
G01*
G75*
G02X395938Y111569J4600*
G01*
G75*
G02X395200Y112341I2934J3544*
G01*
X384969*
Y110341*
X366713*
Y112663*
X364667*
Y110413*
X355911*
Y112663*
X343474*
Y99266*
G75*
G02X341096Y96888I-2378*
G01*
X284518*
Y94566*
G75*
G02X286077Y93186I-2378J-4257*
G01*
G75*
G02X293951I3937J-2877*
G01*
G75*
G02X301825I3937J-2877*
G01*
G75*
G02X310019Y92687I3937J-2877*
G01*
X366864*
G75*
G02X368801Y91689J-2378*
G01*
X371492*
Y82433*
X362236*
Y87931*
X310019*
G75*
G02X301825Y87432I-4257J2378*
G01*
G75*
G02X293951I-3937J2877*
G01*
G75*
G02X286077I-3937J2877*
G01*
G75*
G02X278203I-3937J2877*
G01*
G75*
G02X269596Y88906I-3937J2877*
G01*
G75*
G02X263187I-3204J1403*
G01*
G75*
G02X254581Y87432I-4670J1403*
G01*
G75*
G02X246707I-3937J2877*
G01*
G75*
G02X237894Y90309I-3937J2877*
G01*
G75*
G02X246707Y93186I4876*
G01*
G75*
G02X254581I3937J-2877*
G01*
G75*
G02X263187Y91712I3937J-2877*
G01*
G75*
G02X269596I3204J-1403*
G01*
G75*
G02X278203Y93186I4670J-1403*
G01*
G75*
G02X279762Y94566I3937J-2877*
G01*
Y99266*
G75*
G02X282140Y101644I2378*
G01*
X338719*
Y115041*
G75*
G02X341096Y117419I2378*
G01*
X355911*
Y119669*
X364667*
Y117419*
X366713*
Y119096*
X384969*
Y117096*
X394722*
G75*
G02X395938Y118656I4151J-1985*
G01*
G75*
G02X394272Y122199I2934J3544*
G01*
X372236Y91689D02*
X381492D01*
Y82433*
X379242*
Y79654*
X381006*
Y70398*
X372250*
Y79654*
X374486*
Y82433*
X372236*
Y91689*
X373628Y69276D02*
X379628D01*
Y62776*
X373628*
Y69276*
X370177Y27022D02*
G75*
G02X400992I15407D01*
G01*
G75*
G02X370177I-15407*
G01*
X329384Y69693D02*
G75*
G02X340854Y58222J-11470D01*
G01*
G75*
G02X329384Y46752I-11470*
G01*
G75*
G02X317913Y58222J11470*
G01*
G75*
G02X329384Y69693I11470*
G01*
X419717Y93494D02*
X422194Y91016D01*
Y87515*
X419717Y85038*
X416216*
X413739Y87515*
Y91016*
X416216Y93494*
X419717*
X426825Y67626D02*
G75*
G02X437606Y56844J-10781D01*
G01*
G75*
G02X426825Y46063I-10781*
G01*
G75*
G02X416043Y56844J10781*
G01*
G75*
G02X426825Y67626I10781*
G01*
X419146Y112116D02*
X420817Y110445D01*
Y108086*
X419146Y106416*
X416787*
X415117Y108086*
Y110445*
X416787Y112116*
X419146*
X290752Y132581D02*
X297252D01*
Y126581*
X290752*
Y132581*
X280374Y153939D02*
X289630D01*
Y145183*
X280374*
Y147315*
X275081*
G75*
G02X271057Y144972I-4024J2285*
G01*
X266057*
G75*
G02X261429Y149600J4628*
G01*
G75*
G02X266057Y154228I4628*
G01*
X271057*
G75*
G02X275081Y151886J-4628*
G01*
X280374*
Y153939*
X271057Y172850D02*
G75*
G02X274307Y169600J-3250D01*
G01*
G75*
G02X271057Y166350I-3250*
G01*
X266057*
G75*
G02X262807Y169600J3250*
G01*
G75*
G02X266057Y172850I3250*
G01*
X271057*
X241057Y164228D02*
G75*
G02X245685Y159600J-4628D01*
G01*
G75*
G02X241057Y154972I-4628*
G01*
X236057*
G75*
G02X231947Y157472J4628*
G01*
X225224*
Y155478*
X215969*
Y164234*
X225224*
Y161728*
X231947*
G75*
G02X236057Y164228I4110J-2128*
G01*
X241057*
X208346Y162856D02*
X214846D01*
Y156856*
X208346*
Y162856*
X207756Y142915D02*
X214256D01*
Y136915*
X207756*
Y142915*
X241057Y144228D02*
G75*
G02Y134972J-4628D01*
G01*
X236057*
G75*
G02X231947Y137472J4628*
G01*
X224634*
Y135537*
X215378*
Y144293*
X224634*
Y141728*
X231947*
G75*
G02X236057Y144228I4110J-2128*
G01*
X241057*
X208051Y123230D02*
X214551D01*
Y117230*
X208051*
Y123230*
X241057Y124228D02*
G75*
G02X245685Y119600J-4628D01*
G01*
G75*
G02X241057Y114972I-4628*
G01*
X236057*
G75*
G02X231947Y117472J4628*
G01*
X224929*
Y115852*
X215673*
Y124608*
X224929*
Y121728*
X231947*
G75*
G02X236057Y124228I4110J-2128*
G01*
X241057*
Y114228D02*
G75*
G02X245685Y109600J-4628D01*
G01*
G75*
G02X241057Y104972I-4628*
G01*
X236057*
G75*
G02X233965Y105472J4628*
G01*
X223209*
G75*
G02X216488Y109600I-2093J4128*
G01*
G75*
G02X223209Y113728I4628*
G01*
X233965*
G75*
G02X236057Y114228I2093J-4128*
G01*
X241057*
X297888Y83343D02*
G75*
G02X306701Y80467I3937J-2877D01*
G01*
G75*
G02X297888Y77590I-4876*
G01*
G75*
G02X290014I-3937J2877*
G01*
G75*
G02X282140I-3937J2877*
G01*
G75*
G02X274266I-3937J2877*
G01*
G75*
G02X266392I-3937J2877*
G01*
G75*
G02X258518I-3937J2877*
G01*
G75*
G02X250644I-3937J2877*
G01*
G75*
G02X242770I-3937J2877*
G01*
G75*
G02X233957Y80467I-3937J2877*
G01*
G75*
G02X242770Y83343I4876*
G01*
G75*
G02X250644I3937J-2877*
G01*
G75*
G02X258518I3937J-2877*
G01*
G75*
G02X266392I3937J-2877*
G01*
G75*
G02X274266I3937J-2877*
G01*
G75*
G02X282140I3937J-2877*
G01*
G75*
G02X290014I3937J-2877*
G01*
G75*
G02X297888I3937J-2877*
G01*
X214030Y69693D02*
G75*
G02X225500Y58222J-11470D01*
G01*
G75*
G02X214030Y46752I-11470*
G01*
G75*
G02X202559Y58222J11470*
G01*
G75*
G02X214030Y69693I11470*
G01*
X448260Y160173D02*
X457516D01*
Y150917*
X448260*
Y160173*
Y170173D02*
X457516D01*
Y160917*
X448260*
Y170173*
X458260Y160173D02*
X467516D01*
Y150917*
X458260*
Y160173*
Y170173D02*
X467516D01*
Y160917*
X458260*
Y170173*
X493583Y150888D02*
X502839D01*
Y142132*
X493583*
Y144132*
X480171*
G75*
G02X477793Y146510J2378*
G01*
Y148307*
X475793*
Y166563*
X477596*
Y170098*
G75*
G02X475346Y174069I2378J3970*
G01*
G75*
G02X484602I4628*
G01*
G75*
G02X482352Y170098I-4628*
G01*
Y166563*
X484549*
Y148888*
X493583*
Y150888*
X122374Y146171D02*
X124852Y143693D01*
Y140193*
X122374Y137715*
X118874*
X116396Y140193*
Y143693*
X118874Y146171*
X122374*
X121804Y124793D02*
X123474Y123122D01*
Y120763*
X121804Y119093*
X119444*
X117774Y120763*
Y123122*
X119444Y124793*
X121804*
X135150Y127706D02*
X137628Y125229D01*
Y121728*
X135150Y119250*
X131649*
X129172Y121728*
Y125229*
X131649Y127706*
X135150*
X153051Y74516D02*
X161031D01*
Y68898*
X153051*
Y69329*
X142096*
Y55406*
X143946Y53556*
Y50055*
X141469Y47577*
X137968*
X135491Y50055*
Y53556*
X137341Y55406*
Y71707*
G75*
G02X139719Y74085I2378*
G01*
X153051*
Y74516*
X141469Y96033D02*
X143946Y93556D01*
Y90055*
X141469Y87577*
X137968*
X135491Y90055*
Y93556*
X137968Y96033*
X141469*
X160288Y104970D02*
X162765Y102493D01*
Y98992*
X160288Y96514*
X156787*
X154937Y98364*
X153022*
Y93693*
X154557Y92158*
Y88657*
X153022Y87122*
Y81565*
X153051*
Y81996*
X161031*
Y76378*
X153051*
Y76809*
X150644*
G75*
G02X148266Y79187J2378*
G01*
Y86492*
X146101Y88657*
Y92158*
X148266Y94323*
Y100742*
G75*
G02X150644Y103120I2378*
G01*
X154937*
X156787Y104970*
X160288*
X98459Y68945D02*
G75*
G02X101091Y66313J-2632D01*
G01*
G75*
G02X98459Y63681I-2632*
G01*
G75*
G02X95827Y66313J2632*
G01*
G75*
G02X98459Y68945I2632*
G01*
X107533Y95828D02*
G75*
G02X112461Y90900J-4928D01*
G01*
G75*
G02X107533Y85972I-4928*
G01*
G75*
G02X102606Y90900J4928*
G01*
G75*
G02X107533Y95828I4928*
G01*
X104449Y66313D02*
G75*
G02X112469I4010D01*
G01*
G75*
G02X104449I-4010*
G01*
X120288Y104970D02*
X122765Y102493D01*
Y98992*
X120288Y96514*
X116787*
X114937Y98364*
X111759*
G75*
G02X102606Y100900I-4226J2535*
G01*
G75*
G02X111759Y103435I4928*
G01*
X115252*
X116787Y104970*
X120288*
X116142Y26234D02*
G75*
G02X146957I15407D01*
G01*
G75*
G02X116142I-15407*
G01*
X120288Y115206D02*
X122765Y112729D01*
Y109228*
X120288Y106750*
X116787*
X115173Y108364*
X111759*
G75*
G02X102606Y110900I-4226J2535*
G01*
G75*
G02X111759Y113435I4928*
G01*
X115016*
X116787Y115206*
X120288*
X103983Y120900D02*
G75*
G02X111083I3550D01*
G01*
G75*
G02X103983I-3550*
G01*
X94398Y27022D02*
G36*
Y6799D01*
X519193*
Y27022*
X400992*
G75*
G02X370177I-15407*
G01*
X146937*
G75*
G02X146957Y26234I-15389J-786*
G01*
G75*
G02X116142I-15407*
G01*
G75*
G02X116162Y27022I15409J1*
G01*
X94398*
G37*
X185088Y59443D02*
G36*
Y57693D01*
X182611Y55215*
X179110*
X176632Y57693*
Y59443*
X142096*
Y55406*
X143946Y53556*
Y50055*
X141469Y47577*
X137968*
X135491Y50055*
Y53556*
X137341Y55406*
Y59443*
X94398*
Y27022*
X116162*
G75*
G02X146937I15387J-787*
G01*
X370177*
G75*
G02X400992I15407*
G01*
X519193*
Y59443*
X513273*
G75*
G02X513591Y56844I-10465J-2598*
G01*
G75*
G02X502809Y46063I-10781*
G01*
G75*
G02X492028Y56844J10781*
G01*
G75*
G02X492345Y59443I10782J0*
G01*
X437289*
G75*
G02X437606Y56844I-10465J-2598*
G01*
G75*
G02X426825Y46063I-10781*
G01*
G75*
G02X416043Y56844J10781*
G01*
G75*
G02X416361Y59443I10782J0*
G01*
X340789*
G75*
G02X340854Y58223I-11404J-1219*
G01*
G75*
G02Y58222I-22557J0*
G01*
G75*
G02X329384Y46752I-11470J-1*
G01*
G75*
G02X317913Y58222J11470*
G01*
G75*
G02Y58223I22557J1*
G01*
G75*
G02X317978Y59443I11469J1*
G01*
X225435*
G75*
G02X225500Y58223I-11404J-1219*
G01*
G75*
G02Y58222I-22557J0*
G01*
G75*
G02X214030Y46752I-11470J-1*
G01*
G75*
G02X202559Y58222J11470*
G01*
G75*
G02Y58223I22557J1*
G01*
G75*
G02X202624Y59443I11469J1*
G01*
X185088*
G37*
X137341Y66026D02*
G36*
X112458D01*
G75*
G02X104459I-4000J287*
G01*
X101075*
G75*
G02X98459Y63681I-2616J287*
G01*
G75*
G02X95843Y66026J2632*
G01*
X94398*
Y59443*
X137341*
Y66026*
G37*
X202624Y59443D02*
G36*
G75*
G02X205622Y66026I11405J-1220D01*
G01*
X142096*
Y59443*
X176632*
Y61193*
X179110Y63671*
X182611*
X185088Y61193*
Y59443*
X202624*
G37*
X317978D02*
G36*
G75*
G02X320976Y66026I11405J-1220D01*
G01*
X222437*
G75*
G02X225435Y59443I-8407J-7803*
G01*
X317978*
G37*
X416361D02*
G36*
G75*
G02X421173Y66026I10464J-2599D01*
G01*
X379628*
Y62776*
X373628*
Y66026*
X337791*
G75*
G02X340789Y59443I-8407J-7803*
G01*
X416361*
G37*
X492345D02*
G36*
G75*
G02X497157Y66026I10464J-2599D01*
G01*
X432477*
G75*
G02X437289Y59443I-5652J-9181*
G01*
X492345*
G37*
X513273D02*
G36*
X519193D01*
Y66026*
X508461*
G75*
G02X513273Y59443I-5652J-9181*
G01*
G37*
X381006Y79443D02*
G36*
Y70398D01*
X372250*
Y79443*
X306592*
G75*
G02X297888Y77590I-4767J1024*
G01*
G75*
G02X290014I-3937J2877*
G01*
G75*
G02X282140I-3937J2877*
G01*
G75*
G02X274266I-3937J2877*
G01*
G75*
G02X266392I-3937J2877*
G01*
G75*
G02X258518I-3937J2877*
G01*
G75*
G02X250644I-3937J2877*
G01*
G75*
G02X242770I-3937J2877*
G01*
G75*
G02X234065Y79443I-3937J2877*
G01*
X192707*
Y71707*
G75*
G02X190329Y69329I-2378*
G01*
X170874*
Y68898*
X162894*
Y74516*
X164272*
Y76378*
X162894*
Y79443*
X161031*
Y76378*
X153051*
Y76809*
X150644*
G75*
G02X148266Y79187J2378*
G01*
Y79443*
X94398*
Y66026*
X95843*
G75*
G02X95827Y66313I2616J287*
G01*
G75*
G02X98459Y68945I2632*
G01*
G75*
G02X101091Y66313J-2632*
G01*
G75*
G02X101075Y66026I-2632*
G01*
X104459*
G75*
G02X104449Y66313I4000J286*
G01*
G75*
G02X112469I4010*
G01*
G75*
G02X112458Y66026I-4010J-1*
G01*
X137341*
Y71707*
G75*
G02X139719Y74085I2378*
G01*
X153051*
Y74516*
X161031*
Y68898*
X153051*
Y69329*
X142096*
Y66026*
X205622*
G75*
G02X214030Y69693I8407J-7802*
G01*
G75*
G02X222437Y66026I0J-11470*
G01*
X320976*
G75*
G02X329384Y69693I8407J-7802*
G01*
G75*
G02X337791Y66026I0J-11470*
G01*
X373628*
Y69276*
X379628*
Y66026*
X421173*
G75*
G02X426825Y67626I5652J-9181*
G01*
G75*
G02X432477Y66026I0J-10781*
G01*
X497157*
G75*
G02X502809Y67626I5652J-9181*
G01*
G75*
G02X508461Y66026I0J-10781*
G01*
X519193*
Y79443*
X486604*
G75*
G02X486622Y79089I-3482J-356*
G01*
G75*
G02X479920Y77685I-3498J0*
G01*
G75*
G02X471313Y76212I-4670J1404*
G01*
G75*
G02X463439I-3937J2877*
G01*
G75*
G02X455565I-3937J2877*
G01*
G75*
G02X446752Y79089I-3937J2877*
G01*
G75*
G02X446765Y79443I4879J-2*
G01*
X381006*
G37*
X187951D02*
G36*
X183710D01*
Y78263*
X182040Y76593*
X179681*
X178010Y78263*
Y79443*
X174380*
Y79187*
G75*
G02X172002Y76809I-2378*
G01*
X170874*
Y76378*
X169496*
Y74516*
X170874*
Y74085*
X187951*
Y79443*
G37*
X148266D02*
G36*
Y86492D01*
X146101Y88657*
Y92052*
X143946*
Y90055*
X141469Y87577*
X137968*
X135491Y90055*
Y92052*
X112325*
G75*
G02X112461Y90900I-4792J-1152*
G01*
G75*
G02X107533Y85972I-4928*
G01*
G75*
G02X102606Y90900J4928*
G01*
G75*
G02X102742Y92052I4929*
G01*
X94398*
Y79443*
X148266*
G37*
X169624Y92052D02*
G36*
X154557D01*
Y88657*
X153022Y87122*
Y81565*
X153051*
Y81996*
X161031*
Y79443*
X162894*
Y81996*
X169624*
Y92052*
G37*
X186101D02*
G36*
X174380D01*
Y79443*
X178010*
Y80622*
X179681Y82293*
X182040*
X183710Y80622*
Y79443*
X187951*
Y86807*
X186101Y88657*
Y92052*
G37*
X480767D02*
G36*
G75*
G02X482685Y88931I-1580J-3121D01*
G01*
G75*
G02X475983Y87528I-3498J0*
G01*
G75*
G02X467376Y86054I-4670J1404*
G01*
G75*
G02X459502I-3937J2877*
G01*
G75*
G02X451628I-3937J2877*
G01*
G75*
G02X442815Y88931I-3937J2877*
G01*
Y88931*
G75*
G02X443944Y92052I4875*
G01*
X421159*
X422194Y91016*
Y87515*
X419717Y85038*
X416216*
X413739Y87515*
Y91016*
X414774Y92052*
X368482*
G75*
G02X368801Y91689I-1618J-1743*
G01*
X371492*
Y82433*
X362236*
Y87931*
X310019*
G75*
G02X301825Y87432I-4257J2378*
G01*
G75*
G02X293951I-3937J2877*
G01*
G75*
G02X286077I-3937J2877*
G01*
G75*
G02X278203I-3937J2877*
G01*
G75*
G02X269596Y88906I-3937J2877*
G01*
G75*
G02X263187I-3204J1403*
G01*
G75*
G02X254581Y87432I-4670J1404*
G01*
G75*
G02X246707I-3937J2877*
G01*
G75*
G02X237894Y90309I-3937J2877*
G01*
G75*
G02X238216Y92052I4876*
G01*
X194557*
Y88657*
X192707Y86807*
Y79443*
X234065*
G75*
G02X233957Y80467I4768J1024*
G01*
G75*
G02X242770Y83343I4876*
G01*
G75*
G02X250644I3937J-2877*
G01*
G75*
G02X258518I3937J-2877*
G01*
G75*
G02X266392I3937J-2877*
G01*
G75*
G02X274266I3937J-2877*
G01*
G75*
G02X282140I3937J-2877*
G01*
G75*
G02X290014I3937J-2877*
G01*
G75*
G02X297888I3937J-2877*
G01*
G75*
G02X306701Y80467I3937J-2877*
G01*
G75*
G02X306592Y79443I-4877*
G01*
X372250*
Y79654*
X374486*
Y82433*
X372236*
Y91689*
X381492*
Y82433*
X379242*
Y79654*
X381006*
Y79443*
X446765*
G75*
G02X455565Y81965I4863J-354*
G01*
G75*
G02X463439I3937J-2877*
G01*
G75*
G02X471313I3937J-2877*
G01*
G75*
G02X479920Y80492I3937J-2877*
G01*
G75*
G02X486604Y79443I3204J-1403*
G01*
X519193*
Y92052*
X480767*
G37*
X263359D02*
G36*
X263072D01*
G75*
G02X263187Y91712I-4554J-1741*
G01*
G75*
G02X263359Y92052I3205J-1402*
G01*
G37*
X269712D02*
G36*
X269425D01*
G75*
G02X269596Y91712I-3033J-1742*
G01*
G75*
G02X269712Y92052I4670J-1401*
G01*
G37*
X451819D02*
G36*
X451437D01*
G75*
G02X451628Y91808I-3751J-3124*
G01*
G75*
G02X451819Y92052I3941J-2880*
G01*
G37*
X459693D02*
G36*
X459311D01*
G75*
G02X459502Y91808I-3751J-3124*
G01*
G75*
G02X459693Y92052I3937J-2877*
G01*
G37*
X467567D02*
G36*
X467185D01*
G75*
G02X467376Y91808I-3747J-3121*
G01*
G75*
G02X467567Y92052I3937J-2877*
G01*
G37*
X477607D02*
G36*
X475059D01*
G75*
G02X475983Y90334I-3746J-3122*
G01*
G75*
G02X477607Y92052I3204J-1403*
G01*
G37*
X148271Y100900D02*
G36*
X122765D01*
Y98992*
X120288Y96514*
X116787*
X114937Y98364*
X111759*
G75*
G02X102606Y100900I-4226J2535*
G01*
X94398*
Y92052*
X102742*
G75*
G02X107533Y95828I4791J-1152*
G01*
G75*
G02X112325Y92052J-4928*
G01*
X135491*
Y93556*
X137968Y96033*
X141469*
X143946Y93556*
Y92052*
X146101*
Y92158*
X148266Y94323*
Y100742*
G75*
G02X148271Y100900I2380J2*
G01*
G37*
X169624D02*
G36*
X162765D01*
Y98992*
X160288Y96514*
X156787*
X154937Y98364*
X153022*
Y93693*
X154557Y92158*
Y92052*
X169624*
Y100900*
G37*
X186101Y92052D02*
G36*
Y92158D01*
X187537Y93594*
Y100900*
X174380*
Y92052*
X186101*
G37*
X269712D02*
G36*
G75*
G02X278203Y93186I4554J-1743D01*
G01*
G75*
G02X279762Y94566I3941J-2882*
G01*
Y99266*
G75*
G02X280412Y100900I2378J0*
G01*
X192293*
Y94421*
X194557Y92158*
Y92052*
X238216*
G75*
G02X246707Y93186I4554J-1743*
G01*
G75*
G02X254581I3937J-2877*
G01*
G75*
G02X263072Y92052I3937J-2877*
G01*
X263359*
G75*
G02X269425I3033J-1743*
G01*
X269712*
G37*
X443944D02*
G36*
G75*
G02X445313Y93188I3746J-3120D01*
G01*
Y94722*
X439864*
Y93976*
X431108*
Y100900*
X343474*
Y99266*
G75*
G02X341096Y96888I-2378*
G01*
X284518*
Y94566*
G75*
G02X286077Y93186I-2382J-4262*
G01*
G75*
G02X293951I3937J-2877*
G01*
G75*
G02X301825I3937J-2877*
G01*
G75*
G02X310019Y92687I3937J-2877*
G01*
X366864*
G75*
G02X368482Y92052J-2378*
G01*
X414774*
X416216Y93494*
X419717*
X421159Y92052*
X443944*
G37*
X483372Y100900D02*
G36*
X439864D01*
Y99478*
X447691*
G75*
G02X450069Y97100J-2378*
G01*
Y93188*
G75*
G02X451437Y92052I-2382J-4263*
G01*
X451819*
G75*
G02X453187Y93188I3751J-3127*
G01*
Y97297*
G75*
G02X455565Y99675I2378*
G01*
X483372*
Y100900*
G37*
X492128D02*
G36*
Y94862D01*
X483372*
Y94919*
X457943*
Y93188*
G75*
G02X459311Y92052I-2382J-4263*
G01*
X459693*
G75*
G02X467185I3746J-3121*
G01*
X467567*
G75*
G02X475059I3746J-3121*
G01*
X477607*
G75*
G02X480767I1580J-3121*
G01*
X519193*
Y100900*
X492128*
G37*
X154309Y109479D02*
G36*
X122765D01*
Y109228*
X120288Y106750*
X116787*
X115173Y108364*
X111759*
G75*
G02X102815Y109479I-4226J2535*
G01*
X94398*
Y100900*
X102606*
G75*
G02X111759Y103435I4928*
G01*
X115252*
X116787Y104970*
X120288*
X122765Y102493*
Y100900*
X148271*
G75*
G02X150644Y103120I2373J-157*
G01*
X154937*
X156787Y104970*
X160288*
X162765Y102493*
Y100900*
X169624*
Y108600*
X162138*
X160288Y106750*
X156787*
X154309Y109228*
Y109479*
G37*
X185701D02*
G36*
X174380D01*
Y100900*
X187537*
Y103476*
X185701*
Y109479*
G37*
X338719D02*
G36*
X327406D01*
G75*
G02X320332Y106967I-4026J122*
G01*
X314207*
G75*
G02X307049Y109479I-3130J2535*
G01*
X297252*
Y106108*
X290752*
Y109479*
X289630*
Y104730*
X280374*
Y107472*
X275167*
G75*
G02X271057Y104972I-4110J2128*
G01*
X266057*
G75*
G02X261431Y109479J4628*
G01*
X245683*
G75*
G02X241057Y104972I-4626J121*
G01*
X236057*
G75*
G02X233965Y105472I0J4631*
G01*
X223209*
G75*
G02X216490Y109479I-2092J4128*
G01*
X194957*
Y103476*
X192293*
Y100900*
X280412*
G75*
G02X282140Y101644I1728J-1634*
G01*
X338719*
Y109479*
G37*
X431108D02*
G36*
X420817D01*
Y108086*
X419146Y106416*
X416787*
X415117Y108086*
Y109479*
X403237*
G75*
G02X403472Y108026I-4365J-1453*
G01*
G75*
G02X398872Y103425I-4600*
G01*
G75*
G02X394272Y108026J4600*
G01*
G75*
G02X394507Y109479I4600J0*
G01*
X343474*
Y100900*
X431108*
Y109479*
G37*
X483372D02*
G36*
X471807D01*
Y103339*
X465307*
Y109479*
X439864*
Y100900*
X483372*
Y109479*
G37*
X511276D02*
G36*
Y103732D01*
X504776*
Y109479*
X492128*
Y100900*
X519193*
Y109479*
X511276*
G37*
X355911Y118104D02*
G36*
X327239D01*
G75*
G02X319743Y116927I-3958J748*
G01*
X298827*
Y114927*
X280571*
Y117177*
X275000*
G75*
G02X271057Y114972I-3943J2424*
G01*
X266057*
G75*
G02X261678Y118104J4628*
G01*
X245437*
G75*
G02X241057Y114972I-4380J1496*
G01*
X236057*
G75*
G02X231947Y117472J4628*
G01*
X224929*
Y115852*
X215673*
Y118104*
X214551*
Y117230*
X208051*
Y118104*
X194957*
Y113476*
X185701*
Y118104*
X109722*
G75*
G02X105345I-2188J2795*
G01*
X94398*
Y109479*
X102815*
G75*
G02X102606Y110900I4719J1420*
G01*
G75*
G02X111759Y113435I4928*
G01*
X115016*
X116787Y115206*
X120288*
X122765Y112729*
Y109479*
X154309*
Y112729*
X156787Y115206*
X160288*
X162138Y113356*
X172002*
G75*
G02X174380Y110978J-2378*
G01*
Y109479*
X185701*
Y112732*
X194957*
Y109479*
X216490*
G75*
G02X216488Y109600I4628J121*
G01*
G75*
G02X223209Y113728I4628J0*
G01*
X233965*
G75*
G02X236057Y114228I2093J-4131*
G01*
X241057*
G75*
G02X245685Y109600J-4628*
G01*
G75*
G02X245683Y109479I-4629J0*
G01*
X261431*
G75*
G02X261429Y109600I4628J121*
G01*
G75*
G02X266057Y114228I4628*
G01*
X271057*
G75*
G02X275167Y111728J-4628*
G01*
X280374*
Y113486*
X289630*
Y109479*
X290752*
Y112108*
X297252*
Y109479*
X307049*
G75*
G02Y109502I4038J11*
G01*
G75*
G02X314207Y112037I4028*
G01*
X320173*
G75*
G02X327408Y109600I3207J-2437*
G01*
G75*
G02X327406Y109479I-4028J5*
G01*
X338719*
Y115041*
G75*
G02X341096Y117419I2378*
G01*
X355911*
Y118104*
G37*
X394507Y109479D02*
G36*
G75*
G02X395938Y111569I4365J-1454D01*
G01*
G75*
G02X395200Y112341I2922J3533*
G01*
X384969*
Y110341*
X366713*
Y112663*
X364667*
Y110413*
X355911*
Y112663*
X343474*
Y109479*
X394507*
G37*
X366713Y118104D02*
G36*
X364667D01*
Y117419*
X366713*
Y118104*
G37*
X395378D02*
G36*
X384969D01*
Y117096*
X394722*
G75*
G02X395378Y118104I4154J-1987*
G01*
G37*
X431108Y109479D02*
G36*
Y112232D01*
X433108*
Y118104*
X402367*
G75*
G02X403472Y115112I-3494J-2992*
G01*
G75*
G02X401806Y111569I-4600*
G01*
G75*
G02X403237Y109479I-2934J-3543*
G01*
X415117*
Y110445*
X416787Y112116*
X419146*
X420817Y110445*
Y109479*
X431108*
G37*
X483372D02*
G36*
Y113118D01*
X485372*
Y118104*
X473185*
Y111961*
X463929*
Y118104*
X437864*
Y112232*
X439864*
Y109479*
X465307*
Y109839*
X471807*
Y109479*
X483372*
G37*
X512654Y118104D02*
G36*
Y112354D01*
X503398*
Y118104*
X490128*
Y113118*
X492128*
Y109479*
X504776*
Y110232*
X511276*
Y109479*
X519193*
Y118104*
X512654*
G37*
X105094Y123478D02*
G36*
X94398D01*
Y118104*
X105345*
G75*
G02X103983Y120900I2188J2795*
G01*
G75*
G02X105094Y123478I3550*
G01*
G37*
X215673Y118104D02*
G36*
Y123478D01*
X176250*
Y122299*
X174579Y120628*
X172220*
X170550Y122299*
Y123478*
X137628*
Y121728*
X135150Y119250*
X131649*
X129172Y121728*
Y123478*
X123118*
X123474Y123122*
Y120763*
X121804Y119093*
X119444*
X117774Y120763*
Y123122*
X118130Y123478*
X109973*
G75*
G02X111083Y120900I-2440J-2579*
G01*
G75*
G02X109722Y118104I-3550*
G01*
X185701*
Y122732*
X194957*
Y118104*
X208051*
Y123230*
X214551*
Y118104*
X215673*
G37*
X233531Y123478D02*
G36*
X224929D01*
Y121728*
X231947*
G75*
G02X233531Y123478I4110J-2128*
G01*
G37*
X261678Y118104D02*
G36*
G75*
G02X261429Y119600I4380J1496D01*
G01*
G75*
G02X263531Y123478I4628J0*
G01*
X243583*
G75*
G02X245685Y119600I-2526J-3878*
G01*
G75*
G02X245437Y118104I-4628*
G01*
X261678*
G37*
X280571Y123478D02*
G36*
X273583D01*
G75*
G02X275307Y121433I-2526J-3878*
G01*
X280571*
Y123478*
G37*
X394453D02*
G36*
X363289D01*
Y120791*
X357289*
Y123478*
X298827*
Y121683*
X320416*
G75*
G02X327309Y118852I2866J-2831*
G01*
G75*
G02X327239Y118104I-4028*
G01*
X355911*
Y119669*
X364667*
Y118104*
X366713*
Y119096*
X384969*
Y118104*
X395378*
G75*
G02X395938Y118656I3497J-2994*
G01*
G75*
G02X394272Y122198I2933J3543*
G01*
Y122199*
G75*
G02X394453Y123478I4601*
G01*
G37*
X433108D02*
G36*
X403291D01*
G75*
G02X403472Y122199I-4419J-1280*
G01*
Y122198*
G75*
G02X401806Y118656I-4600*
G01*
G75*
G02X402367Y118104I-2933J-3544*
G01*
X433108*
Y123478*
G37*
X485372D02*
G36*
X473185D01*
Y121961*
X463929*
Y123478*
X437864*
Y118104*
X463929*
Y121217*
X473185*
Y118104*
X485372*
Y123478*
G37*
X512654D02*
G36*
Y122354D01*
X503398*
Y123478*
X490128*
Y118104*
X503398*
Y121610*
X512654*
Y118104*
X519193*
Y123478*
X512654*
G37*
X463929Y129600D02*
G36*
X297252D01*
Y126581*
X290752*
Y129600*
X289630*
Y125203*
X280374*
Y127315*
X275081*
G75*
G02X271057Y124972I-4024J2286*
G01*
X266057*
G75*
G02X261429Y129600J4628*
G01*
X245685*
G75*
G02X241057Y124972I-4628*
G01*
X236057*
G75*
G02X231678Y128102I0J4629*
G01*
X225106*
Y125852*
X206850*
Y128102*
X199266*
G75*
G02X197233Y129600J2128*
G01*
X94398*
Y123478*
X105094*
G75*
G02X109973I2440J-2579*
G01*
X118130*
X119444Y124793*
X121804*
X123118Y123478*
X129172*
Y125229*
X131649Y127706*
X135150*
X137628Y125229*
Y123478*
X170550*
Y124658*
X172220Y126328*
X174579*
X176250Y124658*
Y123478*
X215673*
Y124608*
X224929*
Y123478*
X233531*
G75*
G02X236057Y124228I2526J-3879*
G01*
X241057*
G75*
G02X243583Y123478J-4628*
G01*
X263531*
G75*
G02X266057Y124228I2526J-3878*
G01*
X271057*
G75*
G02X273583Y123478I0J-4628*
G01*
X280571*
Y123683*
X298827*
Y123478*
X357289*
Y127291*
X363289*
Y123478*
X394453*
G75*
G02X403291I4419J-1280*
G01*
X433108*
Y126589*
G75*
G02X435486Y128967I2378*
G01*
X463929*
Y129600*
G37*
Y123478D02*
G36*
Y124211D01*
X437864*
Y123478*
X463929*
G37*
X503398Y129600D02*
G36*
X473185D01*
Y123478*
X485372*
Y126982*
G75*
G02X487750Y129360I2378*
G01*
X503398*
Y129600*
G37*
Y123478D02*
G36*
Y124604D01*
X490128*
Y123478*
X503398*
G37*
X512654Y129600D02*
G36*
Y123478D01*
X519193*
Y129600*
X512654*
G37*
X197233D02*
G36*
G75*
G02X197138Y130230I2033J630D01*
G01*
Y139915*
X124575*
X122374Y137715*
X118874*
X116673Y139915*
X94398*
Y129600*
X197233*
G37*
X512654D02*
G36*
X519193D01*
Y139915*
X422255*
X420239Y137899*
G75*
G02X418554Y137203I-1681J1682*
G01*
X298138*
Y135203*
X279882*
Y137295*
X275070*
G75*
G02X271057Y134972I-4012J2304*
G01*
X266057*
G75*
G02X261429Y139600J4628*
G01*
G75*
G02X261440Y139915I4628J2*
G01*
X245674*
G75*
G02X245685Y139600I-4618J-313*
G01*
G75*
G02X241057Y134972I-4628*
G01*
X236057*
G75*
G02X231947Y137472J4628*
G01*
X224634*
Y135537*
X215378*
Y139915*
X214256*
Y136915*
X207756*
Y139915*
X201394*
Y132358*
X206850*
Y134608*
X225106*
Y132358*
X232341*
G75*
G02X236057Y134228I3716J-2757*
G01*
X241057*
G75*
G02X245685Y129600J-4628*
G01*
X261429*
G75*
G02X266057Y134228I4628*
G01*
X271057*
G75*
G02X275081Y131886J-4628*
G01*
X280374*
Y133959*
X289630*
Y129600*
X290752*
Y132581*
X297252*
Y129600*
X463929*
Y131217*
X473185*
Y129600*
X503398*
Y131610*
X512654*
Y129600*
G37*
X197138Y146510D02*
G36*
X94398D01*
Y139915*
X116673*
X116396Y140193*
Y143693*
X118874Y146171*
X122374*
X124852Y143693*
Y140193*
X124575Y139915*
X197138*
Y146510*
G37*
X422123D02*
G36*
X415005D01*
G75*
G02X412888Y145215I-2117J1083*
G01*
X334207*
G75*
G02X332089Y146510J2378*
G01*
X289630*
Y145183*
X280374*
Y146510*
X274502*
G75*
G02X271057Y144972I-3445J3091*
G01*
X266057*
G75*
G02X262612Y146510J4628*
G01*
X244502*
G75*
G02X241057Y144972I-3445J3091*
G01*
X236057*
G75*
G02X232612Y146510I0J4628*
G01*
X224811*
Y145341*
X206555*
Y146510*
X201394*
Y139915*
X207756*
Y142915*
X214256*
Y139915*
X215378*
Y144293*
X224634*
Y141728*
X231947*
G75*
G02X236057Y144228I4110J-2128*
G01*
X241057*
G75*
G02X245674Y139915J-4628*
G01*
X261440*
G75*
G02X266057Y144228I4617J-315*
G01*
X271057*
G75*
G02X275093Y141866J-4628*
G01*
X279882*
Y143959*
X298138*
Y141959*
X417572*
X422123Y146510*
G37*
X510461D02*
G36*
Y143510D01*
X503961*
Y146510*
X502839*
Y142132*
X493583*
Y144132*
X480171*
G75*
G02X477793Y146510J2378*
G01*
X428849*
X422255Y139915*
X519193*
Y146510*
X510461*
G37*
X197138Y149561D02*
G36*
X183085D01*
G75*
G02X175958I-3564J2953*
G01*
X165879*
G75*
G02X164522Y149264I-1358J2953*
G01*
G75*
G02X163164Y149561I0J3250*
G01*
X94398*
Y146510*
X197138*
Y149561*
G37*
X206555Y146510D02*
G36*
Y147591D01*
X203400*
G75*
G02X201394Y149008I0J2127*
G01*
Y146510*
X206555*
G37*
X232612D02*
G36*
G75*
G02X231968Y147433I3445J3090D01*
G01*
X224811*
Y146510*
X232612*
G37*
X261429Y149561D02*
G36*
X245685D01*
G75*
G02X244502Y146510I-4628J39*
G01*
X262612*
G75*
G02X261429Y149561I3445J3091*
G01*
G37*
X280374Y146510D02*
G36*
Y147315D01*
X275081*
G75*
G02X274502Y146510I-4024J2286*
G01*
X280374*
G37*
X331829Y149561D02*
G36*
X297252D01*
Y146561*
X290752*
Y149561*
X289630*
Y146510*
X332089*
G75*
G02X331829Y147593I2117J1082*
G01*
Y149561*
G37*
X425174D02*
G36*
X415266D01*
Y147593*
G75*
G02X415005Y146510I-2378J0*
G01*
X422123*
X425174Y149561*
G37*
X477793Y146510D02*
G36*
Y148307D01*
X475793*
Y149561*
X431900*
X428849Y146510*
X477793*
G37*
X493583Y149561D02*
G36*
X484549D01*
Y148888*
X493583*
Y149561*
G37*
X502839D02*
G36*
Y146510D01*
X503961*
Y149510*
X510461*
Y146510*
X519193*
Y149561*
X502839*
G37*
X161272Y152514D02*
G36*
X94398D01*
Y149561*
X163164*
G75*
G02X161272Y152514I1358J2953*
G01*
G37*
X174894D02*
G36*
X167772D01*
G75*
G02X165879Y149561I-3250J0*
G01*
X175958*
G75*
G02X174894Y152514I3564J2952*
G01*
G37*
X197138Y149561D02*
G36*
Y152514D01*
X184150*
G75*
G02X183085Y149561I-4628J0*
G01*
X197138*
G37*
X206555Y152514D02*
G36*
X205528D01*
Y151846*
X206555*
Y152514*
G37*
X232461D02*
G36*
X224811D01*
Y152004*
X232102*
G75*
G02X232461Y152514I3955J-2404*
G01*
G37*
X261429Y149561D02*
G36*
G75*
G02Y149600I4632J20D01*
G01*
G75*
G02X262461Y152514I4628J0*
G01*
X244653*
G75*
G02X245685Y149600I-3596J-2914*
G01*
G75*
G02Y149561I-4632J-20*
G01*
X261429*
G37*
X280374Y152514D02*
G36*
X274653D01*
G75*
G02X275081Y151886I-3596J-2913*
G01*
X280374*
Y152514*
G37*
X290752D02*
G36*
X289630D01*
Y149561*
X290752*
Y152514*
G37*
X331829Y149561D02*
G36*
Y152514D01*
X297252*
Y149561*
X331829*
G37*
X428127Y152514D02*
G36*
X426138D01*
Y152295*
X419638*
Y152514*
X417516*
Y150917*
X415266*
Y149561*
X425174*
X428127Y152514*
G37*
X408260D02*
G36*
X406138D01*
Y152295*
X399638*
Y152514*
X336585*
Y149970*
X410510*
Y150917*
X408260*
Y152514*
G37*
X475793D02*
G36*
X467516D01*
Y150917*
X458260*
Y152514*
X457516*
Y150917*
X448260*
Y152514*
X446138*
Y152295*
X439638*
Y152514*
X437516*
Y150917*
X433257*
X431900Y149561*
X475793*
Y152514*
G37*
X502839Y149561D02*
G36*
X519193D01*
Y152514*
X484549*
Y149561*
X493583*
Y150888*
X502839*
Y149561*
G37*
X499578Y155545D02*
G36*
X484549D01*
Y152514*
X519193*
Y155545*
X516080*
G75*
G02X499578I-8251J13012*
G01*
G37*
X161272Y152514D02*
G36*
G75*
G02X163350Y155545I3250J0D01*
G01*
X139800*
G75*
G02X122117I-8842J12619*
G01*
X94398*
X94398Y155049*
Y152514*
X161272*
G37*
X174894D02*
G36*
G75*
G02X176025Y155545I4628D01*
G01*
X165693*
G75*
G02X167772Y152514I-1172J-3032*
G01*
X174894*
G37*
X197138Y155545D02*
G36*
X183019D01*
G75*
G02X184150Y152514I-3497J-3031*
G01*
X197138*
Y155545*
G37*
X331829D02*
G36*
X298630D01*
Y155478*
X280374*
Y155545*
X273287*
G75*
G02X271057Y154972I-2230J4056*
G01*
X266057*
G75*
G02X263827Y155545J4628*
G01*
X243287*
G75*
G02X241057Y154972I-2230J4056*
G01*
X236057*
G75*
G02X233827Y155545J4628*
G01*
X225224*
Y155478*
X215969*
Y155545*
X205528*
Y152514*
X206555*
Y154096*
X224811*
Y152514*
X232461*
G75*
G02X236057Y154228I3596J-2914*
G01*
X241057*
G75*
G02X244653Y152514J-4628*
G01*
X262461*
G75*
G02X266057Y154228I3596J-2913*
G01*
X271057*
G75*
G02X274653Y152514J-4628*
G01*
X280374*
Y153939*
X289630*
Y152514*
X290752*
Y152561*
X297252*
Y152514*
X331829*
Y155545*
G37*
X399638D02*
G36*
X336585D01*
Y152514*
X399638*
Y155545*
G37*
X408260D02*
G36*
X406138D01*
Y152514*
X408260*
Y155545*
G37*
X419638D02*
G36*
X417516D01*
Y152514*
X419638*
Y155545*
G37*
X428260D02*
G36*
X426138D01*
Y152514*
X428127*
X428260Y152646*
Y155545*
G37*
X439638D02*
G36*
X437516D01*
Y152514*
X439638*
Y155545*
G37*
X448260D02*
G36*
X446138D01*
Y152514*
X448260*
Y155545*
G37*
X458260D02*
G36*
X457516D01*
Y152514*
X458260*
Y155545*
G37*
X475793D02*
G36*
X467516D01*
Y152514*
X475793*
Y155545*
G37*
X519193Y158153D02*
G36*
G75*
G02X516080Y155545I-11364J10405D01*
G01*
X519193*
Y158153*
G37*
X117982Y159856D02*
G36*
X94406D01*
X94398Y155545*
X122117*
G75*
G02X117982Y159856I8842J12618*
G01*
G37*
X197138D02*
G36*
X143935D01*
G75*
G02X139800Y155545I-12976J8307*
G01*
X163350*
G75*
G02X164522Y155764I1172J-3031*
G01*
G75*
G02X165693Y155545I0J-3250*
G01*
X176025*
G75*
G02X183019I3497J-3031*
G01*
X197138*
Y159856*
G37*
X233827Y155545D02*
G36*
G75*
G02X231947Y157472I2230J4056D01*
G01*
X225224*
Y155545*
X233827*
G37*
X215969Y159856D02*
G36*
X214846D01*
Y156856*
X208346*
Y159856*
X205528*
Y155545*
X215969*
Y159856*
G37*
X280374Y155545D02*
G36*
Y157472D01*
X275167*
G75*
G02X273287Y155545I-4110J2128*
G01*
X280374*
G37*
X331829D02*
G36*
Y157478D01*
X298630*
Y155545*
X331829*
G37*
X261436Y159856D02*
G36*
X245678D01*
G75*
G02X245685Y159600I-4622J-256*
G01*
G75*
G02X243287Y155545I-4628*
G01*
X263827*
G75*
G02X261429Y159600I2230J4055*
G01*
G75*
G02X261436Y159856I4629*
G01*
G37*
X408260D02*
G36*
X336585D01*
Y155545*
X399638*
Y158795*
X406138*
Y155545*
X408260*
Y159856*
G37*
X428260D02*
G36*
X417516D01*
Y155545*
X419638*
Y158795*
X426138*
Y155545*
X428260*
Y159856*
G37*
X448260D02*
G36*
X437516D01*
Y155545*
X439638*
Y158795*
X446138*
Y155545*
X448260*
Y159856*
G37*
X458260D02*
G36*
X457516D01*
Y155545*
X458260*
Y159856*
G37*
X475793D02*
G36*
X467516D01*
Y155545*
X475793*
Y159856*
G37*
X495113D02*
G36*
X484549D01*
Y155545*
X499578*
G75*
G02X495113Y159856I8251J13013*
G01*
G37*
X492719Y165545D02*
G36*
X484549D01*
Y159856*
X495113*
G75*
G02X492719Y165545I12716J8701*
G01*
G37*
X115775D02*
G36*
X94415D01*
X94406Y159856*
X117982*
G75*
G02X115775Y165545I12977J8307*
G01*
G37*
X197138D02*
G36*
X146142D01*
G75*
G02X143935Y159856I-15184J2618*
G01*
X197138*
Y165545*
G37*
X475793D02*
G36*
X467516D01*
Y160917*
X458260*
Y165545*
X457516*
Y160917*
X448260*
Y165545*
X447516*
Y160917*
X438260*
Y165545*
X437516*
Y160917*
X428260*
Y165545*
X427516*
Y160917*
X418260*
Y165545*
X417516*
Y160917*
X408260*
Y165545*
X407516*
Y160917*
X398260*
Y163417*
X356844*
G75*
G02X354717Y165545J2128*
G01*
X243287*
G75*
G02X241057Y164972I-2230J4055*
G01*
X236057*
G75*
G02X233827Y165545J4628*
G01*
X225106*
Y165419*
X206850*
Y165545*
X205528*
Y159856*
X208346*
Y162856*
X214846*
Y159856*
X215969*
Y164234*
X225224*
Y161728*
X231947*
G75*
G02X236057Y164228I4110J-2128*
G01*
X241057*
G75*
G02X245678Y159856J-4628*
G01*
X261436*
G75*
G02X266057Y164228I4621J-256*
G01*
X271057*
G75*
G02X275167Y161728J-4628*
G01*
X280374*
Y164234*
X298630*
Y162234*
X334207*
G75*
G02X336585Y159856J-2378*
G01*
X408260*
Y160173*
X417516*
Y159856*
X428260*
Y160173*
X437516*
Y159856*
X448260*
Y160173*
X457516*
Y159856*
X458260*
Y160173*
X467516*
Y159856*
X475793*
Y165545*
G37*
X492457Y169600D02*
G36*
X482352D01*
Y166563*
X484549*
Y165545*
X492719*
G75*
G02X492421Y168557I15111J3012*
G01*
G75*
G02X492457Y169600I15410J-1*
G01*
G37*
X115618D02*
G36*
X94422D01*
X94415Y165545*
X115775*
G75*
G02X115551Y168163I15184J2618*
G01*
G75*
G02Y168164I22557J0*
G01*
G75*
G02X115618Y169600I15406J2*
G01*
G37*
X197138D02*
G36*
X146299D01*
G75*
G02X146366Y168163I-15342J-1439*
G01*
G75*
G02X146142Y165545I-15408J0*
G01*
X197138*
Y169600*
G37*
X233827Y165545D02*
G36*
G75*
G02X231947Y167472I2230J4056D01*
G01*
X225106*
Y165545*
X233827*
G37*
X206850Y169600D02*
G36*
X205528D01*
Y165545*
X206850*
Y169600*
G37*
X354717Y165545D02*
G36*
Y169600D01*
X274307*
G75*
G02X271057Y166350I-3250*
G01*
X266057*
G75*
G02X262807Y169600J3250*
G01*
X245685*
G75*
G02X243287Y165545I-4628*
G01*
X354717*
G37*
X398260Y169600D02*
G36*
X358972D01*
Y167673*
X398260*
Y169600*
G37*
X408260D02*
G36*
X407516D01*
Y165545*
X408260*
Y169600*
G37*
X418260D02*
G36*
X417516D01*
Y165545*
X418260*
Y169600*
G37*
X428260D02*
G36*
X427516D01*
Y165545*
X428260*
Y169600*
G37*
X438260D02*
G36*
X437516D01*
Y165545*
X438260*
Y169600*
G37*
X448260D02*
G36*
X447516D01*
Y165545*
X448260*
Y169600*
G37*
X458260D02*
G36*
X457516D01*
Y165545*
X458260*
Y169600*
G37*
X475793Y165545D02*
G36*
Y166563D01*
X477596*
Y169600*
X467516*
Y165545*
X475793*
G37*
X115618Y169600D02*
G36*
G75*
G02X123587Y181693I15340J-1437D01*
G01*
X94443*
X94422Y169600*
X115618*
G37*
X206850D02*
G36*
Y174175D01*
X209350*
Y175033*
G75*
G03X209351Y175091I-155753J2177*
G01*
X205528*
Y169600*
X206850*
G37*
X354717D02*
G36*
Y172906D01*
X244296*
G75*
G02X245685Y169600I-3239J-3305*
G01*
X262807*
G75*
G02X266057Y172850I3250*
G01*
X271057*
G75*
G02X274307Y169600J-3250*
G01*
X354717*
G37*
X418260D02*
G36*
Y170173D01*
X420760*
Y175091*
X358972*
G75*
G02X358972Y175033I-155753J-2177*
G01*
Y169600*
X398260*
Y170173*
X407516*
Y169600*
X408260*
Y170173*
X417516*
Y169600*
X418260*
G37*
X438260D02*
G36*
Y170173D01*
X440760*
Y177157*
X425016*
Y170173*
X427516*
Y169600*
X428260*
Y170173*
X437516*
Y169600*
X438260*
G37*
X499776Y181693D02*
G36*
X138331D01*
G75*
G02X146299Y169600I-7373J-13530*
G01*
X197138*
Y179285*
G75*
G02X199266Y181413I2128*
G01*
X442888*
G75*
G02X445016Y179285J-2128*
G01*
Y170173*
X447516*
Y169600*
X448260*
Y170173*
X457516*
Y169600*
X458260*
Y170173*
X467516*
Y169600*
X477596*
Y170098*
G75*
G02X475346Y174069I2378J3970*
G01*
G75*
G02X484602I4628*
G01*
G75*
G02X482352Y170098I-4628*
G01*
Y169600*
X492457*
G75*
G02X499776Y181693I15374J-1044*
G01*
G37*
X519443Y178681D02*
Y181943D01*
X515458*
G75*
G02X519443Y178681I-7630J-13386*
G01*
G36*
Y181943*
X515458*
G75*
G02X519443Y178681I-7630J-13386*
G01*
G37*
D02*
D18*
X106549Y110978D02*
X107533D01*
Y110900*
X118537Y100900D02*
Y100742D01*
X211183Y149719D02*
X203400D01*
Y177219*
X422888*
Y165545*
X211478Y130230D02*
X199266D01*
Y179285*
X442888*
Y165545*
X211478Y169797D02*
Y175033D01*
X356844*
Y165545*
X402888*
X220183Y149719D02*
Y149600D01*
X238557*
X220478Y130230D02*
X238557D01*
Y129600*
X220478Y169797D02*
Y169600D01*
X238557*
Y119600D02*
X220301D01*
Y120230*
X238557Y139600D02*
X220006D01*
Y139915*
X238557Y159600D02*
X220596D01*
Y159856*
X268557Y109600D02*
X285002D01*
Y109108*
X268557Y129600D02*
X285002D01*
Y129581*
X268557Y149600D02*
X285002D01*
Y149561*
X284510Y139581D02*
Y139600D01*
X268557*
X285002Y159856D02*
Y159600D01*
X268557*
X285199Y119305D02*
X268557D01*
Y119600*
D02*
D24*
X61430Y77553D02*
X61180D01*
X64030Y74953D02*
Y74703D01*
Y80153D02*
Y80403D01*
X66630Y77553D02*
X66880D01*
X74233Y120900D02*
X73982D01*
X76077Y66313D02*
X75827D01*
X77533Y117600D02*
Y117348D01*
Y124200D02*
Y124451D01*
X78459Y63931D02*
Y63681D01*
Y68695D02*
Y68945D01*
X80833Y120900D02*
X81085D01*
X80841Y66313D02*
X81091D01*
X96077D02*
X95827D01*
X98459Y63931D02*
Y63681D01*
Y68695D02*
Y68945D01*
X100841Y66313D02*
X101091D01*
X104233Y120900D02*
X103983D01*
X107533Y117600D02*
Y117350D01*
Y124200D02*
Y124450D01*
X110833Y120900D02*
X111083D01*
X118024Y121943D02*
X117774D01*
X120624Y119343D02*
Y119093D01*
Y124543D02*
Y124793D01*
X123224Y121943D02*
X123474D01*
X161522Y152514D02*
X161272D01*
X164522Y75447D02*
X164272D01*
X164522Y149514D02*
Y149264D01*
Y155514D02*
Y155764D01*
X167522Y152514D02*
X167772D01*
X169246Y75447D02*
X169496D01*
X170800Y123478D02*
X170550D01*
X173400Y120878D02*
Y120628D01*
Y126078D02*
Y126328D01*
X176000Y123478D02*
X176250D01*
X178260Y79443D02*
X178010D01*
X180860Y76843D02*
Y76593D01*
Y82043D02*
Y82293D01*
X183460Y79443D02*
X183710D01*
X208006Y139915D02*
X207756D01*
X208301Y120230D02*
X208051D01*
X208596Y159856D02*
X208346D01*
X211006Y137165D02*
Y136915D01*
Y142665D02*
Y142915D01*
X211301Y117480D02*
Y117230D01*
Y122980D02*
Y123230D01*
X211596Y157106D02*
Y156856D01*
Y162606D02*
Y162856D01*
X214006Y139915D02*
X214256D01*
X214301Y120230D02*
X214551D01*
X214596Y159856D02*
X214846D01*
X263057Y169600D02*
X262807D01*
X264095Y88012D02*
X263918Y87835D01*
X264095Y92606D02*
X263918Y92783D01*
X268557Y166600D02*
Y166350D01*
Y172600D02*
Y172850D01*
X268689Y88012D02*
X268865Y87835D01*
X268689Y92606D02*
X268865Y92783D01*
X274057Y169600D02*
X274307D01*
X291002Y109108D02*
X290752D01*
X291002Y129581D02*
X290752D01*
X291002Y149561D02*
X290752D01*
X294002Y106358D02*
Y106108D01*
Y111858D02*
Y112108D01*
Y126831D02*
Y126581D01*
Y132331D02*
Y132581D01*
Y146811D02*
Y146561D01*
Y152311D02*
Y152561D01*
X297002Y109108D02*
X297252D01*
X297002Y129581D02*
X297252D01*
X297002Y149561D02*
X297252D01*
X357539Y124041D02*
X357289D01*
X360289Y121041D02*
Y120791D01*
Y127041D02*
Y127291D01*
X363039Y124041D02*
X363289D01*
X373878Y66026D02*
X373628D01*
X376628Y63026D02*
Y62776D01*
Y69026D02*
Y69276D01*
X379378Y66026D02*
X379628D01*
X399888Y155545D02*
X399638D01*
X402888Y152545D02*
Y152295D01*
Y158545D02*
Y158795D01*
X405888Y155545D02*
X406138D01*
X415367Y109266D02*
X415117D01*
X417967Y106666D02*
Y106416D01*
Y111866D02*
Y112116D01*
X419888Y155545D02*
X419638D01*
X420567Y109266D02*
X420817D01*
X422888Y152545D02*
Y152295D01*
Y158545D02*
Y158795D01*
X425888Y155545D02*
X426138D01*
X439888D02*
X439638D01*
X442888Y152545D02*
Y152295D01*
Y158545D02*
Y158795D01*
X445888Y155545D02*
X446138D01*
X465557Y106589D02*
X465307D01*
X468557Y103589D02*
Y103339D01*
Y109589D02*
Y109839D01*
X471557Y106589D02*
X471807D01*
X476890Y86634D02*
X476713Y86457D01*
X476890Y91228D02*
X476713Y91405D01*
X480827Y76792D02*
X480650Y76615D01*
X480827Y81385D02*
X480650Y81562D01*
X481484Y86634D02*
X481661Y86457D01*
X481484Y91228D02*
X481661Y91405D01*
X485421Y76792D02*
X485598Y76615D01*
X485421Y81385D02*
X485598Y81562D01*
X504211Y146510D02*
X503961D01*
X505026Y106982D02*
X504776D01*
X507211Y143760D02*
Y143510D01*
Y149260D02*
Y149510D01*
X508026Y103982D02*
Y103732D01*
Y109982D02*
Y110232D01*
X510211Y146510D02*
X510461D01*
X511026Y106982D02*
X511276D01*
D02*
D25*
X130959Y168163D03*
X131549Y26234D03*
X385585Y27022D03*
X507829Y168557D03*
D02*
D26*
X190329Y108104D03*
Y118104D03*
X366864Y87061D03*
X376864D03*
X402888Y155545D03*
Y165545D03*
X412888Y155545D03*
Y165545D03*
X422888Y155545D03*
Y165545D03*
X432888Y155545D03*
Y165545D03*
X442888Y155545D03*
Y165545D03*
X452888Y155545D03*
Y165545D03*
X462888Y155545D03*
Y165545D03*
X468557Y106589D03*
Y116589D03*
Y126589D03*
X508026Y106982D03*
Y116982D03*
Y126982D03*
D02*
D27*
X238557Y109600D03*
Y119600D03*
Y129600D03*
Y139600D03*
Y149600D03*
Y159600D03*
Y169600D03*
X268557Y109600D03*
Y119600D03*
Y129600D03*
Y139600D03*
Y149600D03*
Y159600D03*
Y169600D03*
D02*
D28*
X164522Y152514D03*
X179522D03*
X221116Y109600D03*
X479974Y174069D03*
D02*
D29*
X25250Y79896D03*
Y95421D03*
D02*
D72*
X238833Y80467D03*
X242770Y90309D03*
X246707Y80467D03*
X250644Y90309D03*
X254581Y80467D03*
X258518Y90309D03*
X262455Y80467D03*
X266392Y90309D03*
X270329Y80467D03*
X274266Y90309D03*
X278203Y80467D03*
X282140Y90309D03*
X286077Y80467D03*
X290014Y90309D03*
X293951Y80467D03*
X297888Y90309D03*
X301825Y80467D03*
X305762Y90309D03*
X447691Y88931D03*
X451628Y79089D03*
X455565Y88931D03*
X459502Y79089D03*
X463439Y88931D03*
X467376Y79089D03*
X471313Y88931D03*
X475250Y79089D03*
X479187Y88931D03*
X483124Y79089D03*
D02*
D73*
X426825Y56844D03*
X502809D03*
D02*
D74*
X214030Y58222D03*
X329384D03*
D02*
D75*
X211006Y139915D03*
X211183Y149719D03*
X211301Y120230D03*
X211478Y130230D03*
Y169797D03*
X211596Y159856D03*
X220006Y139915D03*
X220183Y149719D03*
X220301Y120230D03*
X220478Y130230D03*
Y169797D03*
X220596Y159856D03*
X284510Y139581D03*
X285002Y109108D03*
Y129581D03*
Y149561D03*
Y159856D03*
X285199Y119305D03*
X293510Y139581D03*
X294002Y109108D03*
Y129581D03*
Y149561D03*
Y159856D03*
X294199Y119305D03*
X371341Y114719D03*
X380341D03*
X498211Y146510D03*
X507211D03*
D02*
D76*
X360289Y115041D03*
Y124041D03*
X376628Y66026D03*
Y75026D03*
X435486Y98604D03*
Y107604D03*
X480171Y152935D03*
Y161935D03*
X487750Y99490D03*
Y108490D03*
D02*
D77*
X398872Y108026D03*
Y115112D03*
Y122199D03*
D02*
D78*
X39620Y103380D03*
Y143380D03*
X39915Y29463D03*
Y69463D03*
X52612Y103380D03*
Y143380D03*
X52809Y29758D03*
Y69758D03*
X64030Y77553D03*
Y97553D03*
X118537Y100742D03*
Y110978D03*
X120624Y121943D03*
Y141943D03*
X133400Y123478D03*
X139719Y51805D03*
Y91805D03*
X150329Y90407D03*
X158537Y100742D03*
Y110978D03*
X173400Y123478D03*
X180860Y59443D03*
Y79443D03*
X190329Y90407D03*
X417967Y89266D03*
Y109266D03*
D02*
D79*
X78459Y66313D03*
X88459D03*
X98459D03*
X108459D03*
D02*
D80*
X77533Y120900D03*
D02*
D81*
Y90900D03*
Y100900D03*
Y110900D03*
X107533Y90900D03*
Y100900D03*
Y110900D03*
Y120900D03*
D02*
D82*
X157041Y71707D03*
Y79187D03*
X166884Y71707D03*
Y75447D03*
Y79187D03*
D02*
D83*
X238557Y109600D02*
X221116D01*
D02*
D84*
X25250Y79896D02*
X39915D01*
Y69463*
X25250Y95421D02*
X39620D01*
Y103380*
X52612Y143380D02*
X39620D01*
X52809Y69758D02*
Y103380D01*
X52612*
X107533Y100900D02*
X118537D01*
Y100742*
X107533Y110900D02*
X118537D01*
Y110978*
X139719Y51805D02*
Y71707D01*
X157041*
X158537Y100742D02*
X150644D01*
Y79187*
X157041*
X158537Y110978D02*
X172002D01*
Y79187*
X166884*
Y75447D02*
X180860D01*
Y79443*
X173400Y123478D02*
X171608D01*
X190329Y90407D02*
Y71707D01*
X166884*
X190329Y108104D02*
X189915D01*
Y90407*
X190329*
X192573Y118104D02*
X190781D01*
Y118203*
X282140Y90309D02*
Y99266D01*
X341096*
Y115041*
X360289*
X293510Y139581D02*
X418557D01*
X432888Y153911*
Y155545*
X293510Y140703D02*
Y139581D01*
X294199Y119305D02*
X323281D01*
Y118852*
X305762Y90309D02*
X366864D01*
Y87061*
X311077Y109502D02*
X323380D01*
Y109600*
X360289Y115041D02*
X371341D01*
Y114719*
X376864Y87061D02*
Y75026D01*
X376628*
X380341Y114719D02*
X398872D01*
Y115112*
X402888Y165545D02*
Y167415D01*
X412888Y155545D02*
Y147593D01*
X334207*
Y159856*
X294002*
X435486Y98604D02*
Y97100D01*
X447691*
Y88931*
X435486Y107604D02*
Y126589D01*
X457927*
X452888Y155545D02*
Y154758D01*
X455565Y88931D02*
Y97297D01*
X487750*
Y99490*
X457927Y126589D02*
X455368D01*
X468557D02*
X457927D01*
X480171Y161935D02*
X479974D01*
Y174069*
X487750Y108490D02*
Y126982D01*
X500644*
X498211Y146510D02*
X480171D01*
Y152935*
X500644Y126982D02*
X497514D01*
X508026D02*
X500644D01*
D02*
D85*
X311077Y109502D03*
X323281Y118852D03*
X323380Y109600D03*
X0Y0D02*
M02*
