G04 EasyPC Gerber Version 21.0.3 Build 4286 *
G04 #@! TF.Part,Single*
G04 #@! TF.FileFunction,Soldermask,Bot *
G04 #@! TF.FilePolarity,Negative *
%FSLAX35Y35*%
%MOIN*%
G04 #@! TA.AperFunction,SMDPad*
%ADD93R,0.06100X0.06600*%
G04 #@! TA.AperFunction,ComponentPad*
%ADD13R,0.06600X0.06600*%
%ADD97R,0.07200X0.07200*%
%ADD96C,0.05364*%
%ADD94C,0.06545*%
G04 #@! TA.AperFunction,WasherPad*
%ADD11C,0.06600*%
G04 #@! TA.AperFunction,ComponentPad*
%ADD89C,0.07096*%
%ADD98C,0.07200*%
%ADD90C,0.18907*%
%ADD91C,0.20285*%
G04 #@! TA.AperFunction,WasherPad*
%ADD86C,0.28159*%
%ADD87O,0.11600X0.06600*%
%ADD88O,0.12411X0.08474*%
G04 #@! TA.AperFunction,SMDPad*
%ADD92R,0.06600X0.06100*%
G04 #@! TA.AperFunction,ComponentPad*
%AMT95*0 Octagon Pad at angle 0*4,1,8,-0.01200,-0.02900,0.01200,-0.02900,0.02900,-0.01200,0.02900,0.01200,0.01200,0.02900,-0.01200,0.02900,-0.02900,0.01200,-0.02900,-0.01200,-0.01200,-0.02900,0*%
%ADD95T95*%
X0Y0D02*
D02*
D11*
X164522Y152514D03*
X179522D03*
X221116Y109600D03*
X479974Y174069D03*
D02*
D13*
X190329Y108104D03*
Y118104D03*
X366864Y87061D03*
X376864D03*
X402888Y155545D03*
Y165545D03*
X412888Y155545D03*
Y165545D03*
X422888Y155545D03*
Y165545D03*
X432888Y155545D03*
Y165545D03*
X442888Y155545D03*
Y165545D03*
X452888Y155545D03*
Y165545D03*
X462888Y155545D03*
Y165545D03*
X468557Y106589D03*
Y116589D03*
Y126589D03*
X508026Y106982D03*
Y116982D03*
Y126982D03*
D02*
D86*
X130959Y168163D03*
X131549Y26234D03*
X385585Y27022D03*
X507829Y168557D03*
D02*
D87*
X238557Y109600D03*
Y119600D03*
Y129600D03*
Y139600D03*
Y149600D03*
Y159600D03*
Y169600D03*
X268557Y109600D03*
Y119600D03*
Y129600D03*
Y139600D03*
Y149600D03*
Y159600D03*
Y169600D03*
D02*
D88*
X25250Y79896D03*
Y95421D03*
D02*
D89*
X238833Y80467D03*
X242770Y90309D03*
X246707Y80467D03*
X250644Y90309D03*
X254581Y80467D03*
X258518Y90309D03*
X262455Y80467D03*
X266392Y90309D03*
X270329Y80467D03*
X274266Y90309D03*
X278203Y80467D03*
X282140Y90309D03*
X286077Y80467D03*
X290014Y90309D03*
X293951Y80467D03*
X297888Y90309D03*
X301825Y80467D03*
X305762Y90309D03*
X447691Y88931D03*
X451628Y79089D03*
X455565Y88931D03*
X459502Y79089D03*
X463439Y88931D03*
X467376Y79089D03*
X471313Y88931D03*
X475250Y79089D03*
X479187Y88931D03*
X483124Y79089D03*
D02*
D90*
X426825Y56844D03*
X502809D03*
D02*
D91*
X214030Y58222D03*
X329384D03*
D02*
D92*
X468781Y136766D03*
X477781D03*
X499195D03*
X508195D03*
D02*
D93*
X376726Y65829D03*
Y74829D03*
X380860Y106478D03*
Y115478D03*
X480270Y106675D03*
Y115675D03*
X496215Y106774D03*
Y115774D03*
D02*
D94*
X398872Y108026D03*
Y115112D03*
Y122199D03*
D02*
D95*
X39620Y103380D03*
Y143380D03*
X39915Y29463D03*
Y69463D03*
X52612Y103380D03*
Y143380D03*
X52809Y29758D03*
Y69758D03*
X64030Y77553D03*
Y97553D03*
X118537Y100742D03*
Y110978D03*
X120624Y121943D03*
Y141943D03*
X133400Y123478D03*
X139719Y51805D03*
Y91805D03*
X150329Y90407D03*
X158537Y100742D03*
Y110978D03*
X173400Y123478D03*
X180860Y59443D03*
Y79443D03*
X190329Y90407D03*
X417967Y89266D03*
Y109266D03*
D02*
D96*
X78459Y66313D03*
X88459D03*
X98459D03*
X108459D03*
D02*
D97*
X77533Y120900D03*
D02*
D98*
Y90900D03*
Y100900D03*
Y110900D03*
X107533Y90900D03*
Y100900D03*
Y110900D03*
Y120900D03*
X0Y0D02*
M02*
