G04 EasyPC Gerber Version 21.0.3 Build 4286 *
G04 #@! TF.Part,Single*
G04 #@! TF.FileFunction,Legend,Bot *
G04 #@! TF.FilePolarity,Positive *
%FSLAX35Y35*%
%MOIN*%
%ADD17C,0.00500*%
X0Y0D02*
D02*
D17*
X368326Y98041D02*
X368638Y97728D01*
X369263Y97416*
X370201*
X370826Y97728*
X371138Y98041*
X371451Y98666*
Y99916*
X371138Y100541*
X370826Y100854*
X370201Y101166*
X369263*
X368638Y100854*
X368326Y100541*
X366138Y97728D02*
X365513Y97416D01*
X364888*
X364263Y97728*
X363951Y98354*
X364263Y98978*
X364888Y99291*
X365513*
X364888D02*
X364263Y99604D01*
X363951Y100228*
X364263Y100854*
X364888Y101166*
X365513*
X366138Y100854*
X380226Y78329D02*
Y62329D01*
X373226*
Y78329*
X380226*
X384360Y118978D02*
Y102978D01*
X377360*
Y118978*
X384360*
X465281Y140266D02*
X481281D01*
Y133266*
X465281*
Y140266*
X467735Y98238D02*
X468048Y97925D01*
X468673Y97613*
X469610*
X470235Y97925*
X470548Y98238*
X470860Y98863*
Y100113*
X470548Y100738*
X470235Y101050*
X469610Y101363*
X468673*
X468048Y101050*
X467735Y100738*
X465235Y97613D02*
X463985D01*
X464610D02*
Y101363D01*
X465235Y100738*
X483770Y119175D02*
Y103175D01*
X476770*
Y119175*
X483770*
X486320Y142474D02*
X482570D01*
Y140287*
X482883Y139662*
X483508Y139349*
X484133Y139662*
X484445Y140287*
Y142474*
Y140287D02*
X486320Y139349D01*
Y134974D02*
Y137474D01*
X484133Y135287*
X483508Y134974*
X482883Y135287*
X482570Y135912*
Y136849*
X482883Y137474*
X486008Y132162D02*
X486320Y131537D01*
Y130912*
X486008Y130287*
X485383Y129974*
X483508*
X482883Y130287*
X482570Y130912*
Y131537*
X482883Y132162*
X483508Y132474*
X485383*
X486008Y132162*
X482883Y130287*
X490656Y131057D02*
X494406D01*
Y133244*
X494094Y133870*
X493469Y134182*
X492844Y133870*
X492531Y133244*
Y131057*
Y133244D02*
X490656Y134182D01*
Y138557D02*
Y136057D01*
X492844Y138244*
X493469Y138557*
X494094Y138244*
X494406Y137620*
Y136682*
X494094Y136057*
X490656Y141682D02*
Y142932D01*
Y142307D02*
X494406D01*
X493781Y141682*
X499715Y119274D02*
Y103274D01*
X492715*
Y119274*
X499715*
X498089Y98336D02*
X498402Y98024D01*
X499027Y97711*
X499965*
X500589Y98024*
X500902Y98336*
X501215Y98961*
Y100211*
X500902Y100836*
X500589Y101149*
X499965Y101461*
X499027*
X498402Y101149*
X498089Y100836*
X493715Y97711D02*
X496215D01*
X494027Y99899*
X493715Y100524*
X494027Y101149*
X494652Y101461*
X495589*
X496215Y101149*
X511695Y133266D02*
X495695D01*
Y140266*
X511695*
Y133266*
X0Y0D02*
M02*
